<svg xmlns="http://www.w3.org/2000/svg" width="19.833" height="21.97" viewBox="0 0 19.833 21.97"><defs><style>.a{fill:#dd141d;stroke:#dd141d;}.a,.b{stroke-width:0.3px;}.b{fill:#575757;stroke:#575757;}</style></defs><g transform="translate(-33.397 -9.85)"><path class="a" d="M80.748,131.78h11.33a.263.263,0,1,0,0-.527H80.748a.263.263,0,1,0,0,.527Z" transform="translate(-44.878 -115.931)"/><path class="a" d="M170.615,192.86H162.89a.263.263,0,0,0,0,.527h7.725a.263.263,0,1,0,0-.527Z" transform="translate(-123.415 -174.835)"/><path class="a" d="M166.7,254.467H162.89a.263.263,0,0,0,0,.527H166.7a.263.263,0,1,0,0-.527Z" transform="translate(-123.415 -233.738)"/><path class="a" d="M86.31,316.073H80.748a.263.263,0,1,0,0,.527H86.31a.263.263,0,1,0,0-.527Z" transform="translate(-44.878 -292.64)"/><path class="a" d="M86.259,377.68H80.748a.263.263,0,0,0,0,.527h5.511a.263.263,0,0,0,0-.527Z" transform="translate(-44.878 -351.543)"/><path class="a" d="M81.711,173.741H81.7a.693.693,0,0,1-.686-.693.263.263,0,0,0-.527,0,1.221,1.221,0,0,0,.956,1.191v.335a.263.263,0,0,0,.527,0v-.335a1.219,1.219,0,0,0-.263-2.41.693.693,0,1,1,.693-.693.263.263,0,0,0,.527,0,1.221,1.221,0,0,0-.956-1.191v-.291a.263.263,0,1,0-.527,0v.291a1.219,1.219,0,0,0,.263,2.41.693.693,0,1,1,.007,1.386Z" transform="translate(-44.878 -152.396)"/><path class="b" d="M49.524,21.1V12.581a1.3,1.3,0,0,0-1.293-1.293H44.866A1.553,1.553,0,0,0,43.338,10h-3.6A1.55,1.55,0,0,0,38.2,11.287H34.84a1.3,1.3,0,0,0-1.293,1.293V29.4A1.3,1.3,0,0,0,34.84,30.7h9.785v-.037a5.413,5.413,0,1,0,4.9-9.564ZM39.009,10.827a1.017,1.017,0,0,1,.725-.3h3.605a1.024,1.024,0,1,1,0,2.048H39.733a1.024,1.024,0,0,1-.724-1.748ZM34.84,30.171a.768.768,0,0,1-.767-.767V12.581a.768.768,0,0,1,.767-.767H38.2A1.553,1.553,0,0,0,39.733,13.1h3.605a1.551,1.551,0,0,0,1.528-1.288h3.364a.768.768,0,0,1,.767.767v8.353a5.411,5.411,0,0,0-4.991,9.237Zm12.819.9a4.887,4.887,0,1,1,4.887-4.887,4.887,4.887,0,0,1-4.887,4.887Z"/><path class="b" d="M306.363,341.435,303.8,344l-1.187-1.187a.263.263,0,0,0-.372.372l1.373,1.373a.263.263,0,0,0,.372,0l2.747-2.747a.263.263,0,0,0-.372-.372Z" transform="translate(-256.83 -316.815)"/></g></svg>