<svg xmlns="http://www.w3.org/2000/svg" width="22.092" height="30" viewBox="0 0 22.092 30">
  <g id="Grupo_4030" data-name="Grupo 4030" transform="translate(-679.055 -2954.048)">
    <path id="Trazado_2107" data-name="Trazado 2107" d="M685.677,2969.239h-4.583v-.937h4.582v-1.377h-4.582v-.933h4.59a2.442,2.442,0,0,1,.518-1.38h-5.107v-.933h14.2l.011-9.631h-16.25v24.427h6.622Zm-4.583-12.889h3.894v1.423h-3.894Zm0,2.7H691.95v1.711H681.094Zm0,2.363H691.95v1.713H681.094Zm1.8,14.456v.6h-.748v-.573a7.619,7.619,0,0,1-.951-.109v-.909h.574l.054.306c.17.005.34.009.56.009.4,0,.6-.126.6-.4,0-.2-.1-.283-.432-.441l-.559-.266c-.53-.249-.9-.464-.9-1.084,0-.589.362-.913,1.055-1.006v-.56h.747v.535a5.708,5.708,0,0,1,.907.118v.872h-.575l-.052-.285c-.177-.014-.354-.021-.543-.021-.385,0-.59.08-.59.334,0,.181.087.268.426.418l.53.233c.592.268.936.519.936,1.121a1.07,1.07,0,0,1-1.038,1.108" fill="#e10518"/>
    <path id="Trazado_2108" data-name="Trazado 2108" d="M706.136,2993.112H694.605a1.5,1.5,0,0,1-1.5-1.5v-16.43a1.5,1.5,0,0,1,1.5-1.494h11.531a1.5,1.5,0,0,1,1.5,1.494v16.43a1.5,1.5,0,0,1-1.5,1.5m-11.531-18.282a.357.357,0,0,0-.355.356v16.43a.355.355,0,0,0,.355.354h11.531a.355.355,0,0,0,.356-.354v-16.43a.357.357,0,0,0-.356-.356Z" transform="translate(-6.485 -9.064)" fill="#575757"/>
    <rect id="Rectángulo_101" data-name="Rectángulo 101" width="8.875" height="1.138" transform="translate(689.449 2973.202)" fill="#575757"/>
    <rect id="Rectángulo_102" data-name="Rectángulo 102" width="4.95" height="1.14" transform="translate(689.449 2969.521)" fill="#575757"/>
    <rect id="Rectángulo_103" data-name="Rectángulo 103" width="8.875" height="1.138" transform="translate(689.449 2976.066)" fill="#575757"/>
    <rect id="Rectángulo_104" data-name="Rectángulo 104" width="8.875" height="1.14" transform="translate(689.449 2979.011)" fill="#575757"/>
  </g>
</svg>
