<svg xmlns="http://www.w3.org/2000/svg" width="22" height="22" viewBox="0 0 22 22"><defs><style>.a{fill:#eee;opacity:0;}.b{fill:#575757;}.c{fill:#dd141d;}</style></defs><g transform="translate(-30 -327)"><rect class="a" width="22" height="22" transform="translate(30 327)"/><g transform="translate(30.43 328.84)"><g transform="translate(0 -0.001)"><path class="b" d="M20.436,12H5.99a.352.352,0,1,0,0,.7H8.12a5.467,5.467,0,0,0,0,9.161H.7V12.7H4.228a.352.352,0,1,0,0-.7H.7a.7.7,0,0,0-.7.7v9.161a.7.7,0,0,0,.7.7H20.436a.7.7,0,0,0,.7-.7V12.7A.7.7,0,0,0,20.436,12ZM6.342,17.285A4.42,4.42,0,0,1,10.57,12.7a4.42,4.42,0,0,1,4.228,4.58,4.42,4.42,0,0,1-4.228,4.58A4.42,4.42,0,0,1,6.342,17.285Zm14.094,4.58H13.021a5.467,5.467,0,0,0,0-9.161h7.415Z" transform="translate(0 -8.124)"/><path class="c" d="M37.355,1.073a.7.7,0,0,0-.537-.039L29.229,3.578a.353.353,0,0,0,.224.669L37.04,1.7l.779,2.322a.353.353,0,0,0,.669-.224l-.779-2.32A.694.694,0,0,0,37.355,1.073Z" transform="translate(-18.774 -0.999)"/><path class="c" d="M13.05,43.746,5.463,46.289l-.779-2.322a.353.353,0,0,0-.669.224l.778,2.319a.694.694,0,0,0,.352.408.707.707,0,0,0,.314.074.717.717,0,0,0,.223-.035l7.589-2.544a.353.353,0,1,0-.224-.669Z" transform="translate(-2.588 -28.672)"/><path class="b" d="M27.819,19.938a.352.352,0,1,0,.7,0,1.64,1.64,0,0,0-1.409-1.553v-.032a.352.352,0,0,0-.7,0v.032a1.561,1.561,0,0,0,0,3.107v1.74a.907.907,0,0,1-.7-.827.352.352,0,0,0-.7,0,1.64,1.64,0,0,0,1.409,1.553v.032a.352.352,0,0,0,.7,0v-.032a1.561,1.561,0,0,0,0-3.107v-1.74A.907.907,0,0,1,27.819,19.938Zm-2.114,0a.907.907,0,0,1,.7-.827v1.653a.907.907,0,0,1-.7-.827ZM27.819,22.4a.907.907,0,0,1-.7.827V21.578A.907.907,0,0,1,27.819,22.4Z" transform="translate(-16.191 -12.01)"/><path class="b" d="M50.352,34.114h1.409a.352.352,0,0,0,.352-.352V32.352a.352.352,0,1,0-.7,0v1.057H50.352a.352.352,0,0,0,0,.7Z" transform="translate(-32.383 -21.077)"/><path class="b" d="M4.352,32A.352.352,0,0,0,4,32.352v1.409a.352.352,0,0,0,.352.352H5.762a.352.352,0,0,0,0-.7H4.7V32.352A.352.352,0,0,0,4.352,32Z" transform="translate(-2.591 -21.077)"/><path class="b" d="M5.762,16H4.352A.352.352,0,0,0,4,16.352v1.409a.352.352,0,1,0,.7,0V16.7H5.762a.352.352,0,1,0,0-.7Z" transform="translate(-2.591 -10.714)"/><path class="b" d="M50.352,16.7h1.057v1.057a.352.352,0,1,0,.7,0V16.352A.352.352,0,0,0,51.762,16H50.352a.352.352,0,0,0,0,.7Z" transform="translate(-32.383 -10.714)"/></g></g></g></svg>