<svg xmlns="http://www.w3.org/2000/svg" width="22" height="22" viewBox="0 0 22 22"><defs><style>.a{fill:#eee;opacity:0;}.b{fill:#575757;}.c{fill:#dd141d;}</style></defs><g transform="translate(-30 -327)"><rect class="a" width="22" height="22" transform="translate(30 327)"/><g transform="translate(30.974 327.958)"><g transform="translate(-0.007 0.005)"><path class="b" d="M26.36,9.8h.019a.332.332,0,0,0,.332-.313c0-.062,0-.125,0-.188a9.234,9.234,0,0,0-1.238-4.625c0-.007,0-.015-.007-.022s-.011-.011-.015-.017a9.361,9.361,0,0,0-3.369-3.368c-.007,0-.01-.011-.017-.015s-.015,0-.022-.007a9.257,9.257,0,0,0-9.246,0c-.009,0-.018,0-.026.009s-.014.014-.022.019A9.333,9.333,0,0,0,11.8,1.9a.333.333,0,1,0,.4.531c.2-.153.409-.3.62-.43l.328.569a.332.332,0,0,0,.575-.332l-.33-.572A8.525,8.525,0,0,1,17.088.68v.651a.332.332,0,0,0,.664,0V.675a8.572,8.572,0,0,1,3.691.99l-.327.567a.332.332,0,1,0,.575.332L22.017,2a8.692,8.692,0,0,1,2.7,2.7l-.564.327a.332.332,0,1,0,.332.575l.567-.327a8.575,8.575,0,0,1,1,4.022c0,.05,0,.1,0,.15a.332.332,0,0,0,.312.351Z" transform="translate(-8.123 -0.005)"/><path class="c" d="M34.311,28a5.311,5.311,0,1,0,5.311,5.311A5.311,5.311,0,0,0,34.311,28Zm0,9.958a4.647,4.647,0,1,1,4.647-4.647A4.647,4.647,0,0,1,34.311,37.958Z" transform="translate(-19.703 -18.707)"/><path class="b" d="M21.965,8.3A.974.974,0,0,0,21.26,8a1,1,0,0,0-1,1V13.77a1.316,1.316,0,0,0-.323.779l-2.235,2.235a1,1,0,0,0,1.409,1.409l2.236-2.235a1.316,1.316,0,0,0,.906-2.188V9A.971.971,0,0,0,21.965,8.3Zm-.706.367a.325.325,0,0,1,.236.1.318.318,0,0,1,.1.23v4.362a1.192,1.192,0,0,0-.664,0V9A.332.332,0,0,1,21.26,8.664Zm-2.615,9.06a.332.332,0,1,1-.47-.47l1.945-1.945a1.328,1.328,0,0,0,.47.47ZM21.26,15.3a.664.664,0,1,1,.664-.664A.664.664,0,0,1,21.26,15.3Z" transform="translate(-11.963 -5.346)"/><path class="b" d="M2.261,21.077a9.361,9.361,0,0,0,3.364,3.359c.007,0,.01.011.017.015l.033.013A9.234,9.234,0,0,0,10.289,25.7c.063,0,.125,0,.188,0a.332.332,0,0,0,.312-.35.34.34,0,0,0-.35-.312c-.051,0-.1,0-.15,0a8.575,8.575,0,0,1-4.023-1l.327-.567a.332.332,0,0,0-.575-.332l-.327.564a8.692,8.692,0,0,1-2.7-2.7l.564-.327a.332.332,0,1,0-.332-.575l-.567.327a8.572,8.572,0,0,1-.989-3.691h.656a.332.332,0,1,0,0-.664H1.672a8.531,8.531,0,0,1,.98-3.694l.572.33a.332.332,0,1,0,.332-.575L2.987,11.8c.133-.211.276-.419.43-.62a.332.332,0,1,0-.528-.4,9.369,9.369,0,0,0-.631.953c-.006.008-.014.013-.019.022s0,.018-.009.026a9.258,9.258,0,0,0,0,9.246c0,.007,0,.015.007.022a.32.32,0,0,0,.024.027Z" transform="translate(-0.993 -7.11)"/><path class="c" d="M42.319,35.158a.332.332,0,1,0,.664,0,1.882,1.882,0,0,0-1.66-1.8v-.028a.332.332,0,1,0-.664,0v.028a1.8,1.8,0,0,0,0,3.6v2.31a1.2,1.2,0,0,1-1-1.121.332.332,0,0,0-.664,0,1.882,1.882,0,0,0,1.66,1.8v.028a.332.332,0,1,0,.664,0v-.028a1.8,1.8,0,0,0,0-3.6v-2.31A1.2,1.2,0,0,1,42.319,35.158Zm-2.655,0a1.2,1.2,0,0,1,1-1.121v2.241A1.2,1.2,0,0,1,39.664,35.158Zm2.655,2.987a1.2,1.2,0,0,1-1,1.121V37.024A1.2,1.2,0,0,1,42.319,38.145Z" transform="translate(-26.384 -22.048)"/></g></g></g></svg>