<?xml version="1.0" encoding="UTF-8"?>
<svg width="38px" height="38px" viewBox="0 0 38 38" version="1.1" xmlns="http://www.w3.org/2000/svg" xmlns:xlink="http://www.w3.org/1999/xlink">
    <title>04-iconos/01-24x24_/General icons/Categorías</title>
    <g id="HU-359:-Productos-solicitados-en-nuestros-aliados-(android)" stroke="none" stroke-width="1" fill="none" fill-rule="evenodd">
        <g id="Categorias" transform="translate(-13.000000, -93.000000)" fill-rule="nonzero">
            <g id="Group" transform="translate(0.000000, 80.000000)">
                <g id="04-iconos/01-24x24_/General-icons/Categorías" transform="translate(13.000000, 13.000000)">
                    <g id="Mask" fill="#ffffff">
                        <path d="M33,18 L25,18 C22.2385763,18 20,15.7614237 20,13 L20,5 C20,2.23857625 22.2385763,0 25,0 L33,0 C35.7614237,0 38,2.23857625 38,5 L38,13 C38,15.7614237 35.7614237,18 33,18 L33,18 Z M25,2 C23.3431458,2 22,3.34314575 22,5 L22,13 C22,14.6568542 23.3431458,16 25,16 L33,16 C34.6568542,16 36,14.6568542 36,13 L36,5 C36,3.34314575 34.6568542,2 33,2 L25,2 Z" id="Shape"></path>
                        <path d="M13,18 L5,18 C2.23857625,18 0,15.7614237 0,13 L0,5 C0,2.23857625 2.23857625,0 5,0 L13,0 C14.3260824,0 15.597852,0.526784202 16.5355339,1.46446609 C17.4732158,2.40214799 18,3.67391755 18,5 L18,13 C18,14.3260824 17.4732158,15.597852 16.5355339,16.5355339 C15.597852,17.4732158 14.3260824,18 13,18 L13,18 Z M5,2 C3.34314575,2 2,3.34314575 2,5 L2,13 C2,14.6568542 3.34314575,16 5,16 L13,16 C14.6568542,16 16,14.6568542 16,13 L16,5 C16,3.34314575 14.6568542,2 13,2 L5,2 Z" id="Shape"></path>
                        <path d="M13,38 L5,38 C2.23857625,38 0,35.7614237 0,33 L0,25 C0,22.2385763 2.23857625,20 5,20 L13,20 C14.3260824,20 15.597852,20.5267842 16.5355339,21.4644661 C17.4732158,22.402148 18,23.6739176 18,25 L18,33 C18,35.7614237 15.7614237,38 13,38 Z M5,22 C3.34314575,22 2,23.3431458 2,25 L2,33 C2,34.6568542 3.34314575,36 5,36 L13,36 C14.6568542,36 16,34.6568542 16,33 L16,25 C16,23.3431458 14.6568542,22 13,22 L5,22 Z" id="Shape"></path>
                        <path d="M33,38 L25,38 C22.2385763,38 20,35.7614237 20,33 L20,25 C20,22.2385763 22.2385763,20 25,20 L33,20 C35.7614237,20 38,22.2385763 38,25 L38,33 C38,35.7614237 35.7614237,38 33,38 Z M25,22 C23.3431458,22 22,23.3431458 22,25 L22,33 C22,34.6568542 23.3431458,36 25,36 L33,36 C34.6568542,36 36,34.6568542 36,33 L36,25 C36,23.3431458 34.6568542,22 33,22 L25,22 Z" id="Shape"></path>
                    </g>
                    <rect id="Color" x="-5" y="-5" width="48" height="48"></rect>
                </g>
            </g>
        </g>
    </g>
</svg>