<svg xmlns="http://www.w3.org/2000/svg" width="53.287" height="54.899" viewBox="0 0 53.287 54.899">
  <g id="bundle-os-x-cursors" transform="translate(0.407 14.805) rotate(-21)" opacity="0.5">
    <g id="Made-with-_by-Azendoo-design-team---_azendoo" data-name="Made-with-💕by-Azendoo-design-team---@azendoo" transform="translate(0.439 0.477)">
      <g id="pointinghand" transform="translate(0 0)">
        <path id="cursor" d="M8.325,32.927c-.774-.979-1.715-2.98-3.389-5.409-.949-1.374-3.3-3.961-4-5.275a3.448,3.448,0,0,1-.4-2.644,3.593,3.593,0,0,1,3.885-2.865,7.253,7.253,0,0,1,3.694,1.952,17.417,17.417,0,0,1,1.936,2.148c.444.534.553.755,1.028,1.388.627.837.823,1.251.583.33-.194-1.352-.51-3.661-.968-5.7-.349-1.549-.433-1.791-.766-2.98-.352-1.265-.532-2.151-.862-3.492A38.6,38.6,0,0,1,8.315,6.4c-.155-1.491-.237-3.923.72-5.041a3.232,3.232,0,0,1,3.536-.6c1.4.706,2.189,2.734,2.552,3.544a21.084,21.084,0,0,1,1.407,5.346c.447,2.811,1.27,6.712,1.3,7.533.065-1.006-.185-3.124-.011-4.089a2.928,2.928,0,0,1,1.816-2.167,5.306,5.306,0,0,1,2.5-.15,3.45,3.45,0,0,1,2.088,1.36c.987,1.7,1.006,5.177,1.047,4.992.234-1.025.194-3.351.774-4.318A3.394,3.394,0,0,1,27.911,11.5a7.589,7.589,0,0,1,2.628-.022,3.837,3.837,0,0,1,1.846,1.328c.594.938.932,3.591,1.033,4.52.041.384.2-1.069.8-2.007a2.821,2.821,0,0,1,5.174,1.742c.068,1.783.055,1.7.055,2.9,0,1.409-.033,2.257-.109,3.277a32.017,32.017,0,0,1-.66,4.749A16.1,16.1,0,0,1,36.9,31.763s-2.928,3.408-3.247,4.943a10.91,10.91,0,0,0-.278,2.631,9.53,9.53,0,0,0,.33,2.514,15.936,15.936,0,0,1-3.364.1c-1.066-.172-2.385-2.293-2.726-2.942a1.034,1.034,0,0,0-1.859-.063c-.613,1.044-1.933,2.917-2.865,3.034-1.821.229-5.6.085-8.558.055,0,0,.5-2.756-.619-3.7-.832-.706-2.263-2.137-3.119-2.89Z" transform="translate(-0.439 -0.477)" fill="#fff" fill-rule="evenodd"/>
        <path id="cursor-2" data-name="cursor" stroke="#000" d="M8.325,32.927c-.774-.979-1.715-2.98-3.389-5.409-.949-1.374-3.3-3.961-4-5.275a3.448,3.448,0,0,1-.4-2.644,3.593,3.593,0,0,1,3.885-2.865,7.253,7.253,0,0,1,3.694,1.952,17.417,17.417,0,0,1,1.936,2.148c.444.534.553.755,1.028,1.388.627.837.823,1.251.583.33-.194-1.352-.51-3.661-.968-5.7-.349-1.549-.433-1.791-.766-2.98-.352-1.265-.532-2.151-.862-3.492A38.6,38.6,0,0,1,8.315,6.4c-.155-1.491-.237-3.923.72-5.041a3.232,3.232,0,0,1,3.536-.6c1.4.706,2.189,2.734,2.552,3.544a21.084,21.084,0,0,1,1.407,5.346c.447,2.811,1.27,6.712,1.3,7.533.065-1.006-.185-3.124-.011-4.089a2.928,2.928,0,0,1,1.816-2.167,5.306,5.306,0,0,1,2.5-.15,3.45,3.45,0,0,1,2.088,1.36c.987,1.7,1.006,5.177,1.047,4.992.234-1.025.194-3.351.774-4.318A3.394,3.394,0,0,1,27.911,11.5a7.589,7.589,0,0,1,2.628-.022,3.837,3.837,0,0,1,1.846,1.328c.594.938.932,3.591,1.033,4.52.041.384.2-1.069.8-2.007a2.821,2.821,0,0,1,5.174,1.742c.068,1.783.055,1.7.055,2.9,0,1.409-.033,2.257-.109,3.277a32.017,32.017,0,0,1-.66,4.749A16.1,16.1,0,0,1,36.9,31.763s-2.928,3.408-3.247,4.943a10.91,10.91,0,0,0-.278,2.631,9.53,9.53,0,0,0,.33,2.514,15.936,15.936,0,0,1-3.364.1c-1.066-.172-2.385-2.293-2.726-2.942a1.034,1.034,0,0,0-1.859-.063c-.613,1.044-1.933,2.917-2.865,3.034-1.821.229-5.6.085-8.558.055,0,0,.5-2.756-.619-3.7-.832-.706-2.263-2.137-3.119-2.89L8.325,32.927Z" fill="none" transform="translate(-0.439 -0.477)" stroke-linecap="round" stroke-linejoin="round" stroke-width="1.5" fill-rule="evenodd"/>
        <path id="cursor-3" data-name="cursor" d="M11.566,18.706V9.275" transform="translate(18.771 14.71)" fill="none" stroke="#000" stroke-linecap="round" stroke-width="1.5" fill-rule="evenodd"/>
        <path id="cursor-4" data-name="cursor" d="M9.578,18.741,9.535,9.273" transform="translate(15.264 14.707)" fill="none" stroke="#000" stroke-linecap="round" stroke-width="1.5" fill-rule="evenodd"/>
        <path id="cursor-5" data-name="cursor" d="M7.555,9.3l.057,9.34" transform="translate(11.846 14.761)" fill="none" stroke="#000" stroke-linecap="round" stroke-width="1.5" fill-rule="evenodd"/>
      </g>
    </g>
  </g>
</svg>
