<svg xmlns="http://www.w3.org/2000/svg" width="22" height="22" viewBox="0 0 22 22"><defs><style>.a{fill:#eee;opacity:0;}.b{fill:#575757;}.c{fill:#dd141d;}</style></defs><g transform="translate(-30 -327)"><rect class="a" width="22" height="22" transform="translate(30 327)"/><g transform="translate(31.058 328.061)"><g transform="translate(2.742 4.018)"><path class="b" d="M85.893,103.658a.4.4,0,1,0-.646.459h0a9.145,9.145,0,0,1-13.406,12.241l1.589-.329a.4.4,0,0,0-.16-.776l-2.633.545-.046,2.689a.4.4,0,1,0,.793.014l.025-1.471a9.938,9.938,0,0,0,14.485-13.371Z" transform="translate(-70.59 -103.491)"/></g><g transform="translate(0.001 0)"><g transform="translate(0)"><path class="b" d="M16.77.36a.4.4,0,0,0-.4.39L16.34,2.335A9.939,9.939,0,0,0,1.686,15.478a.4.4,0,0,0,.658-.442A9.146,9.146,0,0,1,15.8,2.916l-1.477.305A.4.4,0,0,0,14.481,4l2.633-.545L17.16.763A.4.4,0,0,0,16.77.36Z" transform="translate(-0.001 0)"/></g></g><path class="c" d="M224.825,50.727a3.9,3.9,0,0,0-1.272-.562c-.06-.017-.119-.031-.179-.046V47.447a2.03,2.03,0,0,1,.953.361,1.084,1.084,0,0,1,.322.391,1.146,1.146,0,0,1,.107.5.438.438,0,1,0,.875,0,2.02,2.02,0,0,0-.192-.876,2.069,2.069,0,0,0-.987-.96,3.343,3.343,0,0,0-1.077-.295v-.385a.438.438,0,0,0-.875,0v.361a3.054,3.054,0,0,0-.854.183,2.161,2.161,0,0,0-1.083.866,2.09,2.09,0,0,0-.319,1.106,1.851,1.851,0,0,0,.259.986,1.833,1.833,0,0,0,.566.57,4.276,4.276,0,0,0,1.259.5l.173.044v2.874a1.788,1.788,0,0,1-.971-.37,1.138,1.138,0,0,1-.409-.9.438.438,0,1,0-.875,0,2.021,2.021,0,0,0,.719,1.569,2.681,2.681,0,0,0,1.537.585v.38a.438.438,0,1,0,.875,0v-.4a3.139,3.139,0,0,0,1.354-.417,1.865,1.865,0,0,0,.663-.7,2.328,2.328,0,0,0-.009-2.074A1.939,1.939,0,0,0,224.825,50.727Zm-2.326-.832a3.08,3.08,0,0,1-1.018-.42.872.872,0,0,1-.264-.3,1.024,1.024,0,0,1-.1-.473,1.207,1.207,0,0,1,.34-.836,1.358,1.358,0,0,1,.5-.317,2.156,2.156,0,0,1,.542-.121v2.472Zm2.122,3.116a.952.952,0,0,1-.245.291,1.655,1.655,0,0,1-.639.292,3.115,3.115,0,0,1-.362.065V51.025a3.7,3.7,0,0,1,.711.269,1.278,1.278,0,0,1,.49.414,1.212,1.212,0,0,1,.18.693A1.263,1.263,0,0,1,224.62,53.011Z" transform="translate(-213.032 -40.57)"/></g></g></svg>