<svg xmlns="http://www.w3.org/2000/svg" width="22" height="22" viewBox="0 0 22 22"><defs><style>.a{fill:#eee;opacity:0;}.b{fill:#575757;}.c{fill:#dd141d;}</style></defs><g transform="translate(-30 -327)"><rect class="a" width="22" height="22" transform="translate(30 327)"/><g transform="translate(30 280.455)"><g transform="translate(8.542 52.511)"><path class="b" d="M201.256,145.065a2.445,2.445,0,1,0,2.458,2.444A2.451,2.451,0,0,0,201.256,145.065Zm0,4.156a1.711,1.711,0,1,1,1.72-1.711A1.718,1.718,0,0,1,201.256,149.221Z" transform="translate(-198.798 -145.065)"/></g><g transform="translate(12.214 48.356)"><g transform="translate(0 0)"><path class="b" d="M286.223,48.356a1.956,1.956,0,1,0,1.966,1.955A1.961,1.961,0,0,0,286.223,48.356Zm0,3.178a1.222,1.222,0,1,1,1.229-1.222A1.227,1.227,0,0,1,286.223,51.534Z" transform="translate(-284.256 -48.356)"/></g></g><g transform="translate(0 56.667)"><path class="c" d="M20.347,242.819a1.633,1.633,0,0,0-.666.148,1.638,1.638,0,0,0-2.041-.454l-.7.411a1.637,1.637,0,0,0-2.006-.411l-2.512,1.529c-.61-.179-3.257-.926-3.766-1.054-.255-.064-.478-.117-.661-.154-.091-.019-.173-.034-.245-.045a1.379,1.379,0,0,0-.2-.019,1.314,1.314,0,0,0-.151.011c-.19.025-.461.083-.781.157-.653.153-1.486.374-1.947.5v-.683a.983.983,0,0,0-.983-.978H.983a.984.984,0,0,0-.983.978v7.578a.984.984,0,0,0,.983.978h2.7a.983.983,0,0,0,.983-.978v-.588c.583.126,1.879.4,3.244.683.923.188,1.878.377,2.666.519.394.071.747.13,1.036.172a5.3,5.3,0,0,0,.674.069,1.462,1.462,0,0,0,.382-.061,5.3,5.3,0,0,0,.843-.34,42.289,42.289,0,0,0,4.213-2.547c1.5-1,2.908-1.983,3.6-2.454A1.592,1.592,0,0,0,22,244.463,1.649,1.649,0,0,0,20.347,242.819ZM3.933,250.333a.249.249,0,0,1-.246.244H.983a.249.249,0,0,1-.246-.244v-7.578a.249.249,0,0,1,.246-.244h2.7a.249.249,0,0,1,.246.244v7.578Zm16.975-5.15c-.847.58-2.743,1.911-4.577,3.1-.916.592-1.818,1.147-2.557,1.55a10.374,10.374,0,0,1-.962.473,3.007,3.007,0,0,1-.338.12.78.78,0,0,1-.184.034,4.99,4.99,0,0,1-.567-.061c-.969-.141-2.782-.5-4.342-.825-.781-.162-1.5-.315-2.025-.428l-.686-.148v-4.8l.28-.076c.389-.1.982-.262,1.514-.392.265-.065.516-.123.716-.165.1-.02.186-.037.253-.047a1.072,1.072,0,0,1,.117-.014.9.9,0,0,1,.093.01c.2.03.621.127,1.129.26,1.531.4,3.946,1.116,4.921,1.411a2.2,2.2,0,0,1,.843.439.973.973,0,0,1,.227.3.831.831,0,0,1,.08.365,1.029,1.029,0,0,1-.306.734,1.042,1.042,0,0,1-.73.3l-.951-.093-3.247-.414a.367.367,0,1,0-.094.727l3.258.416,1.008.1H13.8a1.777,1.777,0,0,0,1.781-1.771,1.566,1.566,0,0,0-.152-.68,1.846,1.846,0,0,0-.647-.722,3.23,3.23,0,0,0-.875-.4l-.532-.16,1.9-1.157a.892.892,0,0,1,1.02.14l-.989.583a.366.366,0,0,0-.129.5.37.37,0,0,0,.505.128l2.295-1.353a.893.893,0,0,1,1.054.172l-2.672,1.576a.365.365,0,0,0-.129.5.37.37,0,0,0,.505.128l3.208-1.892a.91.91,0,0,1,1.32.811A.862.862,0,0,1,20.909,245.183Z" transform="translate(0 -241.777)"/></g></g></g></svg>