<svg xmlns="http://www.w3.org/2000/svg" width="58.373" height="50.229" viewBox="0 0 58.373 50.229"><defs><style>.a{fill:#e10518;}.b{fill:#575757;}</style></defs><g transform="translate(-204.955 -3473.419)"><path class="a" d="M262.909,3490.228c-2.246-3.442-7.15-12.162-9.4-15.987-.637-1-1.571-1.188-2.652,0-3.189,3.532-11.072,10.708-21.606,9.388-13.385-1.674-20.6,6.321-22.848,9.39a2.418,2.418,0,0,0-.094,2.4c.339.62,8.02,14.785,8.635,15.834s1.572,1.322,2.671.154c2.177-2.315,7.276-5.62,18.321-4.746a28.989,28.989,0,0,0,26.679-12.907,3.1,3.1,0,0,0,.291-3.532m-21.363,10.029c.051.09.487.752.794,1.229a.56.56,0,0,1-.051.718c-.106.067-.839.535-1.284.813-.122.063-.365.162-.634-.25-.125-.2-.484-.746-.721-1.111a.459.459,0,0,0-.507-.185,10.223,10.223,0,0,1-3.333,1.146.57.57,0,0,1-.537-.435c-.093-.276-.457-1.365-.63-1.883-.113-.3.195-.4.361-.42a8.424,8.424,0,0,0,3.445-1.2c1.16-.736,1.669-1.713,1.161-2.488s-1.478-.818-3.306-.365c-2.635.655-4.764.6-6.028-1.345-1.1-1.687-.834-3.733.825-5.456a.574.574,0,0,0,.08-.583l-.832-1.279a.383.383,0,0,1,.126-.531c.264-.168,1.1-.706,1.311-.831a.413.413,0,0,1,.581.15c.039.061.473.727.729,1.118.106.163.423.134.541.07a9.16,9.16,0,0,1,2.469-.923c.628-.14.613.171.722.416.064.145.3.876.479,1.439a.632.632,0,0,1-.415.791,7.354,7.354,0,0,0-2.738,1.063c-1.316.836-1.361,1.686-1,2.246.413.641,1.409.629,3.535.156,2.978-.7,4.649-.209,5.832,1.613,1.1,1.675.908,3.814-.863,5.641a.56.56,0,0,0-.115.68"/><path class="b" d="M237.409,3509.242c-13.195-1.175-18.4,4.974-20.18,8.12-.591,1.047-1.248.946-1.6.3s-8.018-14.787-8.347-15.408-.622-.35-.743-.209a9.374,9.374,0,0,0-1.492,2.175c-.16.316-.138.432.288,1.23,1.642,3,7.345,13.4,9.462,17.233.621,1.047,1.866,1.508,2.891.006,2.283-4.177,8.043-11.264,20.557-10.147,15.893,1.409,22.016-6.1,23.752-8.959.106-.17.692-.861.3-1.526s-.731-1.239-.981-1.669c-.143-.169-.416-.25-.879.276-3.6,4.206-10.735,9.672-23.027,8.58"/></g></svg>