<svg xmlns="http://www.w3.org/2000/svg" width="22" height="22" viewBox="0 0 22 22"><defs><style>.a{fill:#eee;opacity:0;}.b{fill:#dd141d;}.c{fill:#575757;}</style></defs><g transform="translate(-30 -327)"><rect class="a" width="22" height="22" transform="translate(30 327)"/><g transform="translate(-29.993 327)"><g transform="translate(62.707)"><g transform="translate(0)"><path class="b" d="M71.013,0a8.315,8.315,0,0,0-8.306,8.306c0,4.313,6.871,12.1,7.655,12.969l.651.726.65-.725c.783-.873,7.655-8.656,7.655-12.969A8.315,8.315,0,0,0,71.013,0Zm0,20.691s-7.431-8.282-7.431-12.385a7.431,7.431,0,1,1,14.863,0C78.444,12.408,71.013,20.691,71.013,20.691Z" transform="translate(-62.707)"/></g></g><g transform="translate(68.582 3.933)"><path class="c" d="M203.493,95.845a3.425,3.425,0,0,0-1.12-.5l-.113-.029v-2.2a1.646,1.646,0,0,1,.731.29.878.878,0,0,1,.261.317.923.923,0,0,1,.087.406.437.437,0,0,0,.875,0,1.812,1.812,0,0,0-.173-.783,1.849,1.849,0,0,0-.881-.858,2.923,2.923,0,0,0-.9-.253v-.283a.437.437,0,0,0-.874,0v.26a2.672,2.672,0,0,0-.7.156,1.926,1.926,0,0,0-.966.773,1.868,1.868,0,0,0-.285.988,1.66,1.66,0,0,0,.233.884,1.642,1.642,0,0,0,.507.512,3.755,3.755,0,0,0,1.107.442l.106.027v2.38a1.444,1.444,0,0,1-.745-.3.928.928,0,0,1-.334-.736.437.437,0,1,0-.874,0h0a1.808,1.808,0,0,0,.643,1.4,2.36,2.36,0,0,0,1.31.515v.277a.437.437,0,0,0,.874,0v-.291a2.731,2.731,0,0,0,1.144-.364,1.674,1.674,0,0,0,.594-.625,2.074,2.074,0,0,0-.008-1.851A1.737,1.737,0,0,0,203.493,95.845Zm-2.106-.751a2.48,2.48,0,0,1-.787-.333.7.7,0,0,1-.212-.243.828.828,0,0,1-.079-.383.986.986,0,0,1,.277-.683,1.124,1.124,0,0,1,.41-.261,1.742,1.742,0,0,1,.391-.093Zm1.844,2.747a.759.759,0,0,1-.2.235,1.372,1.372,0,0,1-.53.242c-.075.019-.157.033-.241.046V96.228a2.882,2.882,0,0,1,.53.207,1.051,1.051,0,0,1,.4.339.99.99,0,0,1,.146.568A1.025,1.025,0,0,1,203.231,97.841Z" transform="translate(-199.434 -91.52)"/></g></g></g></svg>