<svg xmlns="http://www.w3.org/2000/svg" width="43.448" height="31.508" viewBox="0 0 43.448 31.508"><defs><style>.a{fill:#575757;}</style></defs><g transform="translate(-3455.088 3055.457)"><path class="a" d="M18.156,22.782H0c.269-.331.533-.679.782-1.035H18.156A1.149,1.149,0,0,0,19.3,20.6V2.183a1.149,1.149,0,0,0-1.148-1.148H4.251A3.762,3.762,0,0,0,3.652,0h14.5a2.186,2.186,0,0,1,2.184,2.183V20.6A2.186,2.186,0,0,1,18.156,22.782Zm-.405-3.625h-5.7V15.015h5.7v4.142Zm-4.66-3.107v2.071h3.625V16.051Zm-2.071,3.107h-5.7V15.015h5.7v4.142Zm-4.66-3.107v2.071H9.983V16.051ZM4.288,19.158h-2c.159-.335.312-.684.453-1.035h.51V16.7c.174-.541.332-1.109.469-1.687h.566v4.142Zm9.838-8.8a3.621,3.621,0,0,1-1.812-.49,3.624,3.624,0,1,1,0-6.268,3.623,3.623,0,1,1,1.812,6.758Zm0-6.213a2.564,2.564,0,0,0-.925.178,3.6,3.6,0,0,1,0,4.821,2.586,2.586,0,1,0,.925-5Zm-3.624,0a2.589,2.589,0,1,0,.925,5,3.6,3.6,0,0,1,0-4.821A2.564,2.564,0,0,0,10.5,4.142Zm1.812.745a2.579,2.579,0,0,0,0,3.688,2.577,2.577,0,0,0,0-3.688Z" transform="translate(3478.197 -3051.078)"/><g transform="translate(3455.088 -3055.457)"><path class="a" d="M26.8,8.548V8.523c-.014-.3-.023-.623-.028-.979a3.339,3.339,0,0,0-3.144-3.271A12.958,12.958,0,0,1,14.806.556l-.02-.019a2.016,2.016,0,0,0-2.74,0l-.02.019a12.959,12.959,0,0,1-8.82,3.718A3.339,3.339,0,0,0,.061,7.545c-.005.354-.015.674-.028.979V8.58c-.07,3.694-.158,8.291,1.38,12.464a15.866,15.866,0,0,0,3.807,5.929,19.913,19.913,0,0,0,7.449,4.406,2.3,2.3,0,0,0,.305.083,2.255,2.255,0,0,0,.887,0,2.306,2.306,0,0,0,.306-.084,19.925,19.925,0,0,0,7.441-4.408,15.89,15.89,0,0,0,3.806-5.931C26.957,16.855,26.87,12.249,26.8,8.548ZM23.679,20.4c-1.622,4.4-4.933,7.419-10.123,9.233a.475.475,0,0,1-.059.016.415.415,0,0,1-.162,0,.467.467,0,0,1-.058-.016c-5.2-1.812-8.509-4.83-10.13-9.229C1.729,16.559,1.809,12.339,1.88,8.616V8.6c.014-.32.024-.655.029-1.023a1.484,1.484,0,0,1,1.4-1.453A16.222,16.222,0,0,0,8.815,4.908,14.4,14.4,0,0,0,13.3,1.894a.171.171,0,0,1,.229,0,14.41,14.41,0,0,0,4.487,3.014,16.222,16.222,0,0,0,5.506,1.211,1.484,1.484,0,0,1,1.4,1.453c.006.37.015.705.03,1.023C25.022,12.322,25.1,16.546,23.679,20.4Zm0,0" transform="translate(0 0.001)"/><g transform="translate(5.566 7.957)"><path class="a" d="M98.305,128.41a7.907,7.907,0,1,0,7.907,7.907A7.916,7.916,0,0,0,98.305,128.41Zm0,13.952a6.045,6.045,0,1,1,6.045-6.045A6.052,6.052,0,0,1,98.305,142.363Zm0,0" transform="translate(-90.398 -128.41)"/><path class="a" d="M159.931,212.264l-3.673,3.673-1-1a.931.931,0,0,0-1.317,1.316l1.655,1.655a.931.931,0,0,0,1.316,0l4.331-4.331a.931.931,0,0,0-1.317-1.316Zm0,0" transform="translate(-149.752 -206.812)"/></g></g></g></svg>