<svg xmlns="http://www.w3.org/2000/svg" width="22" height="22" viewBox="0 0 22 22"><defs><style>.a{fill:#eee;opacity:0;}.b{fill:#dd141d;}.c{fill:#575757;}</style></defs><rect class="a" width="22" height="22"/><g transform="translate(2.184)"><g transform="translate(0)"><path class="b" d="M63.948,0H48.317a1.161,1.161,0,0,0-1.158,1.158V20.842A1.161,1.161,0,0,0,48.317,22h10.71a3.377,3.377,0,0,0,2-.793l3.235-3.045a3.076,3.076,0,0,0,.843-1.951V1.158A1.161,1.161,0,0,0,63.948,0Zm-.281,17.53-3.235,3.044a2.012,2.012,0,0,1-.537.332V17.8a.726.726,0,0,1,.723-.724h3.364A1.7,1.7,0,0,1,63.667,17.53Zm.57-1.319H60.619A1.6,1.6,0,0,0,59.027,17.8v3.329H48.317a.293.293,0,0,1-.289-.289V1.158a.293.293,0,0,1,.289-.289H63.948a.293.293,0,0,1,.289.289Z" transform="translate(-47.159)"/></g><g transform="translate(6.657 4.924)"><path class="c" d="M208.888,114.606h-6.369a.434.434,0,1,0,0,.868h6.369a.434.434,0,0,0,0-.868Z" transform="translate(-202.085 -114.606)"/></g><g transform="translate(6.657 11.263)"><path class="c" d="M208.888,215.579h-6.369a.434.434,0,1,0,0,.868h6.369a.434.434,0,0,0,0-.868Z" transform="translate(-202.085 -215.579)"/></g><path class="c" d="M201.63,93.86a1.853,1.853,0,0,0-.606-.268l-.061-.016v-1.19a.89.89,0,0,1,.4.157.475.475,0,0,1,.141.172.5.5,0,0,1,.047.22.237.237,0,0,0,.473,0,.98.98,0,0,0-.093-.424,1,1,0,0,0-.477-.464,1.582,1.582,0,0,0-.486-.137v-.153a.237.237,0,0,0-.473,0v.14a1.446,1.446,0,0,0-.38.085,1.042,1.042,0,0,0-.522.418,1.011,1.011,0,0,0-.154.535.9.9,0,0,0,.126.478.889.889,0,0,0,.274.277,2.032,2.032,0,0,0,.6.239l.057.015v1.288a.781.781,0,0,1-.4-.163.5.5,0,0,1-.181-.4.236.236,0,1,0-.473,0h0a.978.978,0,0,0,.348.759,1.277,1.277,0,0,0,.709.278v.15a.237.237,0,0,0,.473,0V95.7a1.477,1.477,0,0,0,.619-.2.906.906,0,0,0,.321-.338,1.122,1.122,0,0,0,0-1A.939.939,0,0,0,201.63,93.86Zm-1.14-.406a1.342,1.342,0,0,1-.426-.18.379.379,0,0,1-.115-.132.448.448,0,0,1-.043-.207.534.534,0,0,1,.15-.37.608.608,0,0,1,.222-.141.943.943,0,0,1,.212-.05Zm1,1.486a.41.41,0,0,1-.107.127.742.742,0,0,1-.287.131c-.041.01-.085.018-.13.025V94.067a1.558,1.558,0,0,1,.287.112.568.568,0,0,1,.218.184.536.536,0,0,1,.079.307A.554.554,0,0,1,201.488,94.94Z" transform="translate(-196.53 -82.234)"/><path class="c" d="M201.63,93.86a1.853,1.853,0,0,0-.606-.268l-.061-.016v-1.19a.89.89,0,0,1,.4.157.475.475,0,0,1,.141.172.5.5,0,0,1,.047.22.237.237,0,0,0,.473,0,.98.98,0,0,0-.093-.424,1,1,0,0,0-.477-.464,1.582,1.582,0,0,0-.486-.137v-.153a.237.237,0,0,0-.473,0v.14a1.446,1.446,0,0,0-.38.085,1.042,1.042,0,0,0-.522.418,1.011,1.011,0,0,0-.154.535.9.9,0,0,0,.126.478.889.889,0,0,0,.274.277,2.032,2.032,0,0,0,.6.239l.057.015v1.288a.781.781,0,0,1-.4-.163.5.5,0,0,1-.181-.4.236.236,0,1,0-.473,0h0a.978.978,0,0,0,.348.759,1.277,1.277,0,0,0,.709.278v.15a.237.237,0,0,0,.473,0V95.7a1.477,1.477,0,0,0,.619-.2.906.906,0,0,0,.321-.338,1.122,1.122,0,0,0,0-1A.939.939,0,0,0,201.63,93.86Zm-1.14-.406a1.342,1.342,0,0,1-.426-.18.379.379,0,0,1-.115-.132.448.448,0,0,1-.043-.207.534.534,0,0,1,.15-.37.608.608,0,0,1,.222-.141.943.943,0,0,1,.212-.05Zm1,1.486a.41.41,0,0,1-.107.127.742.742,0,0,1-.287.131c-.041.01-.085.018-.13.025V94.067a1.558,1.558,0,0,1,.287.112.568.568,0,0,1,.218.184.536.536,0,0,1,.079.307A.554.554,0,0,1,201.488,94.94Z" transform="translate(-196.53 -88.234)"/></g></svg>