<svg xmlns="http://www.w3.org/2000/svg" width="22" height="22" viewBox="0 0 22 22"><defs><style>.a{fill:#eee;opacity:0;}.b{fill:#dd141d;}.c{fill:#575757;}</style></defs><rect class="a" width="22" height="22"/><g transform="translate(0)"><path class="b" d="M28.1,0H7.913a.563.563,0,0,0,0,1.127H9.129v20.3a.565.565,0,0,0,.3.5A.556.556,0,0,0,10,21.892l2.445-1.629L14.9,21.9a.56.56,0,0,0,.624,0l2.445-1.629L20.427,21.9a.56.56,0,0,0,.624,0L23.5,20.273l2.455,1.633a.571.571,0,0,0,.31.094.608.608,0,0,0,.268-.066.565.565,0,0,0,.3-.5l-.009-20.3H28.1A.565.565,0,0,0,28.66.577.577.577,0,0,0,28.1,0ZM25.7,20.371l-1.892-1.258a.56.56,0,0,0-.624,0l-2.445,1.633-2.455-1.633a.56.56,0,0,0-.624,0l-2.445,1.629-2.455-1.629a.56.56,0,0,0-.624,0l-1.882,1.253V1.122H25.7Z" transform="translate(-7.35)"/><path class="c" d="M113.013,168.727h5.9a.563.563,0,1,0,0-1.127h-5.9a.563.563,0,1,0,0,1.127Z" transform="translate(-107.517 -159.733)"/><path class="c" d="M113.013,210.427h4.422a.563.563,0,1,0,0-1.127h-4.422a.563.563,0,1,0,0,1.127Z" transform="translate(-107.517 -199.476)"/><path class="c" d="M301.513,168.727h1.474a.563.563,0,1,0,0-1.127h-1.474a.563.563,0,0,0,0,1.127Z" transform="translate(-287.169 -159.733)"/><path class="c" d="M301.513,210.427h1.474a.563.563,0,1,0,0-1.127h-1.474a.563.563,0,0,0,0,1.127Z" transform="translate(-287.169 -199.476)"/><path class="c" d="M113.013,72.427h5.9a.563.563,0,1,0,0-1.127h-5.9a.563.563,0,0,0,0,1.127Z" transform="translate(-107.517 -67.953)"/><path class="c" d="M113.013,114.027h4.422a.563.563,0,0,0,0-1.127h-4.422a.563.563,0,0,0,0,1.127Z" transform="translate(-107.517 -107.601)"/><path class="c" d="M301.513,72.427h1.474a.563.563,0,1,0,0-1.127h-1.474a.563.563,0,0,0,0,1.127Z" transform="translate(-287.169 -67.953)"/><path class="c" d="M301.513,114.027h1.474a.563.563,0,1,0,0-1.127h-1.474a.563.563,0,0,0,0,1.127Z" transform="translate(-287.169 -107.601)"/><path class="c" d="M113.013,266.227h5.9a.563.563,0,1,0,0-1.127h-5.9a.563.563,0,1,0,0,1.127Z" transform="translate(-107.517 -252.657)"/><path class="c" d="M113.013,307.827h4.422a.563.563,0,0,0,0-1.127h-4.422a.563.563,0,1,0,0,1.127Z" transform="translate(-107.517 -292.304)"/><path class="c" d="M301.513,266.227h1.474a.563.563,0,1,0,0-1.127h-1.474a.563.563,0,0,0,0,1.127Z" transform="translate(-287.169 -252.657)"/><path class="c" d="M301.513,307.827h1.474a.563.563,0,1,0,0-1.127h-1.474a.563.563,0,0,0,0,1.127Z" transform="translate(-287.169 -292.304)"/></g></svg>