<svg xmlns="http://www.w3.org/2000/svg" width="22.002" height="22" viewBox="0 0 22.002 22"><defs><style>.a{fill:#eee;opacity:0;}.b{fill:#dd141d;}.c{fill:#575757;}</style></defs><g transform="translate(-29.998 -327)"><rect class="a" width="22" height="22" transform="translate(30 327)"/><g transform="translate(29.997 327)"><g transform="translate(3.034 4.447)"><path class="b" d="M87.527,103.676a.439.439,0,1,0-.715.508h0a10.122,10.122,0,0,1-14.837,13.548l1.759-.364a.439.439,0,0,0-.178-.859l-2.914.6-.051,2.976a.439.439,0,1,0,.877.015l.028-1.628a11,11,0,0,0,16.031-14.8Z" transform="translate(-70.59 -103.491)"/></g><g transform="translate(0.001 0)"><g transform="translate(0)"><path class="b" d="M18.56.4a.438.438,0,0,0-.446.431l-.03,1.755A11,11,0,0,0,1.866,17.13a.439.439,0,0,0,.728-.49A10.122,10.122,0,0,1,17.483,3.227l-1.634.338a.439.439,0,0,0,.178.859l2.914-.6L18.992.845A.439.439,0,0,0,18.56.4Z" transform="translate(-0.001 0)"/></g></g><path class="c" d="M225.314,51.259a4.313,4.313,0,0,0-1.407-.622c-.066-.019-.132-.034-.2-.051V47.629a2.246,2.246,0,0,1,1.054.4,1.2,1.2,0,0,1,.356.432,1.269,1.269,0,0,1,.118.552.484.484,0,1,0,.969,0,2.236,2.236,0,0,0-.212-.969,2.29,2.29,0,0,0-1.092-1.063,3.7,3.7,0,0,0-1.192-.326v-.426a.484.484,0,0,0-.969,0v.4a3.38,3.38,0,0,0-.945.2,2.392,2.392,0,0,0-1.2.959,2.313,2.313,0,0,0-.354,1.224,2.049,2.049,0,0,0,.286,1.091,2.028,2.028,0,0,0,.626.631,4.732,4.732,0,0,0,1.393.556l.191.048V54.52a1.979,1.979,0,0,1-1.075-.409,1.26,1.26,0,0,1-.453-1,.484.484,0,1,0-.969,0,2.237,2.237,0,0,0,.8,1.737,2.968,2.968,0,0,0,1.7.648v.421a.484.484,0,1,0,.969,0v-.438a3.474,3.474,0,0,0,1.5-.462,2.064,2.064,0,0,0,.733-.771,2.577,2.577,0,0,0-.01-2.3A2.146,2.146,0,0,0,225.314,51.259Zm-2.575-.921a3.409,3.409,0,0,1-1.126-.465.965.965,0,0,1-.292-.337,1.134,1.134,0,0,1-.109-.524,1.336,1.336,0,0,1,.377-.926,1.5,1.5,0,0,1,.551-.351,2.386,2.386,0,0,1,.6-.134v2.736Zm2.348,3.449a1.054,1.054,0,0,1-.272.323,1.831,1.831,0,0,1-.707.324,3.447,3.447,0,0,1-.4.072V51.589a4.1,4.1,0,0,1,.787.3,1.414,1.414,0,0,1,.542.459,1.342,1.342,0,0,1,.2.767A1.4,1.4,0,0,1,225.087,53.787Z" transform="translate(-212.263 -40.017)"/></g></g></svg>