<svg xmlns="http://www.w3.org/2000/svg" width="23.44" height="33.076" viewBox="0 0 23.44 33.076"><defs><style>.a{fill:#e10518;fill-rule:evenodd;}.b{fill:#575757;stroke:rgba(0,0,0,0);}</style></defs><g transform="translate(1376.003 -5020.867)"><path class="a" d="M227.6,3342.857a4.159,4.159,0,1,0,4.159,4.16,4.159,4.159,0,0,0-4.159-4.16m.413,6.2v.459c0,.108-.036.175-.174.175h-.471c-.139,0-.175-.067-.175-.175v-.47a1.344,1.344,0,0,1-1.205-1.236c0-.139.036-.169.174-.169h.585c.139,0,.2.019.217.169a.413.413,0,0,0,.115.246.79.79,0,0,0,.591.2c.326,0,.59-.072.59-.41s-.537-.344-1.048-.507c-.61-.192-1.17-.433-1.17-1.2a1.22,1.22,0,0,1,1.151-1.163v-.464c0-.109.037-.175.175-.175h.471c.138,0,.174.066.174.175V3345c.585.119,1.1.47,1.1,1.09,0,.146-.036.169-.175.169h-.59c-.115,0-.133-.085-.163-.163a.416.416,0,0,0-.128-.18.8.8,0,0,0-.511-.163c-.2,0-.53.078-.53.35,0,.367.887.5,1.127.6.434.133,1.074.307,1.074,1.127a1.225,1.225,0,0,1-1.2,1.235" transform="translate(-1594.847 1686.739)"/><path class="b" d="M19.836,32.076H13.028a.627.627,0,0,1-.626-.627v-.656a11.2,11.2,0,0,1-2.039-3.132h-8.7A1.775,1.775,0,0,1,.351,27.31,1.77,1.77,0,0,1,0,26L.065,5V1.664A1.771,1.771,0,0,1,.416.351,1.774,1.774,0,0,1,1.73,0H14.324A1.887,1.887,0,0,1,15.7.386a1.7,1.7,0,0,1,.288,1.278V8.512c.879.643,2.769,3.47,4.149,5.534a21.344,21.344,0,0,0,1.412,2.009,2.593,2.593,0,0,1,.892,2.081,4.565,4.565,0,0,1-.169,1.242c-.47.442-1.335,7.775-1.809,12.106A.667.667,0,0,1,19.836,32.076ZM7.594,23.841A1.255,1.255,0,1,0,8.849,25.1,1.256,1.256,0,0,0,7.594,23.841ZM14.356,2.27,1.73,2.3a.521.521,0,0,0-.527.527L1.138,22.8c0,.184.2.223.366.223a1.114,1.114,0,0,0,.161-.012H6.613l2.534-1.149-.264-2.225c-.9-3.1-.62-4.423-.231-4.991a.857.857,0,0,1,.561-.405h.2a1.874,1.874,0,0,1,1.456.745,5.092,5.092,0,0,1,.86,1.64,11.657,11.657,0,0,1,.514,2.385c0,.005.275.568.646,1.155l2-.907V2.8A.522.522,0,0,0,14.356,2.27Z" transform="translate(-1375.503 5021.367)"/></g></svg>