<svg xmlns="http://www.w3.org/2000/svg" width="22" height="22" viewBox="0 0 22 22"><defs><style>.a{fill:#eee;opacity:0;}.b{fill:#dd141d;}.c{fill:#575757;}</style></defs><rect class="a" width="22" height="22"/><path class="b" d="M22,8.067A8.067,8.067,0,0,0,6.107,6.112,8.065,8.065,0,0,0,8.067,22a8.111,8.111,0,0,0,7.822-6.107A8.081,8.081,0,0,0,22,8.067ZM8.067,21.267A7.331,7.331,0,0,1,5.949,6.916q-.056.391-.074.793L5.76,7.75a.366.366,0,0,0,.116.709,8.01,8.01,0,0,0,.707,2.93A1.834,1.834,0,0,0,7.7,14.263v2.174A1.1,1.1,0,0,1,6.967,15.4a.367.367,0,1,0-.733,0A1.836,1.836,0,0,0,7.7,17.2v.4a.367.367,0,0,0,.733,0v-.4a1.834,1.834,0,0,0,1.429-2.168,8.011,8.011,0,0,0,3.678,1.1.367.367,0,0,0,.71.116c.014-.038.027-.076.041-.114q.4-.018.794-.074A7.377,7.377,0,0,1,8.067,21.267Zm.367-6.9a1.1,1.1,0,0,1,0,2.074ZM7.7,13.5A1.1,1.1,0,0,1,7,12.189a8.1,8.1,0,0,0,.7.992Zm7.856,1.715a.364.364,0,0,0-.095.021,7.326,7.326,0,0,1-1.39.159.361.361,0,0,0-.1,0h-.036A7.342,7.342,0,0,1,6.6,8.067c0-.013,0-.027,0-.04a.363.363,0,0,0,0-.1,7.331,7.331,0,0,1,.16-1.4.364.364,0,0,0,.019-.088,7.334,7.334,0,1,1,8.775,8.772Z"/><path class="c" d="M171.757,148.548l.038,0a.367.367,0,0,0,.364-.329,5.845,5.845,0,0,1,.114-.691.367.367,0,1,0-.715-.163,6.549,6.549,0,0,0-.129.779A.367.367,0,0,0,171.757,148.548Z" transform="translate(-164.062 -140.761)"/><path class="c" d="M197.862,262.893a.367.367,0,1,0-.6.423,6.664,6.664,0,0,0,.492.616.367.367,0,0,0,.545-.491A5.993,5.993,0,0,1,197.862,262.893Z" transform="translate(-188.723 -251.448)"/><path class="c" d="M174.151,207.646a.367.367,0,0,0-.72.14,6.51,6.51,0,0,0,.2.765.367.367,0,1,0,.7-.228A5.656,5.656,0,0,1,174.151,207.646Z" transform="translate(-165.972 -198.44)"/><path class="c" d="M345.867,37.942a5.837,5.837,0,0,1,.676.185.373.373,0,0,0,.118.02.367.367,0,0,0,.118-.714,6.56,6.56,0,0,0-.762-.209.367.367,0,0,0-.151.718Z" transform="translate(-330.727 -35.617)"/><path class="c" d="M285.671,35.591a.375.375,0,0,0,.077-.008,5.784,5.784,0,0,1,.693-.105.367.367,0,0,0-.067-.73,6.662,6.662,0,0,0-.78.118.367.367,0,0,0,.077.725Z" transform="translate(-273.045 -33.253)"/><path class="c" d="M190.2,93.687a.367.367,0,0,0,.5-.134,5.89,5.89,0,0,1,.386-.585.367.367,0,0,0-.587-.44,6.764,6.764,0,0,0-.434.658A.366.366,0,0,0,190.2,93.687Z" transform="translate(-181.847 -88.412)"/><path class="c" d="M412.668,275.938a.367.367,0,0,0-.518.029,6.033,6.033,0,0,1-.5.494.367.367,0,1,0,.485.55,6.72,6.72,0,0,0,.56-.555A.367.367,0,0,0,412.668,275.938Z" transform="translate(-393.846 -263.991)"/><path class="c" d="M441.85,107.76a.361.361,0,0,0,.145-.03.367.367,0,0,0,.192-.482,6.6,6.6,0,0,0-.356-.7.367.367,0,0,0-.634.369,5.705,5.705,0,0,1,.316.625A.367.367,0,0,0,441.85,107.76Z" transform="translate(-422.193 -101.792)"/><path class="c" d="M401.625,62.875a.367.367,0,0,0,.249-.636,6.578,6.578,0,0,0-.61-.5.367.367,0,1,0-.43.594,5.986,5.986,0,0,1,.542.445A.365.365,0,0,0,401.625,62.875Z" transform="translate(-383.465 -59.019)"/><path class="c" d="M448.314,223.581a.367.367,0,0,0-.462.236,5.847,5.847,0,0,1-.255.653.367.367,0,0,0,.666.307,6.659,6.659,0,0,0,.287-.736A.367.367,0,0,0,448.314,223.581Z" transform="translate(-428.332 -213.957)"/><path class="c" d="M460.7,163.933a.367.367,0,1,0-.729.078,6.042,6.042,0,0,1,.033.631v.068a.367.367,0,0,0,.362.372h.005a.366.366,0,0,0,.367-.362v-.079A6.728,6.728,0,0,0,460.7,163.933Z" transform="translate(-440.206 -156.576)"/><path class="c" d="M231.491,53.319a.367.367,0,1,0-.36-.639,6.7,6.7,0,0,0-.663.426.367.367,0,1,0,.432.592A5.872,5.872,0,0,1,231.491,53.319Z" transform="translate(-220.422 -50.371)"/><path class="c" d="M299.532,323.288a5.96,5.96,0,0,1-.7-.042.367.367,0,0,0-.087.729,6.72,6.72,0,0,0,.787.047h.026a.356.356,0,0,0,.354-.367A.378.378,0,0,0,299.532,323.288Z" transform="translate(-285.598 -309.355)"/><path class="c" d="M242.576,304.108a5.982,5.982,0,0,1-.622-.324.367.367,0,1,0-.377.629,6.66,6.66,0,0,0,.7.364.367.367,0,0,0,.3-.67Z" transform="translate(-231.026 -290.681)"/><path class="c" d="M359.945,311.521a5.886,5.886,0,0,1-.655.25.367.367,0,1,0,.22.7,6.55,6.55,0,0,0,.737-.28.367.367,0,0,0-.3-.669Z" transform="translate(-343.606 -298.104)"/><path class="b" d="M283.8,97.571V95.4a1.1,1.1,0,0,1,.733,1.037.367.367,0,1,0,.733,0,1.836,1.836,0,0,0-1.467-1.8v-.4a.367.367,0,0,0-.733,0v.4a1.834,1.834,0,0,0,0,3.593V100.4a1.1,1.1,0,0,1-.733-1.037.367.367,0,1,0-.733,0,1.836,1.836,0,0,0,1.467,1.8v.4a.367.367,0,1,0,.733,0v-.4a1.833,1.833,0,0,0,0-3.593Zm-1.467-1.137a1.1,1.1,0,0,1,.733-1.037v2.074A1.1,1.1,0,0,1,282.334,96.434Zm1.467,3.97V98.33a1.1,1.1,0,0,1,0,2.074Z" transform="translate(-269.501 -89.834)"/><path class="c" d="M40.71,257.1a.366.366,0,0,0,.458-.244,5.8,5.8,0,0,1,.272-.718.367.367,0,0,0-.667-.3,6.516,6.516,0,0,0-.307.808A.367.367,0,0,0,40.71,257.1Z" transform="translate(-38.712 -244.636)"/><path class="c" d="M74.867,203.554a.366.366,0,0,0-.516-.052,6.719,6.719,0,0,0-.632.59.367.367,0,0,0,.535.5,5.845,5.845,0,0,1,.562-.524A.367.367,0,0,0,74.867,203.554Z" transform="translate(-70.457 -194.679)"/><path class="c" d="M35.01,321.526a5.928,5.928,0,0,1-.074-.764.367.367,0,0,0-.733.023,6.623,6.623,0,0,0,.084.86.366.366,0,1,0,.723-.119Z" transform="translate(-32.733 -306.639)"/><path class="c" d="M51.962,384.291a.367.367,0,0,0-.646.347,6.7,6.7,0,0,0,.457.733.367.367,0,1,0,.6-.428A5.938,5.938,0,0,1,51.962,384.291Z" transform="translate(-49.069 -367.593)"/><path class="c" d="M279.679,407.533a.366.366,0,0,0-.516.052,5.778,5.778,0,0,1-.524.562.367.367,0,0,0,.5.534,6.561,6.561,0,0,0,.589-.632A.366.366,0,0,0,279.679,407.533Z" transform="translate(-266.556 -389.943)"/><path class="c" d="M222.489,447.785a5.719,5.719,0,0,1-.718.272.367.367,0,0,0,.107.718.372.372,0,0,0,.107-.016,6.593,6.593,0,0,0,.809-.307.367.367,0,1,0-.305-.667Z" transform="translate(-211.994 -428.512)"/><path class="c" d="M96.029,434.13a5.949,5.949,0,0,1-.652-.406.367.367,0,1,0-.428.6,6.609,6.609,0,0,0,.733.457.363.363,0,0,0,.173.044.367.367,0,0,0,.174-.69Z" transform="translate(-90.723 -415.021)"/><path class="c" d="M156.893,458.973a5.887,5.887,0,0,1-.765-.074.367.367,0,1,0-.118.724,6.585,6.585,0,0,0,.86.083h.012a.367.367,0,0,0,.011-.733Z" transform="translate(-149.012 -439.176)"/></svg>