<svg xmlns="http://www.w3.org/2000/svg" width="31.497" height="19.686" viewBox="0 0 31.497 19.686"><defs><style>.a{fill:#575757;fill-rule:evenodd;}.b{fill:#e10518;}</style></defs><g transform="translate(1503.484 -4880.172)"><path class="a" d="M1489.631,2987.724h-28.545a1.477,1.477,0,0,1-1.477-1.476v-2.461h2.953v-14.272a1.477,1.477,0,0,1,1.477-1.477h22.638a1.477,1.477,0,0,1,1.477,1.477v14.272h2.952v2.461a1.476,1.476,0,0,1-1.476,1.476m-17.718-1.476h6.89v-.985h-6.89Zm14.272-16.241h-21.655v12.8h21.655Z" transform="translate(-2963.093 1912.135)"/><path class="b" d="M839.07,3485.185a.692.692,0,0,0-.156-.223l-2.229-2.185a.845.845,0,0,0-.223-.152.708.708,0,0,0-.271-.053.667.667,0,0,0-.267.055.774.774,0,0,0-.219.15.667.667,0,0,0-.157.226.627.627,0,0,0-.052.254.677.677,0,0,0,.052.262.722.722,0,0,0,.157.226l1.032,1.013h-3.6a.632.632,0,0,0-.264.055.794.794,0,0,0-.222.149.694.694,0,0,0-.161.736.709.709,0,0,0,.161.226.734.734,0,0,0,.222.146.679.679,0,0,0,.264.051h3.6l-1.032,1.02a.745.745,0,0,0-.157.226.645.645,0,0,0-.052.263.62.62,0,0,0,.052.254.778.778,0,0,0,.157.226.67.67,0,0,0,.218.146.7.7,0,0,0,.268.051.719.719,0,0,0,.271-.051.712.712,0,0,0,.223-.146l2.229-2.186a.986.986,0,0,0,.156-.226.625.625,0,0,0,.052-.255.655.655,0,0,0-.052-.258m-7.788-.592-1.032-1.02h3.6a.674.674,0,0,0,.263-.051.659.659,0,0,0,.223-1.107.787.787,0,0,0-.223-.149.635.635,0,0,0-.263-.054h-3.6l1.032-1.013a.751.751,0,0,0,.156-.227.659.659,0,0,0,.052-.262.614.614,0,0,0-.052-.255.715.715,0,0,0-.156-.226.753.753,0,0,0-.219-.148.639.639,0,0,0-.267-.055.706.706,0,0,0-.272.052.857.857,0,0,0-.223.152l-2.228,2.186a.7.7,0,0,0-.157.222.651.651,0,0,0-.052.259.622.622,0,0,0,.052.255.937.937,0,0,0,.157.226l2.228,2.186a.726.726,0,0,0,.224.145.693.693,0,0,0,.757-.145.839.839,0,0,0,.156-.226.624.624,0,0,0,.051-.255.639.639,0,0,0-.051-.261.777.777,0,0,0-.156-.227" transform="translate(-2321.284 1404.461)"/></g></svg>