<?xml version="1.0" encoding="UTF-8"?>
<svg width="20px" height="20px" viewBox="0 0 20 20" version="1.1" xmlns="http://www.w3.org/2000/svg" xmlns:xlink="http://www.w3.org/1999/xlink">
    <title>015-TextfieldPruebas/Icon/Icon</title>
    <defs>
        <path d="M8.50000003,4.16666808e-08 C13.1944204,4.16666808e-08 17,3.80557967 17,8.50000004 C17,10.4865246 16.3185332,12.313884 15.1766205,13.7610573 L19.7071068,18.2928933 C20.0976311,18.6834176 20.0976311,19.3165825 19.7071068,19.7071068 C19.3165825,20.0976311 18.6834175,20.0976311 18.2928932,19.7071068 L13.7610573,15.1766205 C12.313884,16.3185332 10.4865245,17 8.50000003,17 C3.80557965,17 2.50001904e-08,13.1944204 2.50001904e-08,8.50000004 C2.50001904e-08,3.80557967 3.80557965,4.16666808e-08 8.50000003,4.16666808e-08 Z M8.50000003,2.00000004 C4.91014915,2.00000004 2.00000003,4.91014917 2.00000003,8.50000004 C2.00000003,12.0898509 4.91014915,15 8.50000003,15 C10.2704128,15 11.8755097,14.2921985 13.0477521,13.1441339 L13.0928932,13.0928933 C13.1090202,13.0767663 13.1255609,13.0613054 13.1424812,13.0465104 C14.2921985,11.8755097 15,10.2704128 15,8.50000004 C15,4.91014917 12.0898509,2.00000004 8.50000003,2.00000004 Z" id="path-1"></path>
    </defs>
    <g id="Page-1" stroke="none" stroke-width="1" fill="none" fill-rule="evenodd">
        <g id="A004-SolicitarProducto-005" transform="translate(-274.000000, -122.000000)">
            <g id="Buscador" transform="translate(8.000000, 112.000000)">
                <g id="015-TextfieldPruebas/Icon/Icon" transform="translate(266.000000, 10.000000)">
                    <g id="Mask" transform="translate(0.000000, -0.000000)">
                        <mask id="mask-2" fill="white">
                            <use xlink:href="#path-1"></use>
                        </mask>
                        <use id="Combined-Shape" fill="#6E6E6E" fill-rule="nonzero" xlink:href="#path-1"></use>
                    </g>
                </g>
            </g>
        </g>
    </g>
</svg>