<svg xmlns="http://www.w3.org/2000/svg" viewBox="0 0 111 111"><defs><style>.a{fill:#707070;}</style></defs><path class="a" d="M55.5,111A55.5,55.5,0,1,1,111,55.5,55.563,55.563,0,0,1,55.5,111Zm0-107.636A52.136,52.136,0,1,0,107.636,55.5,52.194,52.194,0,0,0,55.5,3.364Z" transform="translate(0 0)"/><path class="a" d="M39.567,99.217A55.1,55.1,0,0,1,7.448,88.925a1.681,1.681,0,0,1,.39-2.947c13.946-5.163,16.2-9.354,16.2-17.387A5.827,5.827,0,0,0,22.7,64.508c-1.14-1.662-2.7-3.939-3.8-9.886-.161-.854-.3-.922-1.063-1.292-2.038-.982-3.912-2.395-4.4-8.84,0-3.121,1.076-4.847,1.968-5.745-.2-1.11-.515-3.024-.814-5.109-1.524-9.341-1.591-20.781,11.547-26.1,11.45-4.642,20.589-2.106,23.458.918,2.032.064,7.272.6,10.918,4.837,5.611,6.525,3.824,21.4,3.212,25.436A7.545,7.545,0,0,1,65.7,44.363c-.491,6.573-2.365,7.989-4.406,8.967-.767.37-.9.434-1.063,1.292-1.1,5.947-2.654,8.224-3.794,9.886A5.805,5.805,0,0,0,55.1,68.591c0,8.032,2.25,12.223,16.2,17.387a1.681,1.681,0,0,1,.39,2.947A55.1,55.1,0,0,1,39.567,99.217ZM12.043,87.953a51.893,51.893,0,0,0,55.049,0c-11.685-4.8-15.355-9.633-15.355-19.358a9.024,9.024,0,0,1,1.927-5.984c1.023-1.493,2.294-3.35,3.266-8.6a4.574,4.574,0,0,1,2.91-3.71c1.046-.5,2.122-1.019,2.5-6.065,0-2.57-1.157-3.269-1.2-3.3a1.792,1.792,0,0,1-.888-1.806c.834-4.47,2.207-18.413-2.291-23.65-3.071-3.572-7.911-3.67-8.833-3.633a2.8,2.8,0,0,1-.451-.054,2.685,2.685,0,0,1-1.4-.881c-.915-1.567-8.883-4.719-19.879-.269-10.868,4.4-10.891,13.831-9.482,22.476.464,3.219.972,6,.975,6.014a1.682,1.682,0,0,1-.952,1.83h0c.01,0-1.14.7-1.14,3.391.377,4.914,1.456,5.436,2.5,5.937a4.576,4.576,0,0,1,2.913,3.71c.969,5.247,2.24,7.1,3.263,8.6A9,9,0,0,1,27.4,68.588C27.4,78.322,23.731,83.159,12.043,87.953Z" transform="translate(15.933 11.783)"/></svg>