<svg xmlns="http://www.w3.org/2000/svg" viewBox="0 0 13 13.033"><defs><style>.a{fill:#939393;fill-rule:evenodd;}</style></defs><path class="a" d="M12.449,13.033H.621A.586.586,0,0,1,0,12.449V2.227a.615.615,0,0,1,.621-.621h1.2v.621A1.426,1.426,0,0,0,3.249,3.651,1.4,1.4,0,0,0,4.673,2.227V1.643H8.324v.621a1.424,1.424,0,1,0,2.848,0V1.643h1.2A.615.615,0,0,1,13,2.263V12.449a.527.527,0,0,1-.548.584m-.621-8.141H1.241v6.936H11.828ZM9.784,2.848a.615.615,0,0,1-.621-.621V.621a.621.621,0,0,1,1.241,0V2.263a.608.608,0,0,1-.621.584m-6.535,0a.586.586,0,0,1-.584-.621V.621A.586.586,0,0,1,3.249,0,.615.615,0,0,1,3.87.621V2.263a.586.586,0,0,1-.621.584"/></svg>