<?xml version="1.0" encoding="UTF-8"?>
<svg width="20px" height="21px" viewBox="0 0 20 21" version="1.1" xmlns="http://www.w3.org/2000/svg" xmlns:xlink="http://www.w3.org/1999/xlink">
    <title>04-iconos/01-24x24_/General icons/Fotos tomadas Copy</title>
    <g id="HU-359:-Productos-solicitados-en-nuestros-aliados-(android)" stroke="none" stroke-width="1" fill="none" fill-rule="evenodd">
        <g id="0012C----prodc-nuestro-aliados----Zona-P---0011" transform="translate(-58.000000, -377.000000)">
            <g id="11--Modal/Pop-up/Pequeño/05-Two-texts/One-button/01-Symbol" transform="translate(40.000000, 124.000000)">
                <g id="Shape-Mask" transform="translate(18.000000, 253.000000)">
                    <g id="Mask" transform="translate(-0.000000, -0.000000)">
                        <g id="Capa_5" transform="translate(-0.000000, -0.000000)">
                            <path d="M18,13.7700001 C18.5522848,13.7700001 19,14.2177153 19,14.7700001 L19,18.7700001 C19,19.3222848 18.5522848,19.7700001 18,19.7700001 L2,19.7700001 C1.44771526,19.7700001 1,19.3222848 1,18.7700001 L1,14.7700001 C1,14.2177153 1.44771526,13.7700001 2,13.7700001 L18,13.7700001 M18,12.7700001 L2,12.7700001 C0.895430504,12.7700001 0,13.6654306 0,14.7700001 L0,18.7700001 C0,19.8745696 0.895430504,20.7700001 2,20.7700001 L18,20.7700001 C19.1045696,20.7700001 20,19.8745696 20,18.7700001 L20,14.7700001 C20,13.6654306 19.1045696,12.7700001 18,12.7700001 Z" id="Shape" fill="#6E6E6E" fill-rule="nonzero"></path>
                            <path d="M13,5.77000002 C13.0328501,5.85970815 13.0497713,5.95446668 13.0500001,6.05000003 L13.0500001,10.5 C13.0498651,10.5922894 13.032922,10.6837824 13,10.77 L7.05000003,10.77 C7.01707809,10.6837824 7.00013494,10.5922894 7.00000003,10.5 L7.00000003,6.05000003 C7.00022883,5.95446668 7.01714999,5.85970815 7.05000003,5.77000002 L13,5.77000002 M13.1600001,4.77000002 L6.89000003,4.77000002 C6.40000003,4.77000002 6.00000003,5.34000002 6.00000003,6.05000003 L6.00000003,10.5 C6.00000003,11.2 6.40000003,11.77 6.89000003,11.77 L13.1100001,11.77 C13.6000001,11.77 14,11.2 14,10.5 L14,6.05000003 C14,5.34000002 13.6000001,4.77000002 13.1100001,4.77000002 L13.1600001,4.77000002 Z" id="Shape" fill="#6E6E6E" fill-rule="nonzero"></path>
                            <circle id="Oval" fill="#6E6E6E" fill-rule="nonzero" cx="10" cy="7.77000003" r="1"></circle>
                            <path d="M10,9.80000004 C9.72385767,9.80000004 9.50000004,9.57614241 9.50000004,9.30000004 L9.50000004,7.77000003 C9.50000004,7.49385766 9.72385767,7.27000003 10,7.27000003 C10.2761424,7.27000003 10.5,7.49385766 10.5,7.77000003 L10.5,9.30000004 C10.5,9.57614241 10.2761424,9.80000004 10,9.80000004 Z" id="Path" fill="#6E6E6E" fill-rule="nonzero"></path>
                            <path d="M8.00000003,5.73 L8.00000003,5.73 C7.86564085,5.7300269 7.73692463,5.67597798 7.6428636,5.58003574 C7.54880258,5.48409349 7.49731284,5.35433233 7.50000003,5.22000002 L7.50000003,3.22000001 C7.52676537,1.85217238 8.63207612,0.751282875 10,0.730000003 L10,0.730000003 C11.3794092,0.75168423 12.4893076,1.87046185 12.5000001,3.25000001 L12.5000001,5.25000002 C12.5000001,5.5261424 12.2761424,5.75000002 12.0000001,5.75000002 C11.7238577,5.75000002 11.5,5.5261424 11.5,5.25000002 L11.5,3.25000001 C11.4947374,2.42047484 10.8293828,1.74624884 10,1.73 L10,1.73 C9.16443778,1.74097663 8.49443035,2.42438422 8.50000004,3.26000001 L8.50000004,5.26000002 C8.48411012,5.52436196 8.26483866,5.73047714 8.00000003,5.73 Z" id="Path" fill="#6E6E6E" fill-rule="nonzero"></path>
                            <circle id="Oval" fill="#6E6E6E" fill-rule="nonzero" cx="4.00000002" cy="16.7700001" r="1.50000001"></circle>
                            <circle id="Oval" fill="#6E6E6E" fill-rule="nonzero" cx="8.00000003" cy="16.7700001" r="1.50000001"></circle>
                            <circle id="Oval" fill="#6E6E6E" fill-rule="nonzero" cx="12.0000001" cy="16.7700001" r="1.50000001"></circle>
                            <circle id="Oval" fill="#6E6E6E" fill-rule="nonzero" cx="16.0000001" cy="16.7700001" r="1.50000001"></circle>
                            <rect id="Rectangle" fill="#6E6E6E" x="6.00000004" y="5.00000005" width="8" height="6" rx="1"></rect>
                        </g>
                    </g>
                    <rect id="Rectangle" fill-rule="nonzero" x="-2" y="-1" width="24" height="24"></rect>
                </g>
            </g>
        </g>
    </g>
</svg>