<svg xmlns="http://www.w3.org/2000/svg" width="35.688" height="35.27" viewBox="0 0 35.688 35.27"><defs><style>.a{fill:#dd141d;}.b{fill:#575757;}</style></defs><g transform="translate(20.908 17.649)"><path class="a" d="M302.882,261.231a1.341,1.341,0,1,1,1.533-1.327.7.7,0,0,0,1.394,0,2.773,2.773,0,0,0-2.231-2.643V256.9a.7.7,0,1,0-1.394,0v.363a2.773,2.773,0,0,0-2.231,2.643,2.833,2.833,0,0,0,2.928,2.721,1.341,1.341,0,1,1-1.534,1.327.7.7,0,0,0-1.394,0,2.773,2.773,0,0,0,2.231,2.643v.3a.7.7,0,0,0,1.394,0v-.3a2.773,2.773,0,0,0,2.231-2.643A2.833,2.833,0,0,0,302.882,261.231Z" transform="translate(-299.954 -256.201)"/></g><g transform="translate(26.761 15.18)"><path class="b" d="M388.633,224.137a9.082,9.082,0,0,0-3.71-3.283.7.7,0,0,0-.6,1.256,7.674,7.674,0,0,1,3.456,10.511.7.7,0,1,0,1.231.655,9.072,9.072,0,0,0-.373-9.139Z" transform="translate(-383.924 -220.785)"/></g><g transform="translate(24.187 14.359)"><path class="b" d="M347.744,209H347.7a.7.7,0,0,0,0,1.394h.044a.7.7,0,0,0,0-1.394Z" transform="translate(-347 -209.001)"/></g><g transform="translate(14.777 18.8)"><path class="b" d="M217.746,284.247a7.674,7.674,0,0,1-3.456-10.511.7.7,0,1,0-1.231-.655,9.065,9.065,0,0,0,4.083,12.422.7.7,0,1,0,.6-1.257Z" transform="translate(-212.002 -272.711)"/></g><g transform="translate(22.053 31.088)"><path class="b" d="M317.118,449h-.04a.7.7,0,0,0-.006,1.394h.047a.7.7,0,0,0,0-1.394Z" transform="translate(-316.378 -448.999)"/></g><g transform="translate(0 0)"><path class="b" d="M27,15a3.2,3.2,0,0,0-.31-.569h1.815a3.206,3.206,0,1,0,0-6.413H22.927A3.2,3.2,0,0,0,20.284,3H3.206a3.206,3.206,0,1,0,0,6.413H8.788a3.2,3.2,0,0,0,0,3.625H6.97a3.2,3.2,0,0,0-1.992,5.716,3.2,3.2,0,0,0,0,5.019,3.2,3.2,0,0,0,0,5.019A3.2,3.2,0,0,0,6.97,34.506h8.215A11.847,11.847,0,1,0,27,15Zm1.5-5.588a1.812,1.812,0,0,1,0,3.625H11.431a1.812,1.812,0,1,1,0-3.625ZM3.206,8.019a1.812,1.812,0,1,1,0-3.625H20.284a1.812,1.812,0,1,1,0,3.625ZM6.97,14.431H24.048a1.811,1.811,0,0,1,.791.182c-.33-.028-.663-.043-1-.043a11.813,11.813,0,0,0-8.385,3.485H6.97a1.812,1.812,0,1,1,0-3.625Zm0,5.019h7.292a11.816,11.816,0,0,0-1.792,3.625H6.97a1.812,1.812,0,1,1,0-3.625Zm0,5.019h5.18a11.859,11.859,0,0,0-.043,3.625H6.97a1.812,1.812,0,1,1,0-3.625Zm0,8.643a1.812,1.812,0,1,1,0-3.625h5.422a11.8,11.8,0,0,0,1.672,3.625Zm16.868,3.764A10.456,10.456,0,1,1,34.294,26.421,10.467,10.467,0,0,1,23.839,36.876Z" transform="translate(0 -3)"/></g></svg>