<svg xmlns="http://www.w3.org/2000/svg" width="32.012" height="23.476" viewBox="0 0 32.012 23.476">
  <g id="carnet-de-identidad" transform="translate(0 -8)">
    <path id="Trazado_4293" data-name="Trazado 4293" d="M29.762,8H2.25A2.253,2.253,0,0,0,0,10.25V29.226a2.253,2.253,0,0,0,2.25,2.25H29.762a2.253,2.253,0,0,0,2.25-2.25V10.25A2.253,2.253,0,0,0,29.762,8Zm1.183,21.226a1.184,1.184,0,0,1-1.183,1.183H2.25a1.184,1.184,0,0,1-1.183-1.183V10.25A1.184,1.184,0,0,1,2.25,9.067H29.762a1.184,1.184,0,0,1,1.183,1.183Z" transform="translate(0 0)" fill="#575757"/>
    <path id="Trazado_4294" data-name="Trazado 4294" d="M14.132,26.988l-1.885-1.009v-.21A3.894,3.894,0,0,0,14.013,23.4a1.627,1.627,0,0,0,.822-1.431v-.543a1.647,1.647,0,0,0-.6-1.275c-.323-2.051-1.689-3.091-4.063-3.091q-.168,0-.329.013a2.543,2.543,0,0,1-1.669-.4,2.156,2.156,0,0,1-.474-.43.621.621,0,0,0-.954-.034.67.67,0,0,0-.152.508c.022.2.054.439.1.7.1.529.1.529-.04.845-.053.12-.118.266-.195.463A6.294,6.294,0,0,0,6.1,20.16a1.651,1.651,0,0,0-.586,1.268v.543A1.627,1.627,0,0,0,6.34,23.4a3.891,3.891,0,0,0,1.766,2.368v.2L6.155,26.981A2.34,2.34,0,0,0,5,29.02v.719c0,.436,0,1.455,5.176,1.455s5.176-1.02,5.176-1.455v-.676A2.322,2.322,0,0,0,14.132,26.988Z" transform="translate(-2.412 -3.86)" fill="#dd141d"/>
    <path id="Trazado_4295" data-name="Trazado 4295" d="M29.518,22.035h5.176a.518.518,0,1,0,0-1.035H29.518a.518.518,0,0,0,0,1.035Z" transform="translate(-13.412 -6.054)" fill="#575757"/>
    <path id="Trazado_4296" data-name="Trazado 4296" d="M43.518,22.035h.518a.518.518,0,1,0,0-1.035h-.518a.518.518,0,0,0,0,1.035Z" transform="translate(-20.022 -6.054)" fill="#575757"/>
    <path id="Trazado_4297" data-name="Trazado 4297" d="M30.035,38h-.518a.518.518,0,0,0,0,1.035h.518a.518.518,0,0,0,0-1.035Z" transform="translate(-13.503 -13.971)" fill="#575757"/>
    <path id="Trazado_4298" data-name="Trazado 4298" d="M35.553,38H34.518a.518.518,0,1,0,0,1.035h1.035a.518.518,0,1,0,0-1.035Z" transform="translate(-15.821 -13.971)" fill="#575757"/>
    <path id="Trazado_4299" data-name="Trazado 4299" d="M41.035,38h-.518a.518.518,0,0,0,0,1.035h.518a.518.518,0,1,0,0-1.035Z" transform="translate(-18.625 -13.971)" fill="#575757"/>
    <path id="Trazado_4300" data-name="Trazado 4300" d="M46.553,38H45.518a.518.518,0,1,0,0,1.035h1.035a.518.518,0,1,0,0-1.035Z" transform="translate(-20.94 -13.971)" fill="#575757"/>
    <path id="Trazado_4301" data-name="Trazado 4301" d="M51.15,38.156a.518.518,0,1,0,.735,0A.541.541,0,0,0,51.15,38.156Z" transform="translate(-23.647 -13.977)" fill="#575757"/>
    <path id="Trazado_4302" data-name="Trazado 4302" d="M40.906,27H29.518a.518.518,0,0,0,0,1.035H40.906a.518.518,0,1,0,0-1.035Z" transform="translate(-13.034 -8.848)" fill="#575757"/>
    <path id="Trazado_4303" data-name="Trazado 4303" d="M40.906,33H29.518a.518.518,0,0,0,0,1.035H40.906a.518.518,0,1,0,0-1.035Z" transform="translate(-13.034 -11.643)" fill="#575757"/>
  </g>
</svg>
