<svg id="contrasena" xmlns="http://www.w3.org/2000/svg" width="32.411" height="14.007" viewBox="0 0 32.411 14.007">
  <g id="Grupo_13437" data-name="Grupo 13437">
    <g id="Grupo_13436" data-name="Grupo 13436" transform="translate(0 0)">
      <path id="Trazado_4304" data-name="Trazado 4304" d="M29.738,145.37H2.673A2.676,2.676,0,0,0,0,148.043v5.413a2.676,2.676,0,0,0,2.673,2.673h18.4a.507.507,0,1,0,0-1.015H2.673a1.66,1.66,0,0,1-1.658-1.658v-5.413a1.66,1.66,0,0,1,1.658-1.658H29.738a1.66,1.66,0,0,1,1.658,1.658v2.707a.508.508,0,0,0,1.015,0v-2.707A2.676,2.676,0,0,0,29.738,145.37Z" transform="translate(0 -145.37)" fill="#575757"/>
    </g>
  </g>
  <g id="Grupo_13439" data-name="Grupo 13439" transform="translate(22.735 2.165)">
    <g id="Grupo_13438" data-name="Grupo 13438" transform="translate(0 0)">
      <path id="Trazado_4305" data-name="Trazado 4305" d="M366.66,183.988v-1.2a3.214,3.214,0,1,0-6.428,0v1.2a1.593,1.593,0,0,0-1.083,1.507v1.624a4.3,4.3,0,1,0,8.593,0v-1.624A1.593,1.593,0,0,0,366.66,183.988Zm-5.413-1.2a2.2,2.2,0,1,1,4.4,0V183.9h-4.4Zm5.481,4.33a3.282,3.282,0,1,1-6.563,0v-1.624a.576.576,0,0,1,.575-.575h5.413a.576.576,0,0,1,.575.575v1.624Z" transform="translate(-359.149 -179.574)" fill="#575757"/>
    </g>
  </g>
  <g id="Grupo_13441" data-name="Grupo 13441" transform="translate(25.983 8.661)">
    <g id="Grupo_13440" data-name="Grupo 13440">
      <path id="Trazado_4306" data-name="Trazado 4306" d="M411.5,282.188a1.048,1.048,0,0,0-.508,1.966v.352a.507.507,0,0,0,1.015,0v-.352a1.048,1.048,0,0,0-.507-1.966Z" transform="translate(-410.455 -282.188)" fill="#575757"/>
    </g>
  </g>
  <g id="Grupo_13443" data-name="Grupo 13443" transform="translate(10.575 2.706)">
    <g id="Grupo_13442" data-name="Grupo 13442" transform="translate(0 0)">
      <path id="Trazado_4307" data-name="Trazado 4307" d="M171.564,191.44l-1.114-.643,1.114-.643a.507.507,0,0,0-.507-.879l-1.114.643v-1.286a.507.507,0,0,0-1.015,0v1.286l-1.114-.643a.507.507,0,0,0-.507.879l1.114.643-1.114.643a.507.507,0,1,0,.507.879l1.114-.643v1.286a.507.507,0,1,0,1.015,0v-1.286l1.114.643a.507.507,0,1,0,.507-.879Z" transform="translate(-167.053 -188.124)" fill="#dd141d"/>
    </g>
  </g>
  <g id="Grupo_13445" data-name="Grupo 13445" transform="translate(4.079 2.706)">
    <g id="Grupo_13444" data-name="Grupo 13444" transform="translate(0 0)">
      <path id="Trazado_4308" data-name="Trazado 4308" d="M68.95,191.44l-1.114-.643,1.114-.643a.507.507,0,0,0-.507-.879l-1.114.643v-1.286a.507.507,0,0,0-1.015,0v1.286l-1.114-.643a.507.507,0,1,0-.507.879l1.114.643-1.114.643a.507.507,0,1,0,.507.879l1.114-.643v1.286a.507.507,0,1,0,1.015,0v-1.286l1.114.643a.507.507,0,1,0,.507-.879Z" transform="translate(-64.439 -188.124)" fill="#dd141d"/>
    </g>
  </g>
  <g id="Grupo_13447" data-name="Grupo 13447" transform="translate(17.071 2.706)">
    <g id="Grupo_13446" data-name="Grupo 13446" transform="translate(0 0)">
      <path id="Trazado_4309" data-name="Trazado 4309" d="M274.178,191.44l-1.114-.643,1.114-.643a.507.507,0,1,0-.507-.879l-1.114.643v-1.286a.508.508,0,0,0-1.015,0v1.286l-1.114-.643a.507.507,0,0,0-.508.879l1.114.643-1.114.643a.507.507,0,1,0,.508.879l1.114-.643v1.286a.508.508,0,0,0,1.015,0v-1.286l1.114.643a.507.507,0,1,0,.507-.879Z" transform="translate(-269.667 -188.124)" fill="#dd141d"/>
    </g>
  </g>
</svg>
