<svg xmlns="http://www.w3.org/2000/svg" viewBox="0 0 28.995 27.561"><defs><style>.a{fill:#575757;}</style></defs><path class="a" d="M478.294,51.645h0a7.232,7.232,0,0,1-1.815.227c-5.444-.34-9-3.7-9.224-7.75a6.689,6.689,0,0,1,.491-2.722c-6.086,1.058-10.547,5.028-10.547,9.791,0,3.138,1.89,5.973,5.028,7.825.6.34.756,2.608-1.588,4.461-.454.34-.265,1.21,1.55.869a9.778,9.778,0,0,0,6.086-3.554,22.064,22.064,0,0,0,2.76.416c6.578,0,10.963-3.251,12.135-7.636a6.72,6.72,0,0,1-4.688-1.966Z" transform="translate(-457.2 -36.864)"/><path class="a" d="M502.249,41.119a5.988,5.988,0,0,0,3.289-5.1c0-3.629-4.007-6.616-9.073-6.616s-8.166,2.949-8.166,6.616c0,3.629,3.1,6.578,8.166,6.578a15,15,0,0,0,1.815-.265,6.373,6.373,0,0,0,3.932,2.306c1.21.227,1.361-.34,1.1-.567-1.55-1.248-1.437-2.722-1.059-2.949m-4.763-1.361a.746.746,0,0,1-.529.227.929.929,0,0,1-.567-.189.8.8,0,1,1,1.361-.567.66.66,0,0,1-.265.529m1.966-4.877a2.2,2.2,0,0,1-.416.567c-.151.151-.454.454-.907.832a2.286,2.286,0,0,0-.3.3.791.791,0,0,0-.151.227A.64.64,0,0,0,497.6,37a3.163,3.163,0,0,1-.076.378.6.6,0,0,1-.643.567.626.626,0,0,1-.454-.189.748.748,0,0,1-.189-.529,1.872,1.872,0,0,1,.529-1.323c.151-.151.34-.34.6-.567.227-.189.378-.34.491-.454a2.077,2.077,0,0,0,.265-.34.762.762,0,0,0,.113-.416,1.033,1.033,0,0,0-.3-.718,1.293,1.293,0,0,0-1.663,0,2.084,2.084,0,0,0-.454.869c-.113.378-.34.6-.68.6a.61.61,0,0,1-.491-.227.6.6,0,0,1-.189-.454,2.116,2.116,0,0,1,.3-1.021,2.636,2.636,0,0,1,.945-.869,2.987,2.987,0,0,1,1.437-.34,3.962,3.962,0,0,1,1.361.265,2.561,2.561,0,0,1,.907.756,1.81,1.81,0,0,1,.3,1.058,2.394,2.394,0,0,1-.265.832" transform="translate(-476.543 -29.4)"/></svg>