<svg xmlns="http://www.w3.org/2000/svg" width="37.204" height="35.713" viewBox="0 0 37.204 35.713"><defs><style>.a{fill:#575757;}.b{fill:#dd141d;}</style></defs><g transform="translate(0 0)"><path class="a" d="M37.132,29.837a14.666,14.666,0,0,0-11.4-12.861V15.13a2.471,2.471,0,0,0-.6-4.868H19.9a2.471,2.471,0,0,0-.6,4.868v1.851a14.591,14.591,0,0,0-7.156,3.936,14.749,14.749,0,0,0-1.234,1.4l-.055,0H5.68a.727.727,0,1,0,0,1.453H9.925a14.567,14.567,0,0,0-1.289,2.793H.727a.727.727,0,1,0,0,1.453h7.5a14.775,14.775,0,0,0-.361,2.793H4.651a.727.727,0,0,0,0,1.453H7.887a14.753,14.753,0,0,0,.454,2.793H3.633a.727.727,0,0,0,0,1.453H8.8a14.676,14.676,0,0,0,12.271,9.4q.72.071,1.44.071a14.714,14.714,0,0,0,8.011-2.368.727.727,0,1,0-.793-1.218,13.225,13.225,0,1,1,3.9-3.9.727.727,0,1,0,1.219.791A14.725,14.725,0,0,0,37.132,29.837Zm-18.25-17.1A1.018,1.018,0,0,1,19.9,11.715h5.232a1.017,1.017,0,1,1,0,2.035H19.9A1.018,1.018,0,0,1,18.882,12.733Zm1.874,4V15.2h3.518v1.526A14.806,14.806,0,0,0,20.756,16.732Z" transform="translate(0 -10.262)"/><path class="a" d="M436.5,425.5a.727.727,0,1,0,.514.213A.731.731,0,0,0,436.5,425.5Z" transform="translate(-404.105 -395.326)"/><path class="a" d="M166.145,144.609a11.273,11.273,0,1,0,11.273,11.273A11.285,11.285,0,0,0,166.145,144.609Zm0,21.092a9.819,9.819,0,1,1,9.819-9.819A9.83,9.83,0,0,1,166.145,165.7Z" transform="translate(-143.618 -134.847)"/><path class="b" d="M265.482,219.624l-3.6,3.6a2.252,2.252,0,0,0-1.995,0l-1.611-1.611a.727.727,0,0,0-1.028,1.028l1.611,1.611a2.258,2.258,0,1,0,4.05,0l3.493-3.493h0l.106-.106a.727.727,0,1,0-1.028-1.028Zm-4.6,6.429a.8.8,0,1,1,.8-.8A.806.806,0,0,1,260.885,226.053Z" transform="translate(-238.359 -204.213)"/><path class="a" d="M399.055,289.86h-.673a.727.727,0,0,0,0,1.453h.673a.727.727,0,0,0,0-1.453Z" transform="translate(-368.759 -269.543)"/><path class="a" d="M194.482,289.616h-.673a.727.727,0,1,0,0,1.453h.673a.727.727,0,1,0,0-1.453Z" transform="translate(-179.052 -269.317)"/><path class="a" d="M300.85,184.945a.727.727,0,0,0,.727-.727v-.673a.727.727,0,0,0-1.453,0v.673A.727.727,0,0,0,300.85,184.945Z" transform="translate(-278.314 -170.28)"/><path class="a" d="M300.606,387.393a.727.727,0,0,0-.727.727v.673a.727.727,0,1,0,1.453,0v-.673A.727.727,0,0,0,300.606,387.393Z" transform="translate(-278.088 -359.989)"/><path class="a" d="M.727,351.44a.727.727,0,1,0,.514,1.24.727.727,0,0,0-.514-1.24Z" transform="translate(0 -326.648)"/></g></svg>