<svg xmlns="http://www.w3.org/2000/svg" width="35.688" height="35.687" viewBox="0 0 35.688 35.687"><defs><style>.a{fill:#575757;}.b{fill:#dd141d;}</style></defs><g transform="translate(0 0)"><path class="a" d="M34.741,12.258,23.44.957a3.247,3.247,0,0,0-4.582,0L.946,18.87a3.247,3.247,0,0,0,0,4.582l1.394,1.394h0l9.365,9.365h-1.3a.743.743,0,0,0,0,1.487h14.87a.743.743,0,0,0,0-1.487H17.37L34.741,16.839A3.243,3.243,0,0,0,34.741,12.258Zm-1.051,3.53L15.777,33.7a1.74,1.74,0,0,1-1.237.51h-.006A1.739,1.739,0,0,1,13.3,33.7L3.917,24.319l17.2-17.2a.743.743,0,1,0-1.051-1.051l-17.2,17.2L2,22.4a1.76,1.76,0,0,1,0-2.479L19.91,2.008a1.76,1.76,0,0,1,2.479,0L26.411,6.03l-17.2,17.2a.743.743,0,0,0,1.051,1.051l17.2-17.2,6.227,6.227A1.755,1.755,0,0,1,33.69,15.788Z" transform="translate(0 -0.011)"/><path class="a" d="M167.778,305.158a.744.744,0,0,0-1.051,0l-5.851,5.85a.743.743,0,0,0,1.051,1.052l5.851-5.85A.744.744,0,0,0,167.778,305.158Z" transform="translate(-149.46 -283.686)"/><path class="a" d="M193.444,384.834l-2.4,2.4a.743.743,0,1,0,1.051,1.051l2.4-2.4a.743.743,0,0,0-1.051-1.052Z" transform="translate(-177.525 -357.808)"/><path class="a" d="M252.938,353.159l-.315.315a.743.743,0,1,0,1.051,1.051l.315-.315a.743.743,0,1,0-1.051-1.052Z" transform="translate(-234.811 -328.341)"/><path class="b" d="M348.034,160.887a.744.744,0,0,0-1.051,0l-3.154,3.154a.744.744,0,0,0,0,1.051l2.1,2.1a.743.743,0,0,0,1.051,0l3.154-3.154a.743.743,0,0,0,0-1.051Zm-1.577,4.732-1.051-1.051,2.1-2.1,1.051,1.051Z" transform="translate(-319.659 -149.47)"/><path class="a" d="M310.416,56.129a.741.741,0,0,0,.526-.218l.315-.316a.743.743,0,0,0-1.052-1.051l-.315.316a.744.744,0,0,0,.526,1.269Z" transform="translate(-288.087 -50.541)"/><path class="a" d="M100.1,355.15l-.315.315a.743.743,0,0,0,1.051,1.051l.315-.315a.743.743,0,0,0-1.051-1.052Z" transform="translate(-92.626 -330.193)"/></g></svg>