<svg width="28" height="28" viewBox="0 0 28 28" fill="none" xmlns="http://www.w3.org/2000/svg">
<path d="M12.2 2C17.833 2 22.4 6.567 22.4 12.2C22.4 14.584 21.582 16.778 20.211 18.514L25.649 23.951C25.7605 24.0625 25.8489 24.1949 25.9093 24.3405C25.9696 24.4862 26.0007 24.6423 26.0007 24.8C26.0007 24.9577 25.9696 25.1138 25.9093 25.2595C25.8489 25.4051 25.7605 25.5375 25.649 25.649C25.5375 25.7605 25.4051 25.8489 25.2595 25.9093C25.1138 25.9696 24.9577 26.0007 24.8 26.0007C24.6423 26.0007 24.4862 25.9696 24.3405 25.9093C24.1949 25.8489 24.0625 25.7605 23.951 25.649L18.514 20.211C16.7165 21.632 14.4913 22.4035 12.2 22.4C6.567 22.4 2 17.833 2 12.2C2 6.567 6.567 2 12.2 2ZM12.2 4.4C10.921 4.39997 9.66158 4.71447 8.53272 5.31579C7.40387 5.91711 6.44021 6.7868 5.72662 7.84826C5.01304 8.90972 4.57143 10.1304 4.44069 11.4027C4.30995 12.675 4.49409 13.96 4.9769 15.1444C5.4597 16.3288 6.22636 17.3762 7.20933 18.1946C8.1923 19.0129 9.36143 19.5769 10.6137 19.837C11.866 20.0971 13.1631 20.0453 14.3906 19.686C15.6181 19.3268 16.7385 18.6712 17.653 17.777L17.711 17.711L17.777 17.651C18.8496 16.5532 19.5745 15.1634 19.8609 13.6555C20.1473 12.1477 19.9825 10.5889 19.3871 9.17425C18.7917 7.75963 17.7922 6.5521 16.5138 5.70286C15.2354 4.85362 13.7348 4.40042 12.2 4.4V4.4Z" fill="#4E4E4E"/>
</svg>
