<?xml version="1.0" encoding="UTF-8"?>
<svg width="22px" height="22px" viewBox="0 0 22 22" version="1.1" xmlns="http://www.w3.org/2000/svg" xmlns:xlink="http://www.w3.org/1999/xlink">
    <title>04-iconos/01-24x24_/General icons/Fotos tomadas</title>
    <g id="HU-359:-Productos-solicitados-en-nuestros-aliados-(android)" stroke="none" stroke-width="1" fill="none" fill-rule="evenodd">
        <g id="0012C----prodc-nuestro-aliados----Zona-P---0011" transform="translate(-57.000000, -313.000000)" fill-rule="nonzero">
            <g id="11--Modal/Pop-up/Pequeño/05-Two-texts/One-button/01-Symbol" transform="translate(40.000000, 124.000000)">
                <g id="04-iconos/01-24x24_/General-icons/Fotos-tomadas" transform="translate(17.000000, 189.000000)">
                    <g id="Mask" fill="#6E6E6E">
                        <path d="M9,4.49999718 C6.96126925,4.49773002 5.1757169,5.86637561 4.64822335,7.83568483 C4.12072981,9.80499405 4.98309765,11.882904 6.75,12.9 C6.82355276,12.953908 6.90955973,12.9883108 7,13.0000746 C7.17604247,13.003065 7.34019548,12.9114447 7.43,12.76 C7.51992364,12.6391194 7.5517989,12.4846648 7.51707688,12.3380607 C7.48235486,12.1914566 7.38458902,12.0677065 7.25,11.9999972 C5.94149586,11.2845855 5.23002539,9.81861924 5.47759371,8.34800338 C5.72516203,6.87738753 6.87738753,5.72516203 8.34800338,5.47759371 C9.81861924,5.23002539 11.2845855,5.94149586 12,7.25 C12.1380712,7.49024385 12.4447561,7.57307116 12.685,7.43499998 C12.9252438,7.2969288 13.0080712,6.99024386 12.87,6.75 C12.0695272,5.36753347 10.5974461,4.51167239 9,4.49999718 Z" id="Path"></path>
                        <path d="M7,14.1 L2.6,14.1 C1.99248678,14.1 1.5,13.6075132 1.5,12.9999998 L1.5,4.99999978 C1.5,4.39248678 1.99248678,3.9 2.6,3.9 L5,3.9 C5.16765006,3.90015657 5.32466961,3.81790824 5.42,3.68 L6.87,1.49999978 L11.13,1.49999978 L12.58,3.68 C12.6753304,3.81790824 12.8323499,3.90015657 13,3.9 L15.4,3.9 C15.6917381,3.9 15.9715274,4.01589252 16.1778175,4.22218254 C16.3841075,4.42847256 16.5,4.70826186 16.5,4.99999978 L16.5,6.99999978 C16.5,7.27614237 16.7238576,7.49999978 17,7.49999978 C17.2761424,7.49999978 17.5,7.27614237 17.5,6.99999978 L17.5,4.99999978 C17.5,3.84020203 16.559798,2.9 15.4,2.9 L13.27,2.9 L11.82,0.72 C11.7246696,0.58209176 11.5676501,0.499843426 11.4,0.499999777 L6.6,0.499999777 C6.43234994,0.499843426 6.27533039,0.58209176 6.18,0.72 L4.73,2.9 L2.6,2.9 C1.44020203,2.9 0.5,3.84020203 0.5,4.99999978 L0.5,12.9999998 C0.5,14.159798 1.44020203,15.1 2.6,15.1 L7,15.1 C7.27614237,15.1 7.5,14.8761424 7.5,14.6 C7.5,14.3238576 7.27614237,14.1 7,14.1 Z" id="Path"></path>
                        <path d="M13.3,5.4 C13.3,5.89705627 13.7029437,6.3 14.2,6.3 C14.6970563,6.3 15.1,5.89705627 15.1,5.4 C15.1,4.90294373 14.6970563,4.5 14.2,4.5 C13.7029437,4.5 13.3,4.90294373 13.3,5.4 Z M14.3,5.4 C14.3,5.51 14.1,5.51 14.1,5.4 C14.1,5.34477153 14.1447715,5.3 14.2,5.3 C14.2552285,5.3 14.3,5.34477153 14.3,5.4 Z" id="Shape"></path>
                        <path d="M11,8 L12,8 C11.5459159,6.55594475 10.139471,5.62987459 8.63350401,5.78333898 C7.127537,5.93680338 5.93680338,7.127537 5.78333898,8.63350401 C5.62987459,10.139471 6.55594475,11.5459159 8,12 L8,11 C8,9.34314575 9.34314575,8 11,8 Z" id="Path"></path>
                        <path d="M11.7,14.3 C12.8045695,14.3 13.7,13.4045695 13.7,12.3 C13.7,11.1954305 12.8045695,10.3 11.7,10.3 C10.5954305,10.3 9.7,11.1954305 9.7,12.3 C9.7,13.4045695 10.5954305,14.3 11.7,14.3 Z M11.7,11.3 C12.2522847,11.3 12.7,11.7477153 12.7,12.3 C12.7,12.8522847 12.2522847,13.3 11.7,13.3 C11.1477153,13.3 10.7,12.8522847 10.7,12.3 C10.7,11.7477153 11.1477153,11.3 11.7,11.3 Z" id="Shape"></path>
                        <path d="M19,8.5 L11,8.5 C9.61928813,8.5 8.5,9.61928813 8.5,11 L8.5,19 C8.5,20.3807119 9.61928813,21.5 11,21.5 L19,21.5 C20.3807119,21.5 21.5,20.3807119 21.5,19 L21.5,11 C21.5,9.61928813 20.3807119,8.5 19,8.5 Z M11,9.5 L19,9.5 C19.8284271,9.5 20.5,10.1715729 20.5,11 L20.5,16.11 L17.37,12.66 C17.2685211,12.5477694 17.1208852,12.488715 16.97,12.5 C16.8197611,12.5053343 16.6816084,12.5837452 16.6,12.71 L13.67,16.71 L11.26,15.22 C11.0728024,15.1091061 10.8358664,15.1291854 10.67,15.27 L9.5,16.27 L9.5,11 C9.5,10.1715729 10.1715729,9.5 11,9.5 Z M19,20.5 L11,20.5 C10.1715729,20.5 9.5,19.8284271 9.5,19 L9.5,17.63 L11.05,16.29 L13.54,17.83 C13.6182132,17.8776613 13.7084298,17.9019504 13.8,17.9 C13.9600004,17.9010435 14.1100012,17.8222931 14.2,17.69 L17,13.79 L20.4600001,17.59 L20.4600001,19 C20.4602891,19.8130543 19.8127652,20.4783186 19,20.5 Z" id="Shape"></path>
                    </g>
                    <rect id="Color" x="-1" y="-1" width="24" height="24"></rect>
                </g>
            </g>
        </g>
    </g>
</svg>