<?xml version="1.0" encoding="UTF-8"?>
<svg width="40px" height="40px" viewBox="0 0 40 40" version="1.1" xmlns="http://www.w3.org/2000/svg" xmlns:xlink="http://www.w3.org/1999/xlink">
    <title>Filtros</title>
    <g id="Page-1" stroke="none" stroke-width="1" fill="none" fill-rule="evenodd">
        <g id="A004-SolicitarProducto-005" transform="translate(-312.000000, -112.000000)" fill-rule="nonzero">
            <g id="Categoria" transform="translate(8.000000, 112.000000)">
                <g id="Filtros" transform="translate(304.000000, 0.000000)">
                    <rect id="Rectangle" fill="#FFFFFF" x="0" y="0" width="40" height="40" rx="8"></rect>
                    <g id="Mask" transform="translate(10.000000, 13.000000)" fill="#6E6E6E">
                        <path d="M19.4700001,7.53000003 L17.3700001,7.53000003 C17.0772892,7.53000003 16.8400001,7.29271095 16.8400001,7.00000003 C16.8400001,6.70728911 17.0772892,6.47000003 17.3700001,6.47000003 L19.4700001,6.47000003 C19.762711,6.47000003 20.0000001,6.70728911 20.0000001,7.00000003 C20.0000001,7.29271095 19.762711,7.53000003 19.4700001,7.53000003 Z" id="Path"></path>
                        <path d="M11.05,7.53000003 L0.530000002,7.53000003 C0.237289084,7.53000003 -4.44089212e-16,7.29271095 -4.44089212e-16,7.00000003 C-4.44089212e-16,6.70728911 0.237289084,6.47000003 0.530000002,6.47000003 L11.05,6.47000003 C11.342711,6.47000003 11.58,6.70728911 11.58,7.00000003 C11.58,7.29271095 11.342711,7.53000003 11.05,7.53000003 Z" id="Path"></path>
                        <path d="M19.47,3.32000001 L9.00000004,3.32000001 C8.70728912,3.32000001 8.47000004,3.08271093 8.47000004,2.79000001 C8.47000004,2.49728909 8.70728912,2.26000001 9.00000004,2.26000001 L19.47,2.26000001 C19.762711,2.26000001 20.0000001,2.49728909 20.0000001,2.79000001 C20.0000001,3.08271093 19.762711,3.32000001 19.47,3.32000001 Z" id="Path"></path>
                        <path d="M2.63000001,3.32000001 L0.530000002,3.32000001 C0.237289084,3.32000001 -4.44089212e-16,3.08271093 -4.44089212e-16,2.79000001 C-4.44089212e-16,2.49728909 0.237289084,2.26000001 0.530000002,2.26000001 L2.63000001,2.26000001 C2.92271093,2.26000001 3.16000001,2.49728909 3.16000001,2.79000001 C3.16000001,3.08271093 2.92271093,3.32000001 2.63000001,3.32000001 Z" id="Path"></path>
                        <path d="M19.47,11.74 L9.00000004,11.74 C8.70728912,11.74 8.47000004,11.502711 8.47000004,11.21 C8.47000004,10.9172891 8.70728912,10.68 9.00000004,10.68 L19.47,10.68 C19.762711,10.68 20.0000001,10.9172891 20.0000001,11.21 C20.0000001,11.502711 19.762711,11.74 19.47,11.74 Z" id="Path"></path>
                        <path d="M2.63000001,11.74 L0.530000002,11.74 C0.237289084,11.74 -4.44089212e-16,11.502711 -4.44089212e-16,11.21 C-4.44089212e-16,10.9172891 0.237289084,10.68 0.530000002,10.68 L2.63000001,10.68 C2.92271093,10.68 3.16000001,10.9172891 3.16000001,11.21 C3.16000001,11.502711 2.92271093,11.74 2.63000001,11.74 Z" id="Path"></path>
                        <circle id="Oval" cx="5.73000002" cy="2.79000001" r="1.58000001"></circle>
                        <path d="M5.73000002,4.76 C4.62543052,4.76 3.73000002,3.86456952 3.73000002,2.76 C3.73000002,1.65543051 4.62543052,0.760000003 5.73000002,0.760000003 C6.83456953,0.760000003 7.73000002,1.65543051 7.73000002,2.76 C7.73000002,3.29043299 7.51928635,3.79914082 7.14421359,4.17421358 C6.76914083,4.54928634 6.26043301,4.76 5.73000002,4.76 Z M5.73000002,1.61000001 C5.07830402,1.61000001 4.55000002,2.138304 4.55000002,2.79000001 C4.55000002,3.44169602 5.07830402,3.97000002 5.73000002,3.97000002 C6.38169603,3.97000002 6.91000003,3.44169602 6.91000003,2.79000001 C6.91000003,2.138304 6.38169603,1.61000001 5.73000002,1.61000001 L5.73000002,1.61000001 Z" id="Shape"></path>
                        <circle id="Oval" cx="5.85000002" cy="11.21" r="1.58000001"></circle>
                        <path d="M5.85000002,13.18 C4.74543052,13.18 3.85000002,12.2845696 3.85000002,11.18 C3.85000002,10.0754305 4.74543052,9.18000004 5.85000002,9.18000004 C6.95456953,9.18000004 7.85000002,10.0754305 7.85000002,11.18 C7.85000002,12.2845696 6.95456953,13.18 5.85000002,13.18 Z M5.85000002,10.03 C5.3701928,10.0177976 4.93080074,10.2974298 4.73866939,10.7372587 C4.54653803,11.1770875 4.63996906,11.6894673 4.97494096,12.0331932 C5.30992807,12.3769191 5.81973283,12.4834961 6.26436264,12.3027526 C6.70899245,12.1220091 6.99984489,11.6899624 7.00000003,11.21 C7.00805846,10.8970162 6.89140199,10.5936599 6.67571378,10.3667184 C6.46002557,10.1397769 6.16298905,10.0078562 5.85000002,10 L5.85000002,10.03 Z" id="Shape"></path>
                        <circle id="Oval" cx="14.2700001" cy="7.00000003" r="1.58000001"></circle>
                        <path d="M14.2700001,9.00000002 C13.1654306,9.00000002 12.2700001,8.10456953 12.2700001,7.00000002 C12.2700001,5.89543052 13.1654306,5.00000002 14.2700001,5.00000002 C15.3745696,5.00000002 16.2700001,5.89543052 16.2700001,7.00000002 C16.2700001,8.10456953 15.3745696,9.00000002 14.2700001,9.00000002 Z M14.2700001,5.85000002 C13.790971,5.85421412 13.3620279,6.14761917 13.1844486,6.59253733 C13.0068693,7.03745548 13.1158993,7.54558066 13.4603771,7.87847942 C13.804855,8.21137818 14.3164097,8.30297773 14.7549986,8.11029575 C15.1935875,7.91761376 15.4721607,7.47889322 15.4600001,7.00000003 C15.4600114,6.68530423 15.3343185,6.38364114 15.1108581,6.16205849 C14.8873976,5.94047585 14.5846846,5.81733311 14.2700001,5.82000002 L14.2700001,5.85000002 Z" id="Shape"></path>
                    </g>
                </g>
            </g>
        </g>
    </g>
</svg>