<?xml version="1.0" encoding="UTF-8"?>
<svg width="20px" height="18px" viewBox="0 0 20 18" version="1.1" xmlns="http://www.w3.org/2000/svg" xmlns:xlink="http://www.w3.org/1999/xlink">
    <title>01-iconos/24x24_/General icons/SmartJungle</title>
    <defs>
        <path d="M9.92891328,17.9694957 C9.02701934,17.9704158 8.13343759,17.794509 7.2972531,17.4514379 C6.58240306,17.6768278 5.83271781,17.7663631 5.08585804,17.7155458 C3.3552676,17.6437964 1.847268,16.4966619 1.2934656,14.8306748 C0.693640988,13.6082492 0.926995279,12.1338028 1.87383173,11.1636381 C2.39724461,10.5262246 2.74277894,9.75803343 2.87446297,8.93903685 C1.87383173,8.99998483 0.542992164,8.86793088 0.132733351,7.85213123 C-0.126289176,7.14409418 -0.000987785356,6.35005274 0.462941664,5.75958397 C0.651979858,5.48223668 0.881404155,5.23563445 1.14337091,5.02820823 L3.14463341,3.49435077 L5.52613579,1.85891335 C6.84696904,1.1376956 9.09838935,0 10.0690017,0 C11.3111529,0.217413001 12.5002996,0.676138652 13.571211,1.35101352 C13.6131588,1.24553348 13.6633504,1.14362857 13.7213057,1.04627363 C14.1477716,0.597668031 14.770906,0.402143203 15.3723473,0.528215814 L15.6124988,0.528215814 C16.162846,0.528215814 16.9533447,0.528215814 17.3235782,1.07674762 C17.5064323,1.38487739 17.5288656,1.76443286 17.3836161,2.09254726 C17.2262911,2.61050773 17.1321952,3.14611512 17.1034393,3.6873527 L18.8445377,5.01805023 C19.1139012,5.23854753 19.3528556,5.49479041 19.5549859,5.77989996 C19.9994234,6.35585125 20.1204176,7.12352847 19.8751879,7.81149925 C19.4549228,8.90856286 18.054039,8.96951084 17.1434646,8.96951084 C17.2717153,9.79565795 17.6174385,10.5712882 18.1440958,11.2144281 C19.0821747,12.213573 19.2912437,13.7074041 18.6644241,14.9322547 C18.0995195,16.5706488 16.6010369,17.688346 14.8920443,17.7460197 C14.1485195,17.7951201 13.4024221,17.7056083 12.6906555,17.4819118 C11.8617281,17.8258818 10.9745108,18.0018741 10.079008,17.999985 L9.91890697,17.999985 L9.92891328,17.9694957 Z M7.32727203,16.4153222 C7.3932408,16.4010574 7.46142952,16.4010574 7.52739828,16.4153222 C8.29830362,16.754025 9.12893574,16.9302725 9.96893853,16.9333921 L10.0890143,16.9333921 C10.9133805,16.9350768 11.7286443,16.7584712 12.480523,16.4153222 C12.5938951,16.3750626 12.7173717,16.3750626 12.8307439,16.4153222 C13.475391,16.6322434 14.1534629,16.7286125 14.8320064,16.6997461 C16.1578461,16.6433241 17.3120189,15.7625524 17.733837,14.4853029 C18.2027235,13.624365 18.0648188,12.553814 17.3936224,11.8442238 C16.5836032,10.8675812 16.1155538,9.64578119 16.0627828,8.37018905 C16.0612427,8.21955215 16.1231336,8.07541476 16.2328902,7.97402719 C16.3417193,7.87482436 16.4884936,7.83012459 16.6331427,7.85213123 C17.6337739,8.01465918 18.7344683,7.93339521 18.9245882,7.45596937 C19.0542424,7.08496457 18.98202,6.67207272 18.7344683,6.36906376 C18.5870469,6.14738532 18.4083633,5.94888056 18.2041337,5.77989996 L16.3029343,4.32730648 C16.1650856,4.22766424 16.0890609,4.06173346 16.1028081,3.89051263 C16.1224826,3.14575751 16.243711,2.40736115 16.4630353,1.6963854 C16.3929912,1.49322547 15.8226313,1.49322547 15.6425177,1.49322547 L15.3823536,1.49322547 C15.0521453,1.49322547 14.6318802,1.44243549 14.5218107,1.58464744 C14.4695319,1.71488849 14.4695319,1.86072625 14.5218107,1.9909673 C14.5736743,2.18679901 14.5058187,2.39518172 14.3491996,2.52105144 C14.1925804,2.64692115 13.9772163,2.66615287 13.8013562,2.56997309 C12.6705747,1.84187453 11.4350022,1.29697269 10.1390458,0.954851664 C8.72633805,1.31129483 7.37627556,1.88691653 6.13652085,2.66139506 L3.71499322,4.30699048 L1.71373073,5.82053195 C1.51983914,5.97186285 1.35094846,6.15360076 1.2134151,6.35890576 C0.959128601,6.67829589 0.883610709,7.10760675 1.01328885,7.49660136 C1.17338985,7.89276322 2.10397691,8.05529116 3.31474072,7.87244723 C3.46079418,7.85458895 3.60718813,7.90288821 3.71499322,8.00450118 C3.81949945,8.10455865 3.87762384,8.24469668 3.87509422,8.39050504 C3.83405701,9.65394665 3.37592401,10.8667263 2.5742736,11.8340658 C1.89283971,12.5176202 1.73047358,13.5725156 2.1740211,14.4345129 C2.58333233,15.7445113 3.75351281,16.6567358 5.10587066,16.7200621 C5.78363036,16.7482763 6.4610054,16.6554445 7.10713316,16.4457962 C7.17685353,16.4171315 7.25253691,16.4066546 7.32727203,16.4153222 L7.32727203,16.4153222 Z" id="path-1"></path>
    </defs>
    <g id="Page-1" stroke="none" stroke-width="1" fill="none" fill-rule="evenodd">
        <g id="A004-SolicitarProducto-005" transform="translate(-34.000000, -723.000000)">
            <g id="Bottom-Nav" transform="translate(0.000000, 700.000000)">
                <g id="Items" transform="translate(16.000000, 20.000000)">
                    <g id="Mask" transform="translate(18.000000, 3.000000)">
                        <mask id="mask-2" fill="white">
                            <use xlink:href="#path-1"></use>
                        </mask>
                        <use fill="#6E6E6E" fill-rule="nonzero" xlink:href="#path-1"></use>
                    </g>
                </g>
            </g>
        </g>
    </g>
</svg>