<?xml version="1.0" encoding="UTF-8"?>
<svg width="20px" height="18px" viewBox="0 0 20 18" version="1.1" xmlns="http://www.w3.org/2000/svg" xmlns:xlink="http://www.w3.org/1999/xlink">
    <title>01-iconos/24x24_/General icons/SmartJungle Copy 3</title>
    <g id="Page-1" stroke="none" stroke-width="1" fill="none" fill-rule="evenodd">
        <g id="A004-SolicitarProducto-005" transform="translate(-306.000000, -723.000000)" fill="#6E6E6E" fill-rule="nonzero">
            <g id="Bottom-Nav" transform="translate(0.000000, 700.000000)">
                <g id="Items" transform="translate(16.000000, 20.000000)">
                    <g id="Más" transform="translate(272.000000, 0.000000)">
                        <g id="01-iconos/24x24_/General-icons/SmartJungle-Copy-3" transform="translate(18.000000, 3.500000)">
                            <g id="Mask" transform="translate(-0.000000, 0.000000)">
                                <path d="M19.9811501,3.63830006 C20.0243924,3.48735552 19.9942173,3.32486493 19.899665,3.19950938 C19.8051126,3.07415383 19.6571665,3.00049481 19.5001501,3.00060006 L3.49875006,3.00060006 C3.48765006,3.00060006 3.47875006,3.00620006 3.46745006,3.00690006 L2.99285006,0.412700063 C2.94947021,0.175633699 2.74315208,0.00324643515 2.50215006,0.00270006278 L0.500250063,-8.8817842e-16 L0.500250063,-8.8817842e-16 C0.321617268,-8.8817842e-16 0.156506108,0.0951276762 0.0671123607,0.249783556 C-0.0222813871,0.404439437 -0.0223766865,0.59503836 0.0668623607,0.749783556 C0.156101408,0.904528753 0.321117268,0.999910746 0.499750063,1 L2.08425006,1.00190006 L3.90825006,10.9710001 L3.46555006,11.0026001 C3.20378411,11.0212852 3.00100889,11.2391681 3.00115006,11.5016001 L3.00115006,13.5016001 C3.00115006,13.7777424 3.22500769,14.0016001 3.50115006,14.0016001 L16.4996501,14.0006001 C16.7757924,14.0006001 16.9996501,13.7767424 16.9996501,13.5006001 C16.9996501,13.2244577 16.7757924,13.0006001 16.4996501,13.0006001 L4.00115006,13.0016001 L4.00115006,11.9674001 L10.4952501,11.5036001 L10.5001501,11.5045001 L10.5101501,11.5025001 L14.4935501,11.2179001 L14.5008501,11.2194001 L14.5160501,11.2163001 L17.5360501,11.0006001 C17.7455113,10.9853347 17.9232534,10.8411214 17.9813501,10.6393001 L18.8140501,7.72450006 C18.8391168,7.67298939 18.8549566,7.61748214 18.8608501,7.56050006 L19.9811501,3.63830006 Z M17.9802501,7.00070006 L15.0009501,7.00070006 L15.0009501,4.00060006 L18.8373501,4.00060006 L17.9802501,7.00070006 Z M10.0002501,8.00170006 L10.0002501,10.5360001 L6.99835006,10.7500001 L6.99835006,8.00190006 L10.0002501,8.00170006 Z M6.99855006,7.00220006 L6.99855006,4.00060006 L10.0005501,4.00060006 L9.99995006,7.00170006 L6.99855006,7.00220006 Z M11.0002501,8.00160006 L14.0002501,8.00160006 L14.0002501,10.2500001 L10.9994501,10.4643001 L11.0002501,8.00160006 Z M11.0002501,7.00160006 L11.0008501,4.00060006 L14.0008501,4.00060006 L14.0008501,7.00120006 L11.0002501,7.00160006 Z M5.99955006,4.00060006 L5.99955006,7.00230006 L4.19895006,7.00230006 L3.64925006,4.00060006 L5.99955006,4.00060006 Z M4.38145006,8.00250006 L5.99885006,8.00250006 L5.99825006,10.8217001 L4.91135006,10.8994001 L4.38145006,8.00250006 Z M17.1154501,10.0280001 L15.0011501,10.1789001 L15.0011501,8.00110006 L17.6946501,8.00110006 L17.1154501,10.0280001 Z" id="Shape"></path>
                                <path d="M5.50115006,14.0026001 C4.8944567,14.0026001 4.34750226,14.3680633 4.11533076,14.9285749 C3.88315926,15.4890865 4.0114929,16.1342632 4.44048989,16.5632602 C4.86948688,16.9922572 5.51466363,17.1205909 6.07517521,16.8884194 C6.6356868,16.6562479 7.00115006,16.1092934 7.00115006,15.5026001 C7.00026821,14.6745385 6.32921164,14.0034819 5.50115006,14.0026001 L5.50115006,14.0026001 Z M5.50115006,16.0026001 C5.22500769,16.0026001 5.00115006,15.7787424 5.00115006,15.5026001 C5.00115006,15.2264577 5.22500769,15.0026001 5.50115006,15.0026001 C5.77729244,15.0026001 6.00115006,15.2264577 6.00115006,15.5026001 C6.00081945,15.7786054 5.77715538,16.0022695 5.50115006,16.0026001 Z" id="Shape"></path>
                                <path d="M14.5035501,14.0036001 C13.6751229,14.0036001 13.0035501,14.6751729 13.0035501,15.5036001 C13.0035501,16.3320272 13.6751229,17.0036001 14.5035501,17.0036001 C15.3319772,17.0036001 16.0035501,16.3320272 16.0035501,15.5036001 C16.0026682,14.6755385 15.3316116,14.0044819 14.5035501,14.0036001 L14.5035501,14.0036001 Z M14.5035501,16.0036001 C14.2274077,16.0036001 14.0035501,15.7797424 14.0035501,15.5036001 C14.0035501,15.2274577 14.2274077,15.0036001 14.5035501,15.0036001 C14.7796924,15.0036001 15.0035501,15.2274577 15.0035501,15.5036001 C15.0031645,15.7795826 14.7795326,16.0032145 14.5035501,16.0036001 Z" id="Shape"></path>
                            </g>
                        </g>
                    </g>
                </g>
            </g>
        </g>
    </g>
</svg>