<?xml version="1.0" encoding="UTF-8"?>
<svg width="22px" height="18px" viewBox="0 0 22 18" version="1.1" xmlns="http://www.w3.org/2000/svg" xmlns:xlink="http://www.w3.org/1999/xlink">
    <title>01-iconos/24x24_/General icons/SmartJungle Copy</title>
    <g id="Page-1" stroke="none" stroke-width="1" fill="none" fill-rule="evenodd">
        <g id="A004-SolicitarProducto-005" transform="translate(-101.000000, -723.000000)" fill-rule="nonzero">
            <g id="Bottom-Nav" transform="translate(0.000000, 700.000000)">
                <g id="Items" transform="translate(16.000000, 20.000000)">
                    <g id="Pagar" transform="translate(68.000000, 0.000000)">
                        <g id="Rectangle" transform="translate(17.500000, 3.500000)">
                            <g id="Mask" fill="#717171">
                                <path d="M2.26305301,9.44155127 C2.35650575,9.34855905 2.40901055,9.22240896 2.40901055,9.09086796 C2.40901055,8.95932696 2.35650575,8.83317687 2.26305301,8.74018465 C1.74770246,8.24195544 1.36855374,7.62107272 1.16147533,6.93627366 C1.04539747,6.51014562 0.9900494,6.06989209 0.997054802,5.62842827 C0.997054802,5.3544862 0.773983354,5.13241227 0.498810777,5.13241227 C0.2236382,5.13241227 0.000566751382,5.3544862 0.000566751382,5.62842827 C-0.00698638746,6.1609907 0.0609899461,6.69194971 0.202485125,7.20560043 C0.455864782,8.05371045 0.922620556,8.82334677 1.55850606,9.44155127 C1.65191858,9.53458125 1.77863436,9.5868479 1.91076459,9.5868479 C2.04289483,9.5868479 2.1696106,9.53458125 2.26302312,9.44155127 L2.26305301,9.44155127 Z" id="Path"></path>
                                <path d="M15.8251258,6.99343454 L14.607547,5.78131032 C15.2342472,5.83873077 15.8647594,5.72385617 16.4304126,5.44919785 L17.3208245,5.00452942 C17.5657403,4.88108282 17.6643192,4.58374783 17.5413372,4.33941622 C17.4183551,4.0950846 17.1200969,3.99571152 16.8741587,4.11712704 L15.9832984,4.56179546 C15.2907583,4.90731308 14.4752237,4.90804816 13.7820563,4.56377953 L12.8999152,4.12492441 C12.8544052,4.10278316 12.8056789,4.08790925 12.7555241,4.08084843 C12.7412943,4.07835843 12.7279712,4.0739042 12.713562,4.07273361 C12.6761596,4.07105722 12.6386881,4.07369706 12.6018956,4.08060042 C12.5845709,4.08090077 12.5672743,4.08211274 12.5500782,4.08423126 L8.99278524,4.97067137 C8.62547054,5.06283581 8.23642604,4.95865244 7.96512704,4.69547177 L12.718395,1.55469846 C12.9478889,1.40328246 13.0106322,1.09532588 12.8585361,0.866858191 C12.7064399,0.638390502 12.3971001,0.575927769 12.1676061,0.727343771 L10.712893,1.68879142 L9.16403171,0.143205567 C8.96909681,-0.0484777441 8.6553105,-0.0476245012 8.46143033,0.14511607 C8.26755016,0.337856642 8.26624957,0.650238252 8.45851817,0.844572192 L9.86566891,2.24876373 L6.91123131,4.20143984 C6.78739144,4.28345742 6.7067629,4.41620029 6.69132887,4.56347644 C6.67589485,4.71075258 6.72726469,4.85720498 6.83143255,4.96290376 L7.24796456,5.38529115 C7.6420887,5.77570874 8.17550955,5.99481167 8.73150607,5.99465672 C8.90125518,5.99502707 9.07040048,5.97452532 9.23510124,5.93361699 L12.5278764,5.11305772 L15.0670575,7.6318865 L17.4225161,10.9228336 C17.505515,11.0382572 17.4923341,11.1965388 17.3913759,11.2967801 L17.1091107,11.5786957 L14.6914214,9.17222451 C14.4963113,8.98187185 14.1836135,8.98344411 13.9904447,9.17574905 C13.797276,9.36805399 13.7956966,9.67935353 13.9869043,9.87359113 L16.6103485,12.4848178 L16.6099897,13.0541052 C16.6101806,13.1330155 16.5786378,13.208719 16.5223984,13.2643267 L16.0011654,13.7834769 L13.5840242,11.3771446 C13.4586063,11.2497393 13.2741225,11.1992001 13.1008862,11.2447892 C12.9276499,11.2903784 12.7923512,11.4250721 12.7465573,11.5975337 C12.7007634,11.7699953 12.7515296,11.9536542 12.8795072,12.0785112 L15.2967679,14.4849626 L15.1624812,14.6186588 C14.8551975,14.9175297 14.443755,15.0865745 14.0141782,15.0904493 L13.9890667,15.0903303 L12.4770555,13.5820944 C12.2821206,13.3904111 11.9683343,13.3912644 11.7744542,13.5840049 C11.580574,13.7767455 11.5792734,14.0891271 11.771542,14.2834611 L13.079303,15.5880526 L12.7651103,15.9003641 C12.6539477,16.0119266 12.4833303,16.0396792 12.3422805,15.9691417 L10.7609437,15.1941464 L10.5050057,15.0032993 C10.2846145,14.8405149 9.97350689,14.8857026 9.8090225,15.1043894 C9.64453811,15.3230763 9.68855866,15.6329886 9.90750148,15.7976987 L10.2403285,16.0350523 L11.8975678,16.8565738 C12.4216528,17.1178996 13.0549538,17.015623 13.469179,16.6027624 L13.9922355,16.082521 L14.0194895,16.082521 C14.7123131,16.0806291 15.3764002,15.8066444 15.8674666,15.3200948 L16.3534239,14.835765 L16.3535435,14.8357054 L16.3536033,14.8355765 L17.2274137,13.9647708 C17.4708295,13.7237657 17.6073127,13.3958532 17.6064578,13.0540854 L17.6069362,12.4863753 L18.0964211,11.9971448 C18.5424245,11.5551863 18.6007419,10.8564852 18.2341257,10.3473063 L15.8251258,6.99343454 Z" id="Path"></path>
                                <path d="M20.8172918,4.55210331 C20.6496417,3.645256 20.2719686,2.78979542 19.7142493,2.05362111 C19.5487165,1.83478797 19.2363295,1.79097944 19.0165134,1.95577204 C18.7966972,2.12056463 18.7526919,2.43155474 18.9182248,2.65038788 C19.3824212,3.2625705 19.6967995,3.97409658 19.8363789,4.72842708 C20.3260431,6.4136835 19.7105412,8.22429697 18.2934766,9.26716197 C18.1217868,9.39524356 18.0518287,9.61841689 18.1198722,9.82097708 C18.1879157,10.0235373 18.3786548,10.1599192 18.5932002,10.1594176 C18.7010913,10.1597351 18.806084,10.1246652 18.8919474,10.0596269 C20.6152378,8.79622504 21.3803334,6.60763898 20.8172918,4.55210331 L20.8172918,4.55210331 Z" id="Path"></path>
                                <path d="M10.5336746,12.7518728 L5.56099997,7.80043273 C5.20598705,7.46329247 4.64754339,7.46329247 4.29253047,7.80043273 L1.9389652,10.1439099 C1.66455188,10.41715 1.52764432,10.7984738 1.56590796,11.1829732 C1.60417161,11.5674727 1.81357538,11.9146407 2.13650899,12.128966 L7.42885703,15.6398267 C7.94300271,15.9802496 8.62694627,15.9125686 9.06371526,15.4780462 L10.5336348,14.0142137 C10.8834946,13.665514 10.8835124,13.1005943 10.5336746,12.7518728 Z M8.09705209,11.7287207 L6.19077045,13.6261407 L4.37821848,12.4238772 L6.58711361,10.2248697 L8.09705209,11.7287207 Z M2.55742555,11.0846043 C2.54810874,10.9959526 2.57980184,10.9078949 2.64355201,10.8453063 L3.22402623,10.2679437 L4.92702431,8.57156897 L5.88270617,9.52333439 L3.53258875,11.8629427 L2.68931074,11.3035358 C2.61419083,11.2543249 2.56565328,11.1737518 2.55742555,11.0846043 L2.55742555,11.0846043 Z M8.35875975,14.7775922 C8.25842064,14.8783601 8.10026813,14.8938201 7.98215702,14.8144065 L7.03640018,14.1870653 L8.80147946,12.4302362 L9.7586162,13.3835194 L8.35875975,14.7775922 Z" id="Shape"></path>
                            </g>
                        </g>
                    </g>
                </g>
            </g>
        </g>
    </g>
</svg>
