<?xml version="1.0" encoding="UTF-8"?>
<svg width="20px" height="20px" viewBox="0 0 20 20" version="1.1" xmlns="http://www.w3.org/2000/svg" xmlns:xlink="http://www.w3.org/1999/xlink">
    <title>01-iconos/24x24_/General icons/SmartJungle Copy 3</title>
    <g id="Page-1" stroke="none" stroke-width="1" fill="none" fill-rule="evenodd">
        <g id="A004-SolicitarProducto-005" transform="translate(-238.000000, -722.000000)" fill="#6E6E6E" fill-rule="nonzero">
            <g id="Bottom-Nav" transform="translate(0.000000, 700.000000)">
                <g id="Items" transform="translate(16.000000, 20.000000)">
                    <g id="Transferir" transform="translate(204.000000, 0.000000)">
                        <g id="Mask" transform="translate(18.000000, 2.000000)">
                            <path d="M19.498885,20.0002465 L0.496175003,20.0002465 C0.221430624,19.9977906 0,19.7743719 0,19.4996165 C0,19.2248611 0.221430624,19.0014424 0.496175003,18.9989865 L19.002385,18.9989865 L19.002385,0.500976501 C19.0007833,0.322532301 19.0950638,0.156953417 19.2493396,0.06726575 C19.4036154,-0.0224219167 19.5941546,-0.0224219167 19.7484304,0.06726575 C19.9027062,0.156953417 19.9969867,0.322532301 19.9954051,0.500976501 L19.9954051,19.4996165 C19.9960069,19.6318666 19.9440289,19.7589391 19.8509011,19.8528416 C19.7577733,19.946744 19.6311357,19.9997729 19.498885,20.0002465 L19.498885,20.0002465 Z" id="Path"></path>
                            <path d="M17.027245,4.0189365 L17.027245,17.0285165 L0.999618831,17.0004265 L0.999618831,16.2758065 C0.997566162,15.580289 1.51084478,14.9907455 2.200025,14.8970465 C5.130715,14.4961865 12.784875,13.5787665 17.027245,4.0189365 Z" id="Path"></path>
                            <path d="M0.999285003,13.500428 C0.744989789,13.500119 0.531441005,13.3089705 0.50307056,13.0562626 C0.474700114,12.8035548 0.640548258,12.569813 0.888445003,12.5131265 C7.12506482,10.6195602 12.4001362,6.4102535 15.630625,0.749426501 C15.7692485,0.510767692 16.0750962,0.429673029 16.313755,0.568296501 C16.5524138,0.706919973 16.6335085,1.01276769 16.494885,1.2514265 C13.1637855,7.18465825 7.64125863,11.5771539 1.110625,13.4877265 C1.07412888,13.4962582 1.03676498,13.500428 0.999285003,13.500428 Z" id="Path"></path>
                            <path d="M16.779075,3.06976947 C16.5419144,3.06946999 16.3375713,2.90264929 16.289815,2.6703465 L15.993915,1.2299165 L14.410425,1.2299165 C14.1342826,1.2299165 13.910425,1.00605888 13.910425,0.729916501 C13.910425,0.453774126 14.1342826,0.229916501 14.410425,0.229916501 L16.401625,0.229916501 C16.6389577,0.230008612 16.8435512,0.396870061 16.891365,0.629336501 L17.269295,2.4691765 C17.3249037,2.73977549 17.1507044,3.00424376 16.880135,3.0599965 C16.8468576,3.06660949 16.8130029,3.0698824 16.779075,3.06976947 Z" id="Path"></path>
                        </g>
                    </g>
                </g>
            </g>
        </g>
    </g>
</svg>