<?xml version="1.0" encoding="utf-8" standalone="no"?>
<!DOCTYPE svg PUBLIC "-//W3C//DTD SVG 1.1//EN" "http://www.w3.org/Graphics/SVG/1.1/DTD/svg11.dtd">
<svg xmlns:xlink="http://www.w3.org/1999/xlink" version="1.1" xmlns="http://www.w3.org/2000/svg">
  <metadata>Created by Aspose.Font at 5/20/2024 7:02:43 PM</metadata>
  <defs>
    <font id="Fira_Sans_Italic" horiz-adv-x="553">
      <font-face font-family="Fira Sans" font-weight="400" units-per-em="1000" font-style="italic" ascent="935" descent="-265" font-stretch="Normal" panose-1="2 11 5 3 5 0 0 2 0 4" cap-height="689" x-height="527" bbox="-775 -353 1417 1097" underline-thickness="50" underline-position="-75" unicode-range="U+0000-007F,U+0080-00FF,U+0100-017F,U+0180-024F,U+0250-02AF,U+1D00-1D7F,U+1D80-1DBF,U+02B0-02FF,U+A700-A71F,U+0300-036F,U+1DC0-1DFF,U+0370-03FF,U+0400-04FF,U+0500-052F,U+2DE0-2DFF,U+A640-A69F,U+1E00-1EFF,U+2C60-2C7F,U+A720-A7FF,U+1F00-1FFF,U+2070-209F" />
      <missing-glyph horiz-adv-x="660" d="M649 1050L451 -350L35 -350L233 1050zM587 998L280 998L97 -298L404 -298zM343 451C442 414 442 358 412 451C441 343 440 331 442 352C399 227 333 218 430 261L324 170C312 149 300 149 322 156C273 161 275 176 285 149L284 257C381 283 389 339 356 261C391 355 391 359 390 348C378 403 341 403 391 387C302 398 287 390 320 403L275 389C248 402 251 417 257 389C299 451 343 451 253 439zM288 120C321 106 321 86 308 120C306 48 286 48 321 64C250 67 254 90 264 48C269 120 288 120 255 107z" />
      <glyph unicode="
" horiz-adv-x="259" />
      <glyph unicode=" " horiz-adv-x="259" />
      <glyph unicode="!" horiz-adv-x="235" d="M71 230L126 689L227 689L152 230zM85 -12C23 15 23 51 49 -12C55 127 97 127 23 93C160 100 160 64 134 127C126 -12 85 -12 160 21z" />
      <glyph unicode="&#34;" horiz-adv-x="393" d="M95 427L118 689L216 689L164 427zM275 427L298 689L396 689L344 427z" />
      <glyph unicode="#" horiz-adv-x="512" d="M524 447L448 447L390 232L457 232L447 163L371 163L327 0L249 0L293 163L141 163L97 0L20 0L64 163L0 163L10 232L83 232L141 447L77 447L87 517L160 517L201 669L279 669L238 517L390 517L431 669L508 669L467 517L534 517zM312 232L371 447L219 447L160 232z" />
      <glyph unicode="$" horiz-adv-x="525" d="M303 387C477 299 477 201 411 352C403 6 261 -10 477 94L241 -155L162 -155L182 -11C44 25 -1 77 105 -4L57 131C153 64 224 64 97 86C382 107 382 195 313 64C350 282 258 314 382 249C84 407 84 494 142 354C160 671 279 679 84 602L300 824L379 824L358 676C467 641 511 600 416 666L456 546C361 604 303 604 412 584C177 572 177 500 227 604C207 417 303 387 177 446z" />
      <glyph unicode="%" horiz-adv-x="820" d="M670 711L114 11L173 -31L729 669zM221 341C79 398 79 484 137 341C85 544 98 574 79 514C130 629 158 649 110 604C219 679 260 679 185 669C403 621 403 539 345 679C396 478 384 448 403 509C352 392 325 372 372 418C263 341 221 341 297 351zM222 403C323 476 323 539 296 403C302 617 260 617 323 591C158 546 158 484 185 617C179 403 222 403 158 430zM579 -12C437 45 437 131 495 -12C443 191 456 221 437 161C488 276 516 296 468 251C577 326 618 326 543 316C761 268 761 186 703 326C754 125 742 95 761 156C710 39 683 19 730 65C621 -12 579 -12 655 -1zM580 50C681 123 681 186 654 50C660 264 618 264 681 238C516 193 516 131 543 264C537 50 580 50 516 77z" />
      <glyph unicode="&#38;" horiz-adv-x="723" d="M347 701C522 641 522 557 451 701C514 500 499 478 522 527C465 436 442 420 484 456C389 386 353 367 419 404L505 200C565 305 584 355 539 253L666 325C597 196 557 144 633 257L652 40L582 -12L499 82C362 -12 273 -12 433 19C198 -4 168 11 233 -12C115 47 99 73 138 26C76 129 76 162 83 99C113 309 232 380 76 248C157 480 157 534 182 436C164 592 179 618 157 564C216 663 245 678 194 643C307 701 347 701 273 693zM347 633C246 594 246 534 283 633C264 457 303 417 246 492C433 501 433 557 391 466C399 633 347 633 433 603zM278 326C169 226 169 164 188 274C210 61 281 61 169 100C396 86 450 136 343 61L278 326z" />
      <glyph unicode="&#39;" horiz-adv-x="213" d="M95 427L118 689L216 689L164 427z" />
      <glyph unicode="(" horiz-adv-x="318" d="M357 803C135 453 135 229 201 611C164 9 227 -109 135 95L167 -143C115 -52 99 -18 138 -93C69 53 58 97 83 15C42 188 42 240 47 140C51 399 71 465 42 324C119 593 156 651 91 531C241 773 303 847 192 708z" />
      <glyph unicode=")" horiz-adv-x="318" d="M175 843C226 752 242 718 203 793C272 646 283 603 258 684C300 512 300 460 294 559C290 300 270 234 300 376C222 106 186 49 250 168C100 -73 39 -147 149 -8L-15 -103C208 249 208 473 141 89C177 690 115 809 208 605L175 843z" />
      <glyph unicode="*" horiz-adv-x="433" d="M456 561L299 527L386 412L309 359L249 492L153 359L88 411L207 528L60 561L96 641L231 581L237 739L330 739L292 582L438 644z" />
      <glyph unicode="+" horiz-adv-x="493" d="M324 519L303 369L447 369L436 293L292 293L271 144L187 144L208 293L65 293L76 369L219 369L240 519z" />
      <glyph unicode="," horiz-adv-x="241" d="M98 127C161 100 161 64 134 127C153 19 135 -15 161 40L47 -166L-20 -166L45 2C24 30 24 51 31 14C56 127 98 127 24 92z" />
      <glyph unicode="-" horiz-adv-x="397" d="M59 274L70 352L351 352L340 274z" />
      <glyph unicode="." horiz-adv-x="240" d="M85 -12C23 15 23 51 49 -12C55 127 97 127 23 93C160 100 160 64 134 127C126 -12 85 -12 160 21z" />
      <glyph unicode="/" horiz-adv-x="514" d="M408 809L485 789L130 -104L53 -83z" />
      <glyph unicode="0" horiz-adv-x="552" d="M333 679C213 655 172 608 267 679C101 503 83 435 130 561C56 298 56 229 65 367C119 -12 238 -12 56 73C357 11 399 58 304 -12C470 163 488 232 440 105C515 369 515 438 506 300C451 679 333 679 515 594zM330 606C423 560 423 455 391 606C416 333 404 273 423 394C371 162 344 122 391 213C283 61 242 61 317 81C149 106 149 212 180 61C155 333 168 393 149 272C200 504 227 545 180 453C288 606 330 606 254 585z" />
      <glyph unicode="1" horiz-adv-x="427" d="M376 669L282 0L190 0L270 562L103 467L72 541L295 669z" />
      <glyph unicode="2" horiz-adv-x="489" d="M279 679C462 611 462 511 391 679C452 438 434 403 462 474C381 324 332 274 415 367C211 157 117 75 283 223L414 77L392 0L1 0L11 75C196 248 244 297 119 174C324 385 341 415 292 346C367 476 367 508 358 445C330 603 272 603 367 569C174 580 124 528 216 603L66 581C199 679 279 679 130 647z" />
      <glyph unicode="3" horiz-adv-x="493" d="M276 679C454 611 454 521 388 679C402 378 302 354 454 441C430 297 430 216 376 347C420 144 401 109 430 180C354 45 316 22 382 74C232 -12 178 -12 278 0C30 20 -11 80 96 -12L49 130C127 63 182 63 85 82C337 131 337 227 274 63C297 314 221 314 337 291L169 314L190 385L222 385C362 441 362 517 310 385C327 605 269 605 362 573C172 585 122 543 215 605L77 601C206 679 276 679 139 653z" />
      <glyph unicode="4" horiz-adv-x="526" d="M493 238L483 165L397 165L374 0L285 0L308 165L25 165L34 231L292 679L369 647L135 238L319 238L353 418L433 418L408 238z" />
      <glyph unicode="5" horiz-adv-x="495" d="M463 597L204 597L176 401C244 426 282 426 209 417C446 359 446 245 384 426C437 167 419 127 446 206C372 54 333 28 401 87C246 -12 188 -12 294 1C46 19 0 75 104 -12L60 126C134 63 190 63 93 82C259 72 283 92 228 63C325 135 336 163 307 111C353 219 353 247 347 191C320 355 254 355 353 319C190 348 152 332 216 355L80 332L127 669L485 669z" />
      <glyph unicode="6" horiz-adv-x="526" d="M325 440C484 375 484 262 417 440C475 179 457 137 484 221C412 59 376 31 439 95C295 -12 242 -12 340 2C54 73 54 221 112 -12C65 373 89 443 54 299C148 569 194 613 113 513C294 679 358 679 240 657C453 665 491 637 408 679L450 577C391 606 355 606 422 596C184 507 156 354 259 606C262 440 325 440 206 411zM245 61C309 72 331 94 280 61C369 142 379 173 353 116C393 234 393 263 388 204C364 367 307 367 393 332C190 329 146 271 247 367C144 220 144 210 144 240C174 61 245 61 144 104z" />
      <glyph unicode="7" horiz-adv-x="438" d="M466 669L457 600L126 -10L43 18L362 594L70 594L81 669z" />
      <glyph unicode="8" horiz-adv-x="545" d="M375 357C490 270 490 202 451 321C478 124 456 92 490 161C403 33 365 15 434 59C283 -12 236 -12 326 -2C31 58 31 162 110 -12C72 307 187 354 31 243C105 431 105 493 132 385C114 561 133 589 105 529C178 639 211 655 152 617C281 679 322 679 244 671C386 673 415 661 355 679C466 632 484 609 443 649C510 557 510 525 501 585C469 399 375 357 510 447zM319 610C193 556 193 494 232 610C225 411 299 386 193 436L313 382C421 469 421 524 397 426C387 610 319 610 421 578zM240 61C397 120 397 206 333 61C364 285 271 320 397 258L249 327C125 236 125 163 166 291C168 61 240 61 125 99z" />
      <glyph unicode="9" horiz-adv-x="518" d="M304 679C496 598 496 466 429 679C485 325 464 263 496 392C401 145 340 94 442 201C192 4 80 -23 278 43L65 48C359 183 391 329 249 98C297 243 231 243 353 278C172 250 148 265 200 243C104 301 90 329 123 280C69 388 69 424 76 356C77 506 95 545 69 466C138 616 174 641 112 584C252 679 304 679 209 666zM249 315C357 346 401 408 306 315C405 448 405 468 403 428C371 606 302 606 405 565C159 514 159 420 200 606C194 315 249 315 159 352z" />
      <glyph unicode=":" horiz-adv-x="240" d="M85 -12C23 15 23 51 49 -12C55 127 97 127 23 93C160 100 160 64 134 127C126 -12 85 -12 160 21zM137 356C75 383 75 419 101 356C107 495 149 495 75 461C212 468 212 432 186 495C178 356 137 356 212 389z" />
      <glyph unicode=";" horiz-adv-x="244" d="M98 127C161 100 161 64 134 127C153 19 135 -15 161 40L47 -166L-20 -166L45 2C24 30 24 51 31 14C56 127 98 127 24 92zM141 356C79 383 79 419 105 356C111 495 153 495 79 461C216 468 216 432 190 495C182 356 141 356 216 389z" />
      <glyph unicode="&#60;" horiz-adv-x="496" d="M451 551L479 472L131 331L435 189L392 115L52 286L65 380z" />
      <glyph unicode="=" horiz-adv-x="495" d="M79 389L90 466L462 466L451 389zM52 196L63 273L435 273L424 196z" />
      <glyph unicode="&#62;" horiz-adv-x="494" d="M121 551L461 380L448 286L62 115L36 191L383 338L79 475z" />
      <glyph unicode="?" horiz-adv-x="453" d="M292 701C464 640 464 560 402 701C457 499 445 477 464 526C417 437 399 425 432 455C357 399 327 383 381 413C283 359 269 349 302 370C243 327 233 313 255 339C219 282 219 262 223 299C220 241 222 233 219 250L140 219C130 255 130 269 134 233C136 323 148 343 130 298C174 380 192 392 160 363C232 418 260 433 209 404C304 457 318 467 284 446C344 489 354 504 332 477C369 537 369 558 364 519C337 625 284 625 369 602C179 600 133 551 232 625L76 604C210 701 292 701 138 668zM175 -12C113 15 113 51 139 -12C145 127 187 127 113 93C250 100 250 64 224 127C216 -12 175 -12 250 21z" />
      <glyph unicode="@" horiz-adv-x="1014" d="M570 701C719 685 777 655 650 701C878 583 908 530 835 625C952 417 952 351 937 477C944 250 928 198 952 301C887 101 852 64 912 146C771 9 716 9 816 27C605 55 600 110 642 9C513 11 450 11 563 44C299 78 299 186 359 11C307 283 324 330 299 235C369 415 407 446 341 376C493 492 551 492 445 476C656 478 704 450 605 492L665 168C663 145 663 139 663 154C676 80 715 80 663 101C778 94 800 124 749 80C837 190 847 232 822 154C862 316 862 357 857 274C757 625 568 625 862 527C391 602 329 556 470 625C222 454 195 386 267 510C154 251 154 183 167 318C166 67 192 19 154 122C254 -67 302 -95 217 -28C407 -137 473 -137 350 -123C601 -125 669 -102 536 -137L688 -175C551 -213 469 -213 612 -200C319 -196 257 -162 389 -213C147 -80 113 -20 195 -128C62 108 62 185 79 39C79 342 114 422 62 263C205 567 281 621 149 501C454 701 570 701 357 674zM463 78C565 129 584 173 525 78L619 413C576 426 553 426 598 421C387 311 387 181 433 426C412 78 463 78 387 112z" />
      <glyph unicode="A" horiz-adv-x="567" d="M427 0L400 173L141 173L65 0L-32 0L284 689L403 689L524 0zM174 250L388 250L332 610z" />
      <glyph unicode="B" horiz-adv-x="602" d="M411 364C550 309 550 220 493 349C464 0 252 0 550 86L62 0L159 689L349 689C565 637 565 535 479 689C499 382 411 364 565 443zM242 614L212 397L313 397C469 442 469 532 402 397C424 614 352 614 469 593zM256 76C452 130 452 222 401 76C406 324 316 324 452 290L202 324L167 76L256 76z" />
      <glyph unicode="C" horiz-adv-x="555" d="M394 701C529 676 579 630 471 701L525 577C444 623 398 623 483 609C296 604 260 567 342 623C199 484 183 429 224 530C160 317 160 260 167 373C218 68 312 68 160 128C413 89 467 127 372 68L509 63C382 -12 306 -12 449 13C61 89 61 268 155 -12C72 401 96 468 61 334C157 590 207 634 120 534C319 701 394 701 257 678z" />
      <glyph unicode="D" horiz-adv-x="639" d="M300 689C601 625 601 428 482 689C588 278 563 214 601 350C497 97 441 58 537 149C314 0 228 0 385 19L62 0L159 689L300 689zM242 613L167 75L242 75C355 92 395 127 304 75C462 205 479 259 434 161C505 369 505 430 496 312C496 519 479 546 505 480C439 590 411 599 461 572C351 613 314 613 383 608z" />
      <glyph unicode="E" horiz-adv-x="529" d="M528 689L507 613L242 613L210 388L440 388L430 312L200 312L167 76L450 76L439 0L62 0L159 689z" />
      <glyph unicode="F" horiz-adv-x="485" d="M521 689L500 613L242 613L209 378L432 378L422 303L199 303L156 0L62 0L159 689z" />
      <glyph unicode="G" horiz-adv-x="625" d="M405 701C552 674 607 622 490 701L548 571C463 623 406 623 501 608C303 604 266 566 350 623C202 481 185 423 229 528C159 307 159 247 167 365C211 66 315 66 159 121C406 77 446 100 363 66L476 305L356 305L356 382L580 382L535 54C394 -12 302 -12 465 10C60 83 60 259 151 -12C72 398 97 466 60 329C161 590 213 634 122 534C329 701 405 701 265 678z" />
      <glyph unicode="H" horiz-adv-x="674" d="M156 0L62 0L159 689L253 689L212 401L500 401L541 689L635 689L538 0L444 0L489 323L201 323z" />
      <glyph unicode="I" horiz-adv-x="292" d="M253 689L156 0L62 0L159 689z" />
      <glyph unicode="J" horiz-adv-x="300" d="M182 93C98 -99 -26 -138 163 -43L-45 -67C11 -41 29 -27 -13 -55C60 4 69 24 47 -13C85 71 89 103 78 44L172 689L266 689z" />
      <glyph unicode="K" horiz-adv-x="583" d="M62 0L159 689L254 689L157 0zM434 0L213 368L515 689L626 689L319 365L546 0z" />
      <glyph unicode="L" horiz-adv-x="492" d="M253 689L168 83L448 83L426 0L62 0L159 689z" />
      <glyph unicode="M" horiz-adv-x="772" d="M673 0L582 0L602 314C615 523 623 591 608 431L405 78L315 78L232 590C206 427 179 301 224 523L115 0L25 0L179 689L298 689L376 190L580 689L713 689z" />
      <glyph unicode="N" horiz-adv-x="677" d="M541 0L418 0L221 607C211 429 195 313 220 527L151 0L62 0L159 689L283 689L481 81C485 230 496 316 481 171L549 689L638 689z" />
      <glyph unicode="O" horiz-adv-x="686" d="M402 701C648 599 648 421 554 701C636 286 613 220 648 353C553 98 503 54 590 154C387 -12 308 -12 452 10C61 87 61 265 156 -12C72 397 95 464 61 331C155 586 206 632 118 530C322 701 402 701 257 678zM398 623C293 604 257 566 340 623C196 481 181 426 221 528C159 316 159 262 166 371C209 66 311 66 159 131C416 85 452 123 369 66C513 208 528 263 488 161C550 373 550 428 542 318C499 623 398 623 550 558z" />
      <glyph unicode="P" horiz-adv-x="575" d="M336 689C576 628 576 507 489 689C566 419 546 381 576 461C494 312 450 288 526 343C349 253 280 253 406 264L191 253L156 0L62 0L159 689L336 689zM282 328C476 403 476 507 424 328C425 615 329 615 476 584L242 615L202 328L282 328z" />
      <glyph unicode="Q" horiz-adv-x="683" d="M648 421C641 319 628 268 648 370C593 171 564 129 614 217C497 57 452 37 534 87C571 11 622 -26 520 35L552 -103C507 -60 485 -47 529 -79C439 -25 412 -20 463 -34C350 -12 308 -12 384 -14C61 87 61 265 156 -12C72 397 95 464 61 331C155 586 206 632 118 530C322 701 402 701 257 678C648 599 648 421 554 701zM159 255C215 66 311 66 159 124C416 85 452 124 369 66C513 210 528 266 488 162C550 380 550 438 542 322C496 623 398 623 550 563C293 603 257 565 340 623C196 480 181 424 221 527C159 311 159 255 166 368z" />
      <glyph unicode="R" horiz-adv-x="599" d="M572 518C519 340 398 306 572 424L537 0L433 0L306 292L197 292L156 0L62 0L159 689L336 689C572 632 572 518 493 689zM207 365L308 365C473 434 473 517 425 365C429 615 331 615 473 587L242 615z" />
      <glyph unicode="S" horiz-adv-x="539" d="M324 701C473 672 527 618 410 701L468 563C381 623 324 623 425 605C183 580 183 511 242 623C212 431 312 398 183 457C492 315 492 209 426 362C482 136 462 102 492 171C412 41 372 20 442 68C282 -12 222 -12 332 -1C53 18 -1 80 127 -12L59 136C153 66 224 66 101 89C394 120 394 204 326 66C363 290 267 324 394 262C87 412 87 506 141 368C96 568 115 598 87 537C160 652 196 672 133 628C274 701 324 701 232 691z" />
      <glyph unicode="T" horiz-adv-x="511" d="M562 689L540 608L350 608L265 0L171 0L256 608L62 608L74 689z" />
      <glyph unicode="U" horiz-adv-x="656" d="M561 218C441 -12 292 -12 541 78C80 63 80 182 156 -12C81 210 83 224 80 196L149 689L243 689L178 225C175 196 175 183 176 210C213 68 296 68 175 105C452 122 468 231 395 68L533 689L627 689z" />
      <glyph unicode="V" horiz-adv-x="550" d="M604 689L289 0L188 0L65 689L163 689L251 103L506 689z" />
      <glyph unicode="W" horiz-adv-x="820" d="M855 689L619 0L498 0L454 577L246 0L128 0L86 689L176 689L200 83L417 689L519 689L568 83L768 689z" />
      <glyph unicode="X" horiz-adv-x="534" d="M567 689L335 371L492 0L389 0L275 304L72 0L-33 0L225 367L83 689L186 689L285 430L463 689z" />
      <glyph unicode="Y" horiz-adv-x="544" d="M600 689L320 265L283 0L187 0L225 264L65 689L164 689L282 348L497 689z" />
      <glyph unicode="Z" horiz-adv-x="516" d="M-8 0L2 76L416 609L114 609L125 689L532 689L522 612L111 80L446 81L424 0z" />
      <glyph unicode="[" horiz-adv-x="316" d="M346 816L335 739L216 739L106 -40L225 -40L215 -116L10 -116L141 816z" />
      <glyph unicode="\" horiz-adv-x="514" d="M255 805L360 -87L282 -104L179 789z" />
      <glyph unicode="]" horiz-adv-x="316" d="M331 816L200 -116L-5 -116L5 -40L124 -40L234 739L115 739L126 816z" />
      <glyph unicode="^" horiz-adv-x="534" d="M389 840L532 527L436 527L339 760L174 527L76 527L308 840z" />
      <glyph unicode="_" horiz-adv-x="514" d="M-41 -142L-30 -63L452 -63L441 -142z" />
      <glyph unicode="`" horiz-adv-x="293" d="M140 801L323 687L294 638L95 724z" />
      <glyph unicode="a" horiz-adv-x="569" d="M331 539C453 524 516 494 396 539L462 120C460 102 460 98 460 109C468 60 494 51 460 74L468 -12C381 21 375 76 412 -5C278 -12 218 -12 332 21C50 67 50 190 111 -12C59 296 79 350 50 243C130 448 172 484 99 403C267 539 331 539 214 520zM333 466C256 451 228 423 291 466C180 359 167 317 200 395C148 232 148 189 154 275C179 61 237 61 148 102C331 95 378 158 291 61L419 449C367 466 333 466 391 461z" />
      <glyph unicode="b" horiz-adv-x="579" d="M367 539C528 462 528 332 467 539C518 223 499 171 528 277C448 75 406 40 479 119C310 -12 246 -12 364 5C137 -2 60 23 187 -12L161 739L253 750L215 475C311 539 367 539 263 517zM341 466C248 438 203 390 289 466L160 77C215 61 253 61 193 65C327 75 354 103 293 61C401 167 414 210 381 131C433 295 433 339 426 252C402 466 341 466 433 423z" />
      <glyph unicode="c" horiz-adv-x="472" d="M319 539C431 519 472 481 380 539L423 424C361 463 320 463 391 452C245 449 219 421 278 463C175 359 164 319 193 393C148 237 148 196 153 278C183 66 255 66 148 109C331 79 377 107 299 66L414 43C307 -12 249 -12 362 6C52 67 52 203 123 -12C61 304 80 356 52 253C128 451 168 486 98 408C258 539 319 539 208 521z" />
      <glyph unicode="d" horiz-adv-x="587" d="M560 738L456 0L376 0L377 87C284 -12 218 -12 338 24C51 67 51 197 111 -12C59 299 76 352 51 247C120 449 157 485 93 404C240 539 296 539 193 521C396 517 431 473 351 539L470 748zM313 466C241 451 217 422 273 466C174 356 164 314 192 392C148 230 148 190 153 272C180 61 236 61 148 103C339 100 391 183 297 61L422 402C361 466 313 466 394 444z" />
      <glyph unicode="e" horiz-adv-x="517" d="M490 405C364 220 148 196 490 270C188 65 262 65 150 108C355 80 403 114 311 65L442 52C319 -12 253 -12 382 9C52 67 52 202 125 -12C61 306 79 358 52 254C127 453 168 487 97 410C260 539 323 539 208 521C490 479 490 405 429 539zM153 266C394 316 394 402 318 284C372 466 322 466 394 434C167 378 153 266 220 466z" />
      <glyph unicode="f" horiz-adv-x="329" d="M332 676C246 650 240 597 274 676L230 527L357 527L337 456L220 456L160 29C142 -58 126 -87 153 -19C90 -140 65 -158 110 -116C6 -194 -37 -213 40 -176L-63 -144C-12 -119 3 -107 -35 -131C33 -78 44 -57 19 -95C63 -7 69 29 55 -35L129 456L36 456L46 527L139 527L150 602C227 750 329 750 162 692C410 738 453 712 377 750L418 651C364 676 332 676 393 667z" />
      <glyph unicode="g" horiz-adv-x="580" d="M337 539C460 524 523 494 403 539L450 12C341 -216 209 -216 426 -149C77 -195 27 -165 146 -216L62 -95C153 -137 204 -137 100 -117C345 -104 361 13 288 -137L370 80C276 0 220 0 328 30C51 76 51 198 114 0C61 309 81 361 51 254C132 455 175 489 101 413C271 539 337 539 217 522zM337 466C259 453 231 427 295 466C182 367 169 326 203 401C149 242 149 197 155 285C183 73 239 73 149 113C336 109 383 172 292 73L426 449C371 466 337 466 395 461z" />
      <glyph unicode="h" horiz-adv-x="581" d="M381 539C509 489 509 407 461 539C508 381 507 373 509 392L454 0L363 0L415 368C417 392 417 398 416 382C396 462 362 462 417 444C239 401 191 316 298 462L148 0L57 0L161 738L253 748L207 428C314 539 381 539 256 502z" />
      <glyph unicode="i" horiz-adv-x="279" d="M222 527L148 0L57 0L131 527zM198 655C139 680 139 712 162 655C169 780 208 780 139 750C267 756 267 723 244 780C236 655 198 655 267 684z" />
      <glyph unicode="j" horiz-adv-x="279" d="M-71 -145C-20 -119 -4 -107 -43 -132C25 -78 36 -57 11 -95C55 -7 61 29 47 -35L131 527L222 527L152 29C134 -58 118 -87 145 -19C82 -140 57 -158 102 -116C-1 -194 -45 -213 32 -176zM199 655C140 680 140 712 163 655C170 780 209 780 140 750C268 756 268 723 245 780C237 655 199 655 268 684z" />
      <glyph unicode="k" horiz-adv-x="545" d="M209 435C321 539 389 539 258 504C517 489 517 419 463 539C462 267 354 233 517 333L473 0L371 0L245 257C420 335 420 409 369 291C399 466 363 466 420 446C234 413 192 316 303 466L148 0L57 0L161 739L253 750z" />
      <glyph unicode="l" horiz-adv-x="288" d="M158 103C157 95 157 90 157 99C164 64 182 64 157 71C204 66 218 71 192 64L237 5C187 -12 164 -12 211 -6C67 21 67 87 102 -12C67 103 69 118 67 93L157 739L249 750z" />
      <glyph unicode="m" horiz-adv-x="848" d="M661 539C777 488 777 408 731 539C776 382 775 375 777 393L722 0L631 0L683 368C685 386 685 399 684 376C664 462 628 462 685 447C528 404 479 318 577 462L434 0L343 0L395 368C397 386 397 399 396 376C376 462 340 462 397 447C240 404 191 316 289 462L148 0L57 0L131 527L209 527L201 426C306 539 373 539 253 499C478 500 488 432 431 539C597 539 661 539 541 502z" />
      <glyph unicode="n" horiz-adv-x="580" d="M384 539C509 488 509 406 461 539C508 383 506 370 509 395L454 0L363 0L415 368C417 392 417 397 416 382C396 462 359 462 417 443C240 401 192 316 297 462L148 0L57 0L131 527L209 527L201 424C312 539 384 539 253 497z" />
      <glyph unicode="o" horiz-adv-x="578" d="M254 -12C52 70 52 206 124 -12C61 305 79 356 52 255C127 450 168 486 97 407C261 539 325 539 208 521C526 457 526 321 454 539C517 222 499 171 526 272C451 77 411 41 481 120C318 -12 254 -12 370 5zM257 62C333 76 359 105 299 62C403 169 414 210 385 134C430 291 430 331 424 251C394 465 322 465 430 420C246 450 220 421 280 465C175 357 164 316 194 392C148 235 148 196 153 275C184 62 257 62 148 106z" />
      <glyph unicode="p" horiz-adv-x="579" d="M131 527L209 527L207 461C309 539 367 539 259 518C528 462 528 332 467 539C518 224 499 172 528 278C449 75 407 40 479 119C312 -12 248 -12 365 5C182 -6 148 5 215 -12L118 -204L27 -216zM253 61C327 75 354 103 293 61C401 167 414 210 381 131C433 295 433 339 426 252C402 466 341 466 433 423C248 438 203 390 289 466L160 77C215 61 253 61 193 65z" />
      <glyph unicode="q" horiz-adv-x="576" d="M366 64C276 -12 218 -12 331 20C50 67 50 190 112 -12C59 296 79 350 50 243C130 448 172 484 99 403C267 539 331 539 214 520C451 527 519 494 396 539L418 -204L327 -216zM237 61C331 95 378 158 291 61L420 449C367 466 333 466 390 461C256 451 228 423 291 466C180 359 167 317 200 395C148 232 148 189 154 275C179 61 237 61 148 102z" />
      <glyph unicode="r" horiz-adv-x="381" d="M356 539C390 536 409 532 372 539L382 443C355 448 339 448 369 446C226 391 188 279 273 448L148 0L57 0L131 527L209 527L203 419C296 539 356 539 241 499z" />
      <glyph unicode="s" horiz-adv-x="461" d="M263 539C387 517 436 474 329 539L391 419C308 466 262 466 351 450C157 439 157 395 198 466C184 339 263 315 157 355C412 238 412 157 365 283C401 88 381 63 412 119C333 18 300 6 360 37C231 -12 193 -12 267 -5C50 13 -2 64 115 -12L50 117C142 62 197 62 93 80C316 104 316 148 281 62C312 180 306 191 316 166C288 211 272 219 299 201C234 235 205 245 256 227C64 317 64 389 103 275C71 437 86 460 64 413C123 502 153 517 100 483C219 539 263 539 183 531z" />
      <glyph unicode="t" horiz-adv-x="355" d="M173 139C171 117 171 113 171 125C186 65 218 65 171 79C263 72 294 87 242 65L324 23C248 -12 207 -12 287 0C80 31 80 109 125 -12C80 133 82 141 80 123L126 456L35 456L45 527L140 527L173 649L245 657L227 527L351 527L331 456L217 456z" />
      <glyph unicode="u" horiz-adv-x="576" d="M200 -12C70 36 70 118 118 -12C71 141 73 153 70 129L126 527L217 527L165 157C162 134 162 124 163 145C181 60 220 60 162 78C329 109 380 184 280 60L428 527L519 527L445 0L367 0L374 97C269 -12 200 -12 322 25z" />
      <glyph unicode="v" horiz-adv-x="486" d="M514 527L262 0L153 0L47 527L146 527L218 83L414 527z" />
      <glyph unicode="w" horiz-adv-x="711" d="M728 527L537 0L412 0L384 444L227 0L106 0L58 527L148 527L177 64L344 527L447 527L480 64L640 527z" />
      <glyph unicode="x" horiz-adv-x="480" d="M493 527L297 275L438 0L336 0L236 222L75 0L-32 0L189 283L64 527L165 527L249 332L387 527z" />
      <glyph unicode="y" horiz-adv-x="486" d="M270 -5C133 -198 -5 -213 215 -126L-9 -141C56 -126 78 -115 27 -135C119 -89 135 -71 100 -103C166 -30 182 0 150 -53L148 0L47 527L143 527L217 70L419 527L514 527z" />
      <glyph unicode="z" horiz-adv-x="431" d="M436 527L427 457L109 77L376 77L355 0L-13 0L-4 69L313 449L73 449L84 527z" />
      <glyph unicode="{" horiz-adv-x="316" d="M345 765C246 744 240 694 278 765L206 455C173 365 116 347 196 387C178 313 178 267 158 332C177 252 176 239 178 261L142 0C141 -9 141 -16 141 -4C165 -65 225 -65 141 -52L219 -136C56 -95 56 -15 110 -136C56 8 58 16 56 -1L89 238C91 260 91 264 90 251C75 311 27 311 91 298L38 387C114 412 122 468 90 387L153 690C168 754 182 775 158 726C216 811 243 821 196 796C306 836 351 836 270 831z" />
      <glyph unicode="|" horiz-adv-x="397" d="M316 807L189 -102L106 -102L233 807z" />
      <glyph unicode="}" horiz-adv-x="315" d="M-5 -65C93 -44 100 6 61 -65L134 245C166 334 224 353 143 313C162 386 162 433 181 367C162 447 164 461 162 438L198 700C199 709 199 716 198 704C175 765 115 765 199 752L121 836C284 795 284 715 229 836C283 691 282 684 284 701L251 462C249 440 249 436 249 448C265 389 313 389 249 401L302 313C226 288 218 232 250 313L187 10C172 -54 158 -75 181 -26C123 -111 96 -121 144 -96C33 -136 -11 -136 69 -131z" />
      <glyph unicode="~" horiz-adv-x="482" d="M317 250C259 263 230 286 282 250C193 312 175 312 207 303C117 293 91 256 145 312L37 289C125 384 183 384 77 352C235 372 266 350 215 384C305 323 325 323 290 331C387 343 407 373 358 323L460 339C373 250 317 250 420 279z" />
      <glyph unicode="&#xA0;" horiz-adv-x="259" />
      <glyph unicode="&#xA1;" horiz-adv-x="235" d="M137 356C75 383 75 419 101 356C107 495 149 495 75 461C212 468 212 432 186 495C178 356 137 356 212 389zM160 247L107 -202L6 -202L79 247z" />
      <glyph unicode="&#xA2;" horiz-adv-x="472" d="M320 463C245 449 219 421 278 463C175 359 164 319 193 393C148 237 148 196 153 278C183 66 255 66 148 109C331 79 377 107 299 66L414 43C321 -7 272 -11 368 11L252 -154L173 -154L194 -6C52 89 52 203 103 15C59 295 75 343 52 249C114 431 147 467 90 390C221 525 271 535 179 503L292 684L370 684L349 537C438 513 472 481 397 531L423 424C361 463 320 463 391 452z" />
      <glyph unicode="&#xA3;" horiz-adv-x="514" d="M361 679C490 651 530 594 435 679L468 551C410 604 364 604 441 588C252 563 243 491 297 604L228 382L433 382L424 322L219 322L202 201C175 102 126 76 192 133L441 76L419 0L2 0L10 74C53 92 66 102 34 82C89 125 96 141 79 112C108 179 112 208 102 157L128 322L63 322L72 382L137 382L153 496C246 679 361 679 169 606z" />
      <glyph unicode="&#xA4;" horiz-adv-x="560" d="M492 341C479 254 455 218 492 295L531 143L476 88L398 164C322 132 278 132 362 142C196 143 161 166 235 132L84 88L29 143L107 221C71 296 71 341 83 256C82 424 106 460 71 384L29 540L84 595L162 515C233 549 278 549 194 537C362 538 398 517 322 549L476 595L531 540L455 463C492 387 492 341 479 428zM281 205C403 255 403 342 359 205C359 479 281 479 403 428C158 428 158 342 202 479C202 205 281 205 158 255z" />
      <glyph unicode="&#xA5;" horiz-adv-x="530" d="M583 669L348 346L460 346L451 284L315 284L302 194L438 194L430 133L294 133L275 0L181 0L200 133L63 133L71 194L209 194L222 284L84 284L93 346L206 346L62 669L162 669L282 374L486 669z" />
      <glyph unicode="&#xA6;" horiz-adv-x="397" d="M316 807L265 443L182 443L233 807zM240 262L189 -102L106 -102L157 262z" />
      <glyph unicode="&#xA7;" horiz-adv-x="527" d="M325 443C463 367 463 306 418 411C433 207 369 170 463 248C410 116 410 79 396 146C402 29 388 6 410 53C351 -35 320 -49 374 -16C250 -71 204 -71 289 -63C82 -50 38 -20 140 -71L78 40C159 1 209 1 115 14C319 31 319 75 287 1C316 101 310 111 319 89C293 128 278 136 304 120C241 152 212 162 263 143C75 233 75 297 113 195C107 402 173 436 75 355C130 490 130 525 144 460C214 677 325 677 130 621C448 658 497 621 391 677L457 566C375 606 325 606 414 594C220 577 220 533 250 606C243 471 325 443 220 491zM315 203C375 259 375 293 359 235C353 354 284 378 375 331C236 396 222 404 256 387C165 346 165 309 178 370C183 248 242 230 165 270C293 212 315 203 268 221z" />
      <glyph unicode="&#xA8;" horiz-adv-x="384" d="M146 654C93 675 93 705 115 654C120 767 156 767 93 741C209 745 209 716 186 767C182 654 146 654 209 680zM354 654C301 675 301 705 323 654C328 767 364 767 301 741C417 745 417 716 394 767C390 654 354 654 417 680z" />
      <glyph unicode="&#xA9;" horiz-adv-x="810" d="M430 748C539 734 587 707 487 748C672 643 700 595 635 680C742 494 742 434 728 547C728 320 700 272 742 374C635 187 587 161 672 224C487 121 430 121 539 134C320 134 272 161 372 121C186 224 158 272 224 187C116 374 116 434 130 320C130 547 158 595 116 494C224 680 272 707 186 643C372 748 430 748 320 734zM430 696C338 685 300 663 382 696C232 610 210 570 262 641C177 484 177 434 188 530C188 338 210 299 177 383C262 229 300 207 232 259C382 174 430 174 338 185C520 185 558 207 477 174C627 259 649 299 596 229C682 383 682 434 671 338C671 530 649 570 682 484C596 641 558 663 627 610C477 696 430 696 520 685zM432 625C513 611 549 585 480 625L514 538C462 565 436 565 488 556C345 523 345 435 381 565C380 308 436 308 345 351C493 317 520 339 469 308L552 291C477 245 433 245 517 260C269 315 269 435 334 245C276 509 291 538 269 475C325 588 350 603 305 566C402 625 432 625 374 617z" />
      <glyph unicode="&#xAA;" horiz-adv-x="494" d="M202 271C79 318 79 385 124 271C136 525 284 525 79 463L343 525L346 545C348 565 348 569 347 557C327 620 278 620 348 606C208 612 162 598 246 620L145 662C247 689 296 689 197 680C436 652 436 575 390 689C435 557 435 551 436 565L412 381C410 367 410 364 410 373C417 338 436 332 410 348L411 272C341 295 332 330 367 276C256 271 202 271 299 290zM224 337C297 356 325 394 264 337L336 470L284 470C171 435 171 389 202 470C188 337 224 337 171 354zM25 0L36 77L408 77L397 0z" />
      <glyph unicode="&#xAB;" horiz-adv-x="569" d="M259 535L314 497L150 287L255 77L198 39L53 255L60 318zM494 535L549 497L385 287L490 77L433 39L288 255L295 318z" />
      <glyph unicode="&#xAC;" horiz-adv-x="494" d="M447 361L416 141L329 141L349 284L64 284L75 361z" />
      <glyph unicode="&#xAD;" horiz-adv-x="397" d="M59 274L70 352L351 352L340 274z" />
      <glyph unicode="&#xAE;" horiz-adv-x="641" d="M352 750C442 738 481 715 399 750C551 661 573 622 520 692C607 539 607 493 595 582C595 403 573 364 607 446C520 294 481 272 551 325C399 238 352 238 442 249C263 249 225 272 306 238C155 325 133 364 186 294C100 446 100 493 111 403C111 582 133 622 100 539C186 692 225 715 155 661C306 750 352 750 263 738zM352 287C425 295 455 313 390 287C509 355 526 387 485 331C552 453 552 493 543 418C543 567 526 599 552 532C485 656 455 674 509 631C390 701 352 701 425 692C281 692 251 674 314 701C197 631 180 599 221 656C155 532 155 493 163 567C163 418 180 387 155 453C221 331 251 313 197 355C314 287 352 287 281 295zM461 551C434 486 396 474 461 512L470 359L403 359L342 465L318 465L318 359L261 359L261 635L339 635C461 607 461 551 420 635zM318 509L348 509C402 523 402 551 384 509C384 591 346 591 402 579L318 591z" />
      <glyph unicode="&#xAF;" horiz-adv-x="331" d="M358 667L87 667L96 736L367 736z" />
      <glyph unicode="&#xB0;" horiz-adv-x="517" d="M235 381C92 433 92 519 151 381C99 583 115 611 92 552C152 661 180 677 131 639C237 701 271 701 207 693C414 648 414 563 355 701C406 499 390 471 414 529C353 421 326 405 374 443C268 381 235 381 298 389zM237 444C339 493 339 564 299 444C313 638 269 638 339 613C167 588 167 518 206 638C193 444 237 444 167 468z" />
      <glyph unicode="&#xB1;" horiz-adv-x="494" d="M24 0L35 77L407 77L396 0zM328 542L307 392L451 392L440 316L296 316L275 167L191 167L212 316L69 316L80 392L223 392L244 542z" />
      <glyph unicode="&#xB2;" horiz-adv-x="394" d="M259 746C382 702 382 638 336 746C373 582 356 556 382 610C317 505 291 483 338 530C226 427 173 384 265 460L358 384L341 322L74 322L82 382L121 416C197 482 221 504 164 452C264 549 280 572 245 526C303 616 303 637 295 594C283 684 250 684 303 667C189 669 157 637 215 684L111 680C203 746 259 746 153 724z" />
      <glyph unicode="&#xB3;" horiz-adv-x="394" d="M260 746C383 704 383 648 337 746C345 556 283 542 383 592C369 506 369 457 333 536C361 406 347 384 369 430C312 344 286 332 332 362C232 313 202 313 260 319C95 335 66 375 143 313L115 413C166 374 202 374 139 385C291 407 291 461 255 374C269 512 221 512 291 499L185 512L202 568L223 568C306 599 306 642 272 568C285 687 251 687 306 671C189 675 156 651 217 687L121 695C209 746 260 746 163 729z" />
      <glyph unicode="&#xB4;" horiz-adv-x="294" d="M301 801L331 724L111 638L90 687z" />
      <glyph unicode="&#xB5;" horiz-adv-x="582" d="M470 177C463 111 463 81 465 143C465 24 470 -2 463 52L386 -10C373 46 375 85 375 23C282 -12 218 -12 335 29C156 0 138 22 183 -12C141 2 141 -11 140 13C138 -64 133 -99 141 -35L119 -202L27 -213L131 527L222 527L169 153C167 133 167 129 167 141C189 64 233 64 167 85C337 97 378 163 289 64L428 527L519 527L470 177z" />
      <glyph unicode="&#xB6;" horiz-adv-x="728" d="M649 689L524 -202L442 -215L558 615L439 615L326 -202L244 -215L314 283C118 355 118 454 183 289C129 544 152 580 118 502C207 643 249 661 175 616C337 689 391 689 290 679z" />
      <glyph unicode="&#xB7;" horiz-adv-x="239" d="M120 241C58 268 58 304 84 241C90 380 132 380 58 346C195 353 195 317 169 380C161 241 120 241 195 274z" />
      <glyph unicode="&#xB8;" horiz-adv-x="272" d="M103 -56C185 -93 185 -137 156 -61C136 -241 56 -241 185 -195C-13 -232 -37 -214 18 -241L-6 -165C28 -181 56 -181 12 -175C110 -164 110 -138 88 -181C90 -99 28 -99 110 -108L56 16L115 16z" />
      <glyph unicode="&#xB9;" horiz-adv-x="394" d="M337 739L278 322L202 322L249 660L145 603L118 656L268 739z" />
      <glyph unicode="&#xBA;" horiz-adv-x="494" d="M304 689C472 625 472 519 412 689C463 430 445 392 472 472C401 325 368 303 427 354C296 271 252 271 334 281C83 334 83 441 144 271C92 529 110 567 83 487C154 634 188 656 128 605C260 689 304 689 221 678zM302 620C176 540 176 436 216 620C202 340 254 340 176 372C379 421 379 525 338 340C353 620 302 620 379 588zM24 0L35 77L407 77L396 0z" />
      <glyph unicode="&#xBB;" horiz-adv-x="569" d="M141 535L287 318L280 255L79 39L26 77L189 287L85 497zM376 535L522 318L515 255L314 39L261 77L424 287L320 497z" />
      <glyph unicode="&#xBC;" horiz-adv-x="914" d="M330 689L271 272L195 272L242 610L138 553L111 606L261 689zM696 750L752 721L239 -78L182 -49zM858 156L849 96L798 96L784 0L709 0L722 96L538 96L545 150L710 424L773 399L627 156L731 156L753 261L821 261L806 156z" />
      <glyph unicode="&#xBD;" horiz-adv-x="914" d="M330 689L271 272L195 272L242 610L138 553L111 606L261 689zM696 750L752 721L239 -78L182 -49zM734 424C857 380 857 316 811 424C848 260 831 234 857 288C792 183 766 161 813 208C701 105 648 62 740 138L833 62L816 0L549 0L557 60L596 94C672 160 696 182 639 130C739 227 755 250 720 204C778 294 778 315 770 272C758 362 725 362 778 345C664 347 632 315 690 362L586 358C678 424 734 424 628 402z" />
      <glyph unicode="&#xBE;" horiz-adv-x="914" d="M253 696C376 654 376 598 330 696C338 506 276 492 376 542C362 456 362 407 326 486C354 356 340 334 362 380C305 294 279 282 325 312C225 263 195 263 253 269C88 285 59 325 136 263L108 363C159 324 195 324 132 335C284 357 284 411 248 324C262 462 214 462 284 449L178 462L195 518L216 518C299 549 299 592 265 518C278 637 244 637 299 621C182 625 149 601 210 637L114 645C202 696 253 696 156 679zM696 750L752 721L239 -78L182 -49zM858 156L849 96L798 96L784 0L709 0L722 96L538 96L545 150L710 424L773 399L627 156L731 156L753 261L821 261L806 156z" />
      <glyph unicode="&#xBF;" horiz-adv-x="454" d="M272 507C334 480 334 444 308 507C301 368 260 368 334 401C197 395 197 431 222 368C230 507 272 507 197 473zM155 -216C-17 -155 -17 -75 44 -216C-10 -14 2 8 -17 -41C30 47 48 59 14 30C90 86 120 102 66 71C164 125 178 135 144 114C203 157 213 171 192 145C228 203 228 223 223 185C227 244 225 252 228 234L307 266C317 229 317 216 312 251C311 161 299 141 317 186C272 104 255 92 287 121C215 66 187 52 237 80C142 27 128 17 162 38C102 -4 92 -19 114 7C78 -52 78 -73 82 -34C109 -140 163 -140 78 -117C267 -115 314 -66 215 -140L371 -119C236 -216 155 -216 308 -183z" />
      <glyph unicode="&#xC0;" horiz-adv-x="567" d="M427 0L400 173L141 173L65 0L-32 0L284 689L403 689L524 0zM174 250L388 250L332 610zM294 907L480 803L451 754L252 830z" />
      <glyph unicode="&#xC1;" horiz-adv-x="567" d="M427 0L400 173L141 173L65 0L-32 0L284 689L403 689L524 0zM174 250L388 250L332 610zM451 908L481 831L261 755L242 804z" />
      <glyph unicode="&#xC2;" horiz-adv-x="567" d="M427 0L400 173L141 173L65 0L-32 0L284 689L403 689L524 0zM174 250L388 250L332 610zM229 759L192 804L341 914L401 914L520 804L479 759L364 840z" />
      <glyph unicode="&#xC3;" horiz-adv-x="567" d="M427 0L400 173L141 173L65 0L-32 0L284 689L403 689L524 0zM174 250L388 250L332 610zM422 782C372 793 348 812 391 782C323 830 311 830 332 824C269 814 248 782 287 830L196 814C270 900 313 900 231 871C356 889 382 871 342 900C408 852 420 852 399 857C459 866 481 898 441 852L535 866C462 782 422 782 501 810z" />
      <glyph unicode="&#xC4;" horiz-adv-x="567" d="M427 0L400 173L141 173L65 0L-32 0L284 689L403 689L524 0zM174 250L388 250L332 610zM258 780C205 801 205 831 227 780C232 893 268 893 205 867C321 871 321 842 298 893C294 780 258 780 321 806zM466 780C413 801 413 831 435 780C440 893 476 893 413 867C529 871 529 842 506 893C502 780 466 780 529 806z" />
      <glyph unicode="&#xC5;" horiz-adv-x="567" d="M427 0L400 173L141 173L65 0L-32 0L284 689L403 689L524 0zM174 250L388 250L332 610zM380 962C483 920 483 866 441 962C428 750 359 750 483 802C256 791 256 846 297 750C310 962 380 962 256 910zM378 912C317 883 317 847 339 912C333 800 361 800 317 817C423 831 423 866 399 800C406 912 378 912 423 895z" />
      <glyph unicode="&#xC6;" horiz-adv-x="808" d="M753 613L446 613L470 387L723 387L713 311L479 311L504 76L729 76L718 0L421 0L405 173L139 173L51 0L-49 0L317 689L775 689zM179 250L398 250L364 613z" />
      <glyph unicode="&#xC7;" horiz-adv-x="555" d="M398 623C296 604 260 567 342 623C199 484 183 429 224 530C160 317 160 260 167 373C218 68 312 68 160 128C413 89 467 127 372 68L509 63C400 -5 336 -11 458 19L328 -56C410 -93 410 -137 381 -61C361 -241 281 -241 410 -195C212 -232 188 -214 243 -241L219 -165C253 -181 281 -181 237 -175C335 -164 335 -138 313 -181C315 -99 253 -99 335 -108L275 -10C61 102 61 268 141 3C72 401 96 468 61 334C157 590 207 634 120 534C319 701 394 701 257 678C529 676 579 630 471 701L525 577C444 623 398 623 483 609z" />
      <glyph unicode="&#xC8;" horiz-adv-x="529" d="M528 689L507 613L242 613L210 388L440 388L430 312L200 312L167 76L450 76L439 0L62 0L159 689zM297 907L483 803L454 754L255 830z" />
      <glyph unicode="&#xC9;" horiz-adv-x="529" d="M528 689L507 613L242 613L210 388L440 388L430 312L200 312L167 76L450 76L439 0L62 0L159 689zM454 908L484 831L264 755L245 804z" />
      <glyph unicode="&#xCA;" horiz-adv-x="529" d="M528 689L507 613L242 613L210 388L440 388L430 312L200 312L167 76L450 76L439 0L62 0L159 689zM232 759L195 804L344 914L404 914L523 804L482 759L367 840z" />
      <glyph unicode="&#xCB;" horiz-adv-x="529" d="M528 689L507 613L242 613L210 388L440 388L430 312L200 312L167 76L450 76L439 0L62 0L159 689zM261 780C208 801 208 831 230 780C235 893 271 893 208 867C324 871 324 842 301 893C297 780 261 780 324 806zM469 780C416 801 416 831 438 780C443 893 479 893 416 867C532 871 532 842 509 893C505 780 469 780 532 806z" />
      <glyph unicode="&#xCC;" horiz-adv-x="292" d="M253 689L156 0L62 0L159 689zM156 907L342 803L313 754L114 830z" />
      <glyph unicode="&#xCD;" horiz-adv-x="292" d="M253 689L156 0L62 0L159 689zM313 908L343 831L123 755L104 804z" />
      <glyph unicode="&#xCE;" horiz-adv-x="292" d="M253 689L156 0L62 0L159 689zM91 759L54 804L203 914L263 914L382 804L341 759L226 840z" />
      <glyph unicode="&#xCF;" horiz-adv-x="292" d="M253 689L156 0L62 0L159 689zM120 780C67 801 67 831 89 780C94 893 130 893 67 867C183 871 183 842 160 893C156 780 120 780 183 806zM328 780C275 801 275 831 297 780C302 893 338 893 275 867C391 871 391 842 368 893C364 780 328 780 391 806z" />
      <glyph unicode="&#xD0;" horiz-adv-x="649" d="M310 689C611 625 611 428 492 689C598 278 573 214 611 350C507 97 451 58 547 149C324 0 238 0 395 19L72 0L117 318L29 318L38 388L127 388L169 689L310 689zM252 75C365 92 405 127 314 75C472 205 489 259 444 161C515 369 515 430 506 312C506 519 489 546 515 480C449 590 421 599 471 572C361 613 324 613 393 608L252 613L221 388L378 388L369 318L211 318L177 75L252 75z" />
      <glyph unicode="&#xD1;" horiz-adv-x="677" d="M541 0L418 0L221 607C211 429 195 313 220 527L151 0L62 0L159 689L283 689L481 81C485 230 496 316 481 171L549 689L638 689zM488 782C438 793 414 812 457 782C389 830 377 830 398 824C335 814 314 782 353 830L262 814C336 900 379 900 297 871C422 889 448 871 408 900C474 852 486 852 465 857C525 866 547 898 507 852L601 866C528 782 488 782 567 810z" />
      <glyph unicode="&#xD2;" horiz-adv-x="686" d="M402 701C648 599 648 421 554 701C636 286 613 220 648 353C553 98 503 54 590 154C387 -12 308 -12 452 10C61 87 61 265 156 -12C72 397 95 464 61 331C155 586 206 632 118 530C322 701 402 701 257 678zM398 623C293 604 257 566 340 623C196 481 181 426 221 528C159 316 159 262 166 371C209 66 311 66 159 131C416 85 452 123 369 66C513 208 528 263 488 161C550 373 550 428 542 318C499 623 398 623 550 558zM357 907L543 803L514 754L315 830z" />
      <glyph unicode="&#xD3;" horiz-adv-x="686" d="M402 701C648 599 648 421 554 701C636 286 613 220 648 353C553 98 503 54 590 154C387 -12 308 -12 452 10C61 87 61 265 156 -12C72 397 95 464 61 331C155 586 206 632 118 530C322 701 402 701 257 678zM398 623C293 604 257 566 340 623C196 481 181 426 221 528C159 316 159 262 166 371C209 66 311 66 159 131C416 85 452 123 369 66C513 208 528 263 488 161C550 373 550 428 542 318C499 623 398 623 550 558zM514 908L544 831L324 755L305 804z" />
      <glyph unicode="&#xD4;" horiz-adv-x="686" d="M402 701C648 599 648 421 554 701C636 286 613 220 648 353C553 98 503 54 590 154C387 -12 308 -12 452 10C61 87 61 265 156 -12C72 397 95 464 61 331C155 586 206 632 118 530C322 701 402 701 257 678zM398 623C293 604 257 566 340 623C196 481 181 426 221 528C159 316 159 262 166 371C209 66 311 66 159 131C416 85 452 123 369 66C513 208 528 263 488 161C550 373 550 428 542 318C499 623 398 623 550 558zM292 759L255 804L404 914L464 914L583 804L542 759L427 840z" />
      <glyph unicode="&#xD5;" horiz-adv-x="686" d="M402 701C648 599 648 421 554 701C636 286 613 220 648 353C553 98 503 54 590 154C387 -12 308 -12 452 10C61 87 61 265 156 -12C72 397 95 464 61 331C155 586 206 632 118 530C322 701 402 701 257 678zM398 623C293 604 257 566 340 623C196 481 181 426 221 528C159 316 159 262 166 371C209 66 311 66 159 131C416 85 452 123 369 66C513 208 528 263 488 161C550 373 550 428 542 318C499 623 398 623 550 558zM485 782C435 793 411 812 454 782C386 830 374 830 395 824C332 814 311 782 350 830L259 814C333 900 376 900 294 871C419 889 445 871 405 900C471 852 483 852 462 857C522 866 544 898 504 852L598 866C525 782 485 782 564 810z" />
      <glyph unicode="&#xD6;" horiz-adv-x="686" d="M402 701C648 599 648 421 554 701C636 286 613 220 648 353C553 98 503 54 590 154C387 -12 308 -12 452 10C61 87 61 265 156 -12C72 397 95 464 61 331C155 586 206 632 118 530C322 701 402 701 257 678zM398 623C293 604 257 566 340 623C196 481 181 426 221 528C159 316 159 262 166 371C209 66 311 66 159 131C416 85 452 123 369 66C513 208 528 263 488 161C550 373 550 428 542 318C499 623 398 623 550 558zM321 780C268 801 268 831 290 780C295 893 331 893 268 867C384 871 384 842 361 893C357 780 321 780 384 806zM529 780C476 801 476 831 498 780C503 893 539 893 476 867C592 871 592 842 569 893C565 780 529 780 592 806z" />
      <glyph unicode="&#xD7;" horiz-adv-x="495" d="M397 486L447 429L311 308L415 184L352 129L250 252L111 129L61 186L197 306L93 431L156 486L258 362z" />
      <glyph unicode="&#xD8;" horiz-adv-x="686" d="M539 665C648 537 648 421 609 619C636 286 613 220 648 353C553 98 503 54 590 154C387 -12 308 -12 452 10C260 -9 241 -5 282 -12L188 -127L111 -106L169 25C61 151 61 265 99 69C72 397 95 464 61 331C155 586 206 632 118 530C322 701 402 701 257 678C448 698 467 694 426 701L522 819L599 798L539 665zM398 623C293 603 257 565 340 623C196 480 181 424 221 527C159 311 159 255 166 368C176 125 211 96 159 178L442 619C414 623 398 623 429 621zM311 66C416 85 452 124 369 66C513 210 528 266 488 162C550 380 550 438 542 322C532 567 496 595 550 514L266 70C293 66 311 66 278 67z" />
      <glyph unicode="&#xD9;" horiz-adv-x="656" d="M561 218C441 -12 292 -12 541 78C80 63 80 182 156 -12C81 210 83 224 80 196L149 689L243 689L178 225C175 196 175 183 176 210C213 68 296 68 175 105C452 122 468 231 395 68L533 689L627 689zM338 907L524 803L495 754L296 830z" />
      <glyph unicode="&#xDA;" horiz-adv-x="656" d="M561 218C441 -12 292 -12 541 78C80 63 80 182 156 -12C81 210 83 224 80 196L149 689L243 689L178 225C175 196 175 183 176 210C213 68 296 68 175 105C452 122 468 231 395 68L533 689L627 689zM495 908L525 831L305 755L286 804z" />
      <glyph unicode="&#xDB;" horiz-adv-x="656" d="M561 218C441 -12 292 -12 541 78C80 63 80 182 156 -12C81 210 83 224 80 196L149 689L243 689L178 225C175 196 175 183 176 210C213 68 296 68 175 105C452 122 468 231 395 68L533 689L627 689zM273 759L236 804L385 914L445 914L564 804L523 759L408 840z" />
      <glyph unicode="&#xDC;" horiz-adv-x="656" d="M561 218C441 -12 292 -12 541 78C80 63 80 182 156 -12C81 210 83 224 80 196L149 689L243 689L178 225C175 196 175 183 176 210C213 68 296 68 175 105C452 122 468 231 395 68L533 689L627 689zM302 780C249 801 249 831 271 780C276 893 312 893 249 867C365 871 365 842 342 893C338 780 302 780 365 806zM510 780C457 801 457 831 479 780C484 893 520 893 457 867C573 871 573 842 550 893C546 780 510 780 573 806z" />
      <glyph unicode="&#xDD;" horiz-adv-x="544" d="M600 689L320 265L283 0L187 0L225 264L65 689L164 689L282 348L497 689zM442 908L472 831L252 755L233 804z" />
      <glyph unicode="&#xDE;" horiz-adv-x="575" d="M319 571C559 510 559 385 472 571C549 299 530 260 559 341C479 189 435 164 511 221C333 127 262 127 391 139L174 127L156 0L62 0L159 689L253 689L236 571L319 571zM264 202C459 279 459 385 404 202C409 497 313 497 459 466L226 497L184 202L264 202z" />
      <glyph unicode="&#xDF;" horiz-adv-x="587" d="M-71 -144C-20 -119 -4 -107 -43 -131C25 -78 36 -57 11 -95C55 -7 61 29 47 -35L133 542C231 750 357 750 150 675C520 695 520 621 458 750C490 529 438 492 520 559C384 448 384 422 402 465C401 377 440 344 384 394C475 313 488 300 459 328C512 269 521 248 501 286C535 203 535 175 530 227C527 115 512 87 535 145C474 34 444 16 496 58C377 -12 335 -12 414 -2C244 1 214 19 287 -12L247 81C300 62 328 62 268 70C443 116 443 172 406 62C417 253 367 299 443 225C297 363 297 409 320 337C321 486 369 524 297 462C433 576 433 618 411 554C401 678 356 678 433 658C236 629 223 536 282 678L152 29C134 -58 118 -87 145 -19C82 -140 57 -158 102 -116C-1 -194 -45 -213 32 -176z" />
      <glyph unicode="&#xE0;" horiz-adv-x="569" d="M331 539C453 524 516 494 396 539L462 120C460 102 460 98 460 109C468 60 494 51 460 74L468 -12C381 21 375 76 412 -5C278 -12 218 -12 332 21C50 67 50 190 111 -12C59 296 79 350 50 243C130 448 172 484 99 403C267 539 331 539 214 520zM333 466C256 451 228 423 291 466C180 359 167 317 200 395C148 232 148 189 154 275C179 61 237 61 148 102C331 95 378 158 291 61L419 449C367 466 333 466 391 461zM304 801L487 687L458 638L259 724z" />
      <glyph unicode="&#xE1;" horiz-adv-x="569" d="M331 539C453 524 516 494 396 539L462 120C460 102 460 98 460 109C468 60 494 51 460 74L468 -12C381 21 375 76 412 -5C278 -12 218 -12 332 21C50 67 50 190 111 -12C59 296 79 350 50 243C130 448 172 484 99 403C267 539 331 539 214 520zM333 466C256 451 228 423 291 466C180 359 167 317 200 395C148 232 148 189 154 275C179 61 237 61 148 102C331 95 378 158 291 61L419 449C367 466 333 466 391 461zM456 801L486 724L266 638L245 687z" />
      <glyph unicode="&#xE2;" horiz-adv-x="569" d="M331 539C453 524 516 494 396 539L462 120C460 102 460 98 460 109C468 60 494 51 460 74L468 -12C381 21 375 76 412 -5C278 -12 218 -12 332 21C50 67 50 190 111 -12C59 296 79 350 50 243C130 448 172 484 99 403C267 539 331 539 214 520zM333 466C256 451 228 423 291 466C180 359 167 317 200 395C148 232 148 189 154 275C179 61 237 61 148 102C331 95 378 158 291 61L419 449C367 466 333 466 391 461zM230 634L193 679L342 792L402 792L521 679L477 634L364 718z" />
      <glyph unicode="&#xE3;" horiz-adv-x="569" d="M331 539C453 524 516 494 396 539L462 120C460 102 460 98 460 109C468 60 494 51 460 74L468 -12C381 21 375 76 412 -5C278 -12 218 -12 332 21C50 67 50 190 111 -12C59 296 79 350 50 243C130 448 172 484 99 403C267 539 331 539 214 520zM333 466C256 451 228 423 291 466C180 359 167 317 200 395C148 232 148 189 154 275C179 61 237 61 148 102C331 95 378 158 291 61L419 449C367 466 333 466 391 461zM421 656C371 667 347 686 390 656C322 704 310 704 331 698C268 688 247 656 286 704L195 688C269 774 312 774 230 745C355 763 381 745 341 774C407 726 419 726 398 731C458 740 480 772 440 726L534 740C461 656 421 656 500 684z" />
      <glyph unicode="&#xE4;" horiz-adv-x="569" d="M331 539C453 524 516 494 396 539L462 120C460 102 460 98 460 109C468 60 494 51 460 74L468 -12C381 21 375 76 412 -5C278 -12 218 -12 332 21C50 67 50 190 111 -12C59 296 79 350 50 243C130 448 172 484 99 403C267 539 331 539 214 520zM333 466C256 451 228 423 291 466C180 359 167 317 200 395C148 232 148 189 154 275C179 61 237 61 148 102C331 95 378 158 291 61L419 449C367 466 333 466 391 461zM254 654C201 675 201 705 223 654C228 767 264 767 201 741C317 745 317 716 294 767C290 654 254 654 317 680zM462 654C409 675 409 705 431 654C436 767 472 767 409 741C525 745 525 716 502 767C498 654 462 654 525 680z" />
      <glyph unicode="&#xE5;" horiz-adv-x="569" d="M331 539C453 524 516 494 396 539L462 120C460 102 460 98 460 109C468 60 494 51 460 74L468 -12C381 21 375 76 412 -5C278 -12 218 -12 332 21C50 67 50 190 111 -12C59 296 79 350 50 243C130 448 172 484 99 403C267 539 331 539 214 520zM333 466C256 451 228 423 291 466C180 359 167 317 200 395C148 232 148 189 154 275C179 61 237 61 148 102C331 95 378 158 291 61L419 449C367 466 333 466 391 461zM377 836C480 794 480 740 438 836C425 624 356 624 480 676C253 665 253 720 294 624C307 836 377 836 253 784zM375 786C314 757 314 721 336 786C330 674 358 674 314 691C420 705 420 740 396 674C403 786 375 786 420 769z" />
      <glyph unicode="&#xE6;" horiz-adv-x="817" d="M285 539C417 511 443 456 365 539C545 539 623 539 483 505C790 479 790 405 729 539C774 320 744 292 790 357C674 243 625 230 714 264C515 207 443 200 575 217C488 65 562 65 444 105C655 80 703 114 611 65L742 52C619 -12 553 -12 682 9C411 21 379 81 470 -12C262 -12 185 -12 323 14C28 43 28 127 87 -12C105 308 284 308 28 231L365 308C377 360 385 384 370 335C336 464 271 464 382 432C190 456 132 438 223 464L114 507C228 539 285 539 171 528zM622 466C466 379 449 270 522 466C551 283 585 292 505 276C646 314 665 332 619 301C694 372 694 402 684 349C672 466 622 466 694 434zM292 245C128 210 128 126 182 245C152 57 201 57 128 80C309 87 357 151 261 57C355 174 355 204 355 157C355 240 356 245 355 226z" />
      <glyph unicode="&#xE7;" horiz-adv-x="472" d="M320 463C245 449 219 421 278 463C175 359 164 319 193 393C148 237 148 196 153 278C183 66 255 66 148 109C331 79 377 107 299 66L414 43C317 -8 265 -12 367 10L258 -56C340 -93 340 -137 311 -61C291 -241 211 -241 340 -195C142 -232 118 -214 173 -241L149 -165C183 -181 211 -181 167 -175C265 -164 265 -138 243 -181C245 -99 183 -99 265 -108L205 -8C52 84 52 203 107 9C61 304 80 356 52 253C128 451 168 486 98 408C258 539 319 539 208 521C431 519 472 481 380 539L423 424C361 463 320 463 391 452z" />
      <glyph unicode="&#xE8;" horiz-adv-x="517" d="M490 405C364 220 148 196 490 270C188 65 262 65 150 108C355 80 403 114 311 65L442 52C319 -12 253 -12 382 9C52 67 52 202 125 -12C61 306 79 358 52 254C127 453 168 487 97 410C260 539 323 539 208 521C490 479 490 405 429 539zM153 266C394 316 394 402 318 284C372 466 322 466 394 434C167 378 153 266 220 466zM280 801L463 687L434 638L235 724z" />
      <glyph unicode="&#xE9;" horiz-adv-x="517" d="M490 405C364 220 148 196 490 270C188 65 262 65 150 108C355 80 403 114 311 65L442 52C319 -12 253 -12 382 9C52 67 52 202 125 -12C61 306 79 358 52 254C127 453 168 487 97 410C260 539 323 539 208 521C490 479 490 405 429 539zM153 266C394 316 394 402 318 284C372 466 322 466 394 434C167 378 153 266 220 466zM432 801L462 724L242 638L221 687z" />
      <glyph unicode="&#xEA;" horiz-adv-x="517" d="M490 405C364 220 148 196 490 270C188 65 262 65 150 108C355 80 403 114 311 65L442 52C319 -12 253 -12 382 9C52 67 52 202 125 -12C61 306 79 358 52 254C127 453 168 487 97 410C260 539 323 539 208 521C490 479 490 405 429 539zM153 266C394 316 394 402 318 284C372 466 322 466 394 434C167 378 153 266 220 466zM206 634L169 679L318 792L378 792L497 679L453 634L340 718z" />
      <glyph unicode="&#xEB;" horiz-adv-x="517" d="M490 405C364 220 148 196 490 270C188 65 262 65 150 108C355 80 403 114 311 65L442 52C319 -12 253 -12 382 9C52 67 52 202 125 -12C61 306 79 358 52 254C127 453 168 487 97 410C260 539 323 539 208 521C490 479 490 405 429 539zM153 266C394 316 394 402 318 284C372 466 322 466 394 434C167 378 153 266 220 466zM230 654C177 675 177 705 199 654C204 767 240 767 177 741C293 745 293 716 270 767C266 654 230 654 293 680zM438 654C385 675 385 705 407 654C412 767 448 767 385 741C501 745 501 716 478 767C474 654 438 654 501 680z" />
      <glyph unicode="&#xEC;" horiz-adv-x="279" d="M222 527L148 0L57 0L131 527zM142 801L325 687L296 638L97 724z" />
      <glyph unicode="&#xED;" horiz-adv-x="279" d="M222 527L148 0L57 0L131 527zM294 801L324 724L104 638L83 687z" />
      <glyph unicode="&#xEE;" horiz-adv-x="279" d="M222 527L148 0L57 0L131 527zM68 634L31 679L180 792L240 792L359 679L315 634L202 718z" />
      <glyph unicode="&#xEF;" horiz-adv-x="279" d="M222 527L148 0L57 0L131 527zM92 654C39 675 39 705 61 654C66 767 102 767 39 741C155 745 155 716 132 767C128 654 92 654 155 680zM300 654C247 675 247 705 269 654C274 767 310 767 247 741C363 745 363 716 340 767C336 654 300 654 363 680z" />
      <glyph unicode="&#xF0;" horiz-adv-x="574" d="M392 660C512 499 512 377 476 590C502 236 482 178 512 303C431 73 391 39 462 119C300 -12 240 -12 350 5C49 63 49 190 126 -12C57 277 74 321 49 234C117 401 152 431 91 365C230 475 281 475 187 460C389 454 421 413 342 475C391 558 335 610 417 495L252 539L192 571L278 647C211 672 171 680 247 661L196 749C300 720 336 700 253 737L418 776L466 729L392 660zM242 61C407 173 418 328 351 61C350 403 293 403 392 378C142 301 142 188 183 403C179 61 242 61 142 104z" />
      <glyph unicode="&#xF1;" horiz-adv-x="580" d="M384 539C509 488 509 406 461 539C508 383 506 370 509 395L454 0L363 0L415 368C417 392 417 397 416 382C396 462 359 462 417 443C240 401 192 316 297 462L148 0L57 0L131 527L209 527L201 424C312 539 384 539 253 497zM410 656C360 667 336 686 379 656C311 704 299 704 320 698C257 688 236 656 275 704L184 688C258 774 301 774 219 745C344 763 370 745 330 774C396 726 408 726 387 731C447 740 469 772 429 726L523 740C450 656 410 656 489 684z" />
      <glyph unicode="&#xF2;" horiz-adv-x="578" d="M254 -12C52 70 52 206 124 -12C61 305 79 356 52 255C127 450 168 486 97 407C261 539 325 539 208 521C526 457 526 321 454 539C517 222 499 171 526 272C451 77 411 41 481 120C318 -12 254 -12 370 5zM257 62C333 76 359 105 299 62C403 169 414 210 385 134C430 291 430 331 424 251C394 465 322 465 430 420C246 450 220 421 280 465C175 357 164 316 194 392C148 235 148 196 153 275C184 62 257 62 148 106zM292 801L475 687L446 638L247 724z" />
      <glyph unicode="&#xF3;" horiz-adv-x="578" d="M254 -12C52 70 52 206 124 -12C61 305 79 356 52 255C127 450 168 486 97 407C261 539 325 539 208 521C526 457 526 321 454 539C517 222 499 171 526 272C451 77 411 41 481 120C318 -12 254 -12 370 5zM257 62C333 76 359 105 299 62C403 169 414 210 385 134C430 291 430 331 424 251C394 465 322 465 430 420C246 450 220 421 280 465C175 357 164 316 194 392C148 235 148 196 153 275C184 62 257 62 148 106zM444 801L474 724L254 638L233 687z" />
      <glyph unicode="&#xF4;" horiz-adv-x="578" d="M254 -12C52 70 52 206 124 -12C61 305 79 356 52 255C127 450 168 486 97 407C261 539 325 539 208 521C526 457 526 321 454 539C517 222 499 171 526 272C451 77 411 41 481 120C318 -12 254 -12 370 5zM257 62C333 76 359 105 299 62C403 169 414 210 385 134C430 291 430 331 424 251C394 465 322 465 430 420C246 450 220 421 280 465C175 357 164 316 194 392C148 235 148 196 153 275C184 62 257 62 148 106zM218 634L181 679L330 792L390 792L509 679L465 634L352 718z" />
      <glyph unicode="&#xF5;" horiz-adv-x="578" d="M254 -12C52 70 52 206 124 -12C61 305 79 356 52 255C127 450 168 486 97 407C261 539 325 539 208 521C526 457 526 321 454 539C517 222 499 171 526 272C451 77 411 41 481 120C318 -12 254 -12 370 5zM257 62C333 76 359 105 299 62C403 169 414 210 385 134C430 291 430 331 424 251C394 465 322 465 430 420C246 450 220 421 280 465C175 357 164 316 194 392C148 235 148 196 153 275C184 62 257 62 148 106zM409 656C359 667 335 686 378 656C310 704 298 704 319 698C256 688 235 656 274 704L183 688C257 774 300 774 218 745C343 763 369 745 329 774C395 726 407 726 386 731C446 740 468 772 428 726L522 740C449 656 409 656 488 684z" />
      <glyph unicode="&#xF6;" horiz-adv-x="578" d="M254 -12C52 70 52 206 124 -12C61 305 79 356 52 255C127 450 168 486 97 407C261 539 325 539 208 521C526 457 526 321 454 539C517 222 499 171 526 272C451 77 411 41 481 120C318 -12 254 -12 370 5zM257 62C333 76 359 105 299 62C403 169 414 210 385 134C430 291 430 331 424 251C394 465 322 465 430 420C246 450 220 421 280 465C175 357 164 316 194 392C148 235 148 196 153 275C184 62 257 62 148 106zM242 654C189 675 189 705 211 654C216 767 252 767 189 741C305 745 305 716 282 767C278 654 242 654 305 680zM450 654C397 675 397 705 419 654C424 767 460 767 397 741C513 745 513 716 490 767C486 654 450 654 513 680z" />
      <glyph unicode="&#xF7;" horiz-adv-x="494" d="M222 35C160 62 160 98 186 35C192 174 234 174 160 140C297 147 297 111 271 174C263 35 222 35 297 68zM286 492C224 519 224 555 250 492C256 631 298 631 224 597C361 604 361 568 335 631C327 492 286 492 361 525zM65 294L76 371L448 371L437 294z" />
      <glyph unicode="&#xF8;" horiz-adv-x="578" d="M446 506C526 405 526 321 498 468C517 222 499 171 526 272C451 77 411 41 481 120C318 -12 254 -12 370 5C219 -10 201 -7 236 -12L146 -130L73 -108L133 21C52 122 52 206 79 57C61 305 79 356 52 255C127 450 168 486 97 407C261 539 325 539 208 521C360 537 378 534 342 539L433 656L506 634L447 508L446 506zM322 465C246 450 220 421 280 465C175 357 164 316 194 392C148 235 148 196 153 275C158 109 178 89 148 144L353 462C332 465 322 465 343 464zM257 62C333 76 359 105 299 62C403 169 414 210 385 134C430 291 430 331 424 251C420 415 402 437 430 379L226 64C249 62 257 62 239 62z" />
      <glyph unicode="&#xF9;" horiz-adv-x="576" d="M200 -12C70 36 70 118 118 -12C71 141 73 153 70 129L126 527L217 527L165 157C162 134 162 124 163 145C181 60 220 60 162 78C329 109 380 184 280 60L428 527L519 527L445 0L367 0L374 97C269 -12 200 -12 322 25zM289 801L472 687L443 638L244 724z" />
      <glyph unicode="&#xFA;" horiz-adv-x="576" d="M200 -12C70 36 70 118 118 -12C71 141 73 153 70 129L126 527L217 527L165 157C162 134 162 124 163 145C181 60 220 60 162 78C329 109 380 184 280 60L428 527L519 527L445 0L367 0L374 97C269 -12 200 -12 322 25zM441 801L471 724L251 638L230 687z" />
      <glyph unicode="&#xFB;" horiz-adv-x="576" d="M200 -12C70 36 70 118 118 -12C71 141 73 153 70 129L126 527L217 527L165 157C162 134 162 124 163 145C181 60 220 60 162 78C329 109 380 184 280 60L428 527L519 527L445 0L367 0L374 97C269 -12 200 -12 322 25zM215 634L178 679L327 792L387 792L506 679L462 634L349 718z" />
      <glyph unicode="&#xFC;" horiz-adv-x="576" d="M200 -12C70 36 70 118 118 -12C71 141 73 153 70 129L126 527L217 527L165 157C162 134 162 124 163 145C181 60 220 60 162 78C329 109 380 184 280 60L428 527L519 527L445 0L367 0L374 97C269 -12 200 -12 322 25zM239 654C186 675 186 705 208 654C213 767 249 767 186 741C302 745 302 716 279 767C275 654 239 654 302 680zM447 654C394 675 394 705 416 654C421 767 457 767 394 741C510 745 510 716 487 767C483 654 447 654 510 680z" />
      <glyph unicode="&#xFD;" horiz-adv-x="486" d="M270 -5C133 -198 -5 -213 215 -126L-9 -141C56 -126 78 -115 27 -135C119 -89 135 -71 100 -103C166 -30 182 0 150 -53L148 0L47 527L143 527L217 70L419 527L514 527zM398 801L428 724L208 638L187 687z" />
      <glyph unicode="&#xFE;" horiz-adv-x="579" d="M368 539C528 464 528 332 469 539C518 223 499 171 528 277C448 75 406 40 479 119C310 -12 246 -12 364 5C180 -5 148 8 212 -12L119 -204L26 -217L161 739L253 750L214 474C312 539 368 539 263 518zM253 61C327 75 354 103 293 61C401 167 414 210 381 131C433 295 433 339 426 252C401 466 339 466 433 423C248 438 203 390 288 466L160 78C217 61 253 61 194 66z" />
      <glyph unicode="&#xFF;" horiz-adv-x="486" d="M270 -5C133 -198 -5 -213 215 -126L-9 -141C56 -126 78 -115 27 -135C119 -89 135 -71 100 -103C166 -30 182 0 150 -53L148 0L47 527L143 527L217 70L419 527L514 527zM196 654C143 675 143 705 165 654C170 767 206 767 143 741C259 745 259 716 236 767C232 654 196 654 259 680zM404 654C351 675 351 705 373 654C378 767 414 767 351 741C467 745 467 716 444 767C440 654 404 654 467 680z" />
      <glyph unicode="&#x100;" horiz-adv-x="567" d="M427 0L400 173L141 173L65 0L-32 0L284 689L403 689L524 0zM174 250L388 250L332 610zM496 793L225 793L234 862L505 862z" />
      <glyph unicode="&#x101;" horiz-adv-x="569" d="M331 539C453 524 516 494 396 539L462 120C460 102 460 98 460 109C468 60 494 51 460 74L468 -12C381 21 375 76 412 -5C278 -12 218 -12 332 21C50 67 50 190 111 -12C59 296 79 350 50 243C130 448 172 484 99 403C267 539 331 539 214 520zM333 466C256 451 228 423 291 466C180 359 167 317 200 395C148 232 148 189 154 275C179 61 237 61 148 102C331 95 378 158 291 61L419 449C367 466 333 466 391 461zM494 667L223 667L232 736L503 736z" />
      <glyph unicode="&#x102;" horiz-adv-x="567" d="M427 0L400 173L141 173L65 0L-32 0L284 689L403 689L524 0zM174 250L388 250L332 610zM354 758C217 809 220 884 272 758L279 892C314 828 356 828 288 849C439 854 459 896 402 828L519 878C434 758 354 758 501 804z" />
      <glyph unicode="&#x103;" horiz-adv-x="569" d="M331 539C453 524 516 494 396 539L462 120C460 102 460 98 460 109C468 60 494 51 460 74L468 -12C381 21 375 76 412 -5C278 -12 218 -12 332 21C50 67 50 190 111 -12C59 296 79 350 50 243C130 448 172 484 99 403C267 539 331 539 214 520zM333 466C256 451 228 423 291 466C180 359 167 317 200 395C148 232 148 189 154 275C179 61 237 61 148 102C331 95 378 158 291 61L419 449C367 466 333 466 391 461zM351 643C215 696 218 779 268 643L280 787C309 713 353 713 286 736C438 740 458 791 401 713L518 773C431 643 351 643 498 691z" />
      <glyph unicode="&#x104;" horiz-adv-x="567" d="M487 0C345 -86 345 -126 373 -46C362 -161 392 -161 345 -148C429 -158 455 -153 408 -161L440 -225C399 -231 379 -231 420 -229C265 -191 265 -137 308 -231C305 -21 424 20 265 -75L400 173L141 173L65 0L-32 0L284 689L403 689L524 0L487 0zM174 250L388 250L332 610z" />
      <glyph unicode="&#x105;" horiz-adv-x="569" d="M462 120C460 102 460 98 460 109C468 60 494 51 460 74L468 -12C326 -98 326 -138 354 -58C343 -173 373 -173 326 -160C410 -170 436 -165 389 -173L421 -237C380 -243 360 -243 401 -241C246 -203 246 -149 289 -243C300 -28 409 9 246 -81C379 46 375 76 390 23C278 -12 218 -12 332 21C50 67 50 190 111 -12C59 296 79 350 50 243C130 448 172 484 99 403C267 539 331 539 214 520C453 524 516 494 396 539L462 120zM419 449C367 466 333 466 391 461C256 451 228 423 291 466C180 359 167 317 200 395C148 232 148 189 154 275C179 61 237 61 148 102C331 95 378 158 291 61z" />
      <glyph unicode="&#x106;" horiz-adv-x="555" d="M394 701C529 676 579 630 471 701L525 577C444 623 398 623 483 609C296 604 260 567 342 623C199 484 183 429 224 530C160 317 160 260 167 373C218 68 312 68 160 128C413 89 467 127 372 68L509 63C382 -12 306 -12 449 13C61 89 61 268 155 -12C72 401 96 468 61 334C157 590 207 634 120 534C319 701 394 701 257 678zM512 908L542 831L322 755L303 804z" />
      <glyph unicode="&#x107;" horiz-adv-x="472" d="M319 539C431 519 472 481 380 539L423 424C361 463 320 463 391 452C245 449 219 421 278 463C175 359 164 319 193 393C148 237 148 196 153 278C183 66 255 66 148 109C331 79 377 107 299 66L414 43C307 -12 249 -12 362 6C52 67 52 203 123 -12C61 304 80 356 52 253C128 451 168 486 98 408C258 539 319 539 208 521zM441 801L471 724L251 638L230 687z" />
      <glyph unicode="&#x108;" horiz-adv-x="555" d="M394 701C529 676 579 630 471 701L525 577C444 623 398 623 483 609C296 604 260 567 342 623C199 484 183 429 224 530C160 317 160 260 167 373C218 68 312 68 160 128C413 89 467 127 372 68L509 63C382 -12 306 -12 449 13C61 89 61 268 155 -12C72 401 96 468 61 334C157 590 207 634 120 534C319 701 394 701 257 678zM290 759L253 804L402 914L462 914L581 804L540 759L425 840z" />
      <glyph unicode="&#x109;" horiz-adv-x="472" d="M319 539C431 519 472 481 380 539L423 424C361 463 320 463 391 452C245 449 219 421 278 463C175 359 164 319 193 393C148 237 148 196 153 278C183 66 255 66 148 109C331 79 377 107 299 66L414 43C307 -12 249 -12 362 6C52 67 52 203 123 -12C61 304 80 356 52 253C128 451 168 486 98 408C258 539 319 539 208 521zM215 634L178 679L327 792L387 792L506 679L462 634L349 718z" />
      <glyph unicode="&#x10A;" horiz-adv-x="555" d="M394 701C529 676 579 630 471 701L525 577C444 623 398 623 483 609C296 604 260 567 342 623C199 484 183 429 224 530C160 317 160 260 167 373C218 68 312 68 160 128C413 89 467 127 372 68L509 63C382 -12 306 -12 449 13C61 89 61 268 155 -12C72 401 96 468 61 334C157 590 207 634 120 534C319 701 394 701 257 678zM425 781C366 806 366 838 389 781C396 906 435 906 366 876C494 882 494 849 471 906C463 781 425 781 494 810z" />
      <glyph unicode="&#x10B;" horiz-adv-x="472" d="M319 539C431 519 472 481 380 539L423 424C361 463 320 463 391 452C245 449 219 421 278 463C175 359 164 319 193 393C148 237 148 196 153 278C183 66 255 66 148 109C331 79 377 107 299 66L414 43C307 -12 249 -12 362 6C52 67 52 203 123 -12C61 304 80 356 52 253C128 451 168 486 98 408C258 539 319 539 208 521zM345 655C286 680 286 712 309 655C316 780 355 780 286 750C414 756 414 723 391 780C383 655 345 655 414 684z" />
      <glyph unicode="&#x10C;" horiz-adv-x="555" d="M394 701C529 676 579 630 471 701L525 577C444 623 398 623 483 609C296 604 260 567 342 623C199 484 183 429 224 530C160 317 160 260 167 373C218 68 312 68 160 128C413 89 467 127 372 68L509 63C382 -12 306 -12 449 13C61 89 61 268 155 -12C72 401 96 468 61 334C157 590 207 634 120 534C319 701 394 701 257 678zM557 909L592 864L444 754L384 754L264 864L307 909L420 828z" />
      <glyph unicode="&#x10D;" horiz-adv-x="472" d="M319 539C431 519 472 481 380 539L423 424C361 463 320 463 391 452C245 449 219 421 278 463C175 359 164 319 193 393C148 237 148 196 153 278C183 66 255 66 148 109C331 79 377 107 299 66L414 43C307 -12 249 -12 362 6C52 67 52 203 123 -12C61 304 80 356 52 253C128 451 168 486 98 408C258 539 319 539 208 521zM478 785L512 740L363 627L303 627L184 740L225 785L338 701z" />
      <glyph unicode="&#x10E;" horiz-adv-x="639" d="M300 689C601 625 601 428 482 689C588 278 563 214 601 350C497 97 441 58 537 149C314 0 228 0 385 19L62 0L159 689L300 689zM242 613L167 75L242 75C355 92 395 127 304 75C462 205 479 259 434 161C505 369 505 430 496 312C496 519 479 546 505 480C439 590 411 599 461 572C351 613 314 613 383 608zM512 909L547 864L399 754L339 754L219 864L262 909L375 828z" />
      <glyph unicode="&#x10F;" horiz-adv-x="587" d="M560 738L456 0L376 0L377 87C284 -12 218 -12 338 24C51 67 51 197 111 -12C59 299 76 352 51 247C120 449 157 485 93 404C240 539 296 539 193 521C396 517 431 473 351 539L470 748zM313 466C241 451 217 422 273 466C174 356 164 314 192 392C148 230 148 190 153 272C180 61 236 61 148 103C339 100 391 183 297 61L422 402C361 466 313 466 394 444zM618 749L700 739L628 555L576 563z" />
      <glyph unicode="&#x110;" horiz-adv-x="649" d="M310 689C611 625 611 428 492 689C598 278 573 214 611 350C507 97 451 58 547 149C324 0 238 0 395 19L72 0L117 318L29 318L38 388L127 388L169 689L310 689zM252 75C365 92 405 127 314 75C472 205 489 259 444 161C515 369 515 430 506 312C506 519 489 546 515 480C449 590 421 599 471 572C361 613 324 613 393 608L252 613L221 388L378 388L369 318L211 318L177 75L252 75z" />
      <glyph unicode="&#x111;" horiz-adv-x="595" d="M619 606L541 606L456 0L376 0L377 87C284 -12 218 -12 338 24C51 67 51 197 111 -12C59 299 76 352 51 247C120 449 157 485 93 404C240 539 296 539 193 521C396 517 431 473 351 539L450 606L299 606L299 676L460 676L470 748L560 738L551 676L629 676zM422 402C361 466 313 466 394 444C241 451 217 422 273 466C174 356 164 314 192 392C148 230 148 190 153 272C180 61 236 61 148 103C339 100 391 183 297 61z" />
      <glyph unicode="&#x112;" horiz-adv-x="529" d="M528 689L507 613L242 613L210 388L440 388L430 312L200 312L167 76L450 76L439 0L62 0L159 689zM499 793L228 793L237 862L508 862z" />
      <glyph unicode="&#x113;" horiz-adv-x="517" d="M490 405C364 220 148 196 490 270C188 65 262 65 150 108C355 80 403 114 311 65L442 52C319 -12 253 -12 382 9C52 67 52 202 125 -12C61 306 79 358 52 254C127 453 168 487 97 410C260 539 323 539 208 521C490 479 490 405 429 539zM153 266C394 316 394 402 318 284C372 466 322 466 394 434C167 378 153 266 220 466zM470 667L199 667L208 736L479 736z" />
      <glyph unicode="&#x114;" horiz-adv-x="529" d="M528 689L507 613L242 613L210 388L440 388L430 312L200 312L167 76L450 76L439 0L62 0L159 689zM357 758C220 809 223 884 275 758L282 892C317 828 359 828 291 849C442 854 462 896 405 828L522 878C437 758 357 758 504 804z" />
      <glyph unicode="&#x115;" horiz-adv-x="517" d="M490 405C364 220 148 196 490 270C188 65 262 65 150 108C355 80 403 114 311 65L442 52C319 -12 253 -12 382 9C52 67 52 202 125 -12C61 306 79 358 52 254C127 453 168 487 97 410C260 539 323 539 208 521C490 479 490 405 429 539zM153 266C394 316 394 402 318 284C372 466 322 466 394 434C167 378 153 266 220 466zM327 643C191 696 194 779 244 643L256 787C285 713 329 713 262 736C414 740 434 791 377 713L494 773C407 643 327 643 474 691z" />
      <glyph unicode="&#x116;" horiz-adv-x="529" d="M528 689L507 613L242 613L210 388L440 388L430 312L200 312L167 76L450 76L439 0L62 0L159 689zM367 781C308 806 308 838 331 781C338 906 377 906 308 876C436 882 436 849 413 906C405 781 367 781 436 810z" />
      <glyph unicode="&#x117;" horiz-adv-x="517" d="M490 405C364 220 148 196 490 270C188 65 262 65 150 108C355 80 403 114 311 65L442 52C319 -12 253 -12 382 9C52 67 52 202 125 -12C61 306 79 358 52 254C127 453 168 487 97 410C260 539 323 539 208 521C490 479 490 405 429 539zM153 266C394 316 394 402 318 284C372 466 322 466 394 434C167 378 153 266 220 466zM336 655C277 680 277 712 300 655C307 780 346 780 277 750C405 756 405 723 382 780C374 655 336 655 405 684z" />
      <glyph unicode="&#x118;" horiz-adv-x="529" d="M242 613L210 388L440 388L430 312L200 312L167 76L450 76L439 0L401 0C259 -86 259 -126 287 -46C276 -161 306 -161 259 -148C343 -158 369 -153 322 -161L354 -225C313 -231 293 -231 334 -229C179 -191 179 -137 222 -231C215 -35 289 0 179 -81L62 0L159 689L528 689L507 613z" />
      <glyph unicode="&#x119;" horiz-adv-x="517" d="M490 405C364 220 148 196 490 270C188 65 262 65 150 108C355 80 403 114 311 65L442 52C371 9 334 -1 407 27C227 -70 227 -108 251 -39C245 -156 283 -156 227 -140C321 -153 344 -149 301 -156L335 -219C290 -226 272 -226 311 -223C147 -183 147 -125 196 -226C174 -39 230 -11 147 -77C52 76 52 202 116 -1C61 306 79 358 52 254C127 453 168 487 97 410C260 539 323 539 208 521C490 479 490 405 429 539zM153 266C394 316 394 402 318 284C372 466 322 466 394 434C167 378 153 266 220 466z" />
      <glyph unicode="&#x11A;" horiz-adv-x="529" d="M528 689L507 613L242 613L210 388L440 388L430 312L200 312L167 76L450 76L439 0L62 0L159 689zM499 909L534 864L386 754L326 754L206 864L249 909L362 828z" />
      <glyph unicode="&#x11B;" horiz-adv-x="517" d="M490 405C364 220 148 196 490 270C188 65 262 65 150 108C355 80 403 114 311 65L442 52C319 -12 253 -12 382 9C52 67 52 202 125 -12C61 306 79 358 52 254C127 453 168 487 97 410C260 539 323 539 208 521C490 479 490 405 429 539zM153 266C394 316 394 402 318 284C372 466 322 466 394 434C167 378 153 266 220 466zM469 785L503 740L354 627L294 627L175 740L216 785L329 701z" />
      <glyph unicode="&#x11C;" horiz-adv-x="625" d="M405 701C552 674 607 622 490 701L548 571C463 623 406 623 501 608C303 604 266 566 350 623C202 481 185 423 229 528C159 307 159 247 167 365C211 66 315 66 159 121C406 77 446 100 363 66L476 305L356 305L356 382L580 382L535 54C394 -12 302 -12 465 10C60 83 60 259 151 -12C72 398 97 466 60 329C161 590 213 634 122 534C329 701 405 701 265 678zM297 759L260 804L409 914L469 914L588 804L547 759L432 840z" />
      <glyph unicode="&#x11D;" horiz-adv-x="580" d="M337 539C460 524 523 494 403 539L450 12C341 -216 209 -216 426 -149C77 -195 27 -165 146 -216L62 -95C153 -137 204 -137 100 -117C345 -104 361 13 288 -137L370 80C276 0 220 0 328 30C51 76 51 198 114 0C61 309 81 361 51 254C132 455 175 489 101 413C271 539 337 539 217 522zM337 466C259 453 231 427 295 466C182 367 169 326 203 401C149 242 149 197 155 285C183 73 239 73 149 113C336 109 383 172 292 73L426 449C371 466 337 466 395 461zM222 634L185 679L334 792L394 792L513 679L469 634L356 718z" />
      <glyph unicode="&#x11E;" horiz-adv-x="625" d="M405 701C552 674 607 622 490 701L548 571C463 623 406 623 501 608C303 604 266 566 350 623C202 481 185 423 229 528C159 307 159 247 167 365C211 66 315 66 159 121C406 77 446 100 363 66L476 305L356 305L356 382L580 382L535 54C394 -12 302 -12 465 10C60 83 60 259 151 -12C72 398 97 466 60 329C161 590 213 634 122 534C329 701 405 701 265 678zM422 758C285 809 288 884 340 758L347 892C382 828 424 828 356 849C507 854 527 896 470 828L587 878C502 758 422 758 569 804z" />
      <glyph unicode="&#x11F;" horiz-adv-x="580" d="M337 539C460 524 523 494 403 539L450 12C341 -216 209 -216 426 -149C77 -195 27 -165 146 -216L62 -95C153 -137 204 -137 100 -117C345 -104 361 13 288 -137L370 80C276 0 220 0 328 30C51 76 51 198 114 0C61 309 81 361 51 254C132 455 175 489 101 413C271 539 337 539 217 522zM337 466C259 453 231 427 295 466C182 367 169 326 203 401C149 242 149 197 155 285C183 73 239 73 149 113C336 109 383 172 292 73L426 449C371 466 337 466 395 461zM343 643C207 696 210 779 260 643L272 787C301 713 345 713 278 736C430 740 450 791 393 713L510 773C423 643 343 643 490 691z" />
      <glyph unicode="&#x120;" horiz-adv-x="625" d="M405 701C552 674 607 622 490 701L548 571C463 623 406 623 501 608C303 604 266 566 350 623C202 481 185 423 229 528C159 307 159 247 167 365C211 66 315 66 159 121C406 77 446 100 363 66L476 305L356 305L356 382L580 382L535 54C394 -12 302 -12 465 10C60 83 60 259 151 -12C72 398 97 466 60 329C161 590 213 634 122 534C329 701 405 701 265 678zM432 781C373 806 373 838 396 781C403 906 442 906 373 876C501 882 501 849 478 906C470 781 432 781 501 810z" />
      <glyph unicode="&#x121;" horiz-adv-x="580" d="M337 539C460 524 523 494 403 539L450 12C341 -216 209 -216 426 -149C77 -195 27 -165 146 -216L62 -95C153 -137 204 -137 100 -117C345 -104 361 13 288 -137L370 80C276 0 220 0 328 30C51 76 51 198 114 0C61 309 81 361 51 254C132 455 175 489 101 413C271 539 337 539 217 522zM337 466C259 453 231 427 295 466C182 367 169 326 203 401C149 242 149 197 155 285C183 73 239 73 149 113C336 109 383 172 292 73L426 449C371 466 337 466 395 461zM352 655C293 680 293 712 316 655C323 780 362 780 293 750C421 756 421 723 398 780C390 655 352 655 421 684z" />
      <glyph unicode="&#x122;" horiz-adv-x="625" d="M405 701C552 674 607 622 490 701L548 571C463 623 406 623 501 608C303 604 266 566 350 623C202 481 185 423 229 528C159 307 159 247 167 365C211 66 315 66 159 121C406 77 446 100 363 66L476 305L356 305L356 382L580 382L535 54C394 -12 302 -12 465 10C60 83 60 259 151 -12C72 398 97 466 60 329C161 590 213 634 122 534C329 701 405 701 265 678zM292 -77C344 -102 344 -129 324 -77C336 -168 308 -214 344 -151L256 -296L202 -296L250 -178C231 -151 231 -136 237 -165C258 -77 292 -77 231 -102z" />
      <glyph unicode="&#x123;" horiz-adv-x="580" d="M337 539C460 524 523 494 403 539L450 12C341 -216 209 -216 426 -149C77 -195 27 -165 146 -216L62 -95C153 -137 204 -137 100 -117C345 -104 361 13 288 -137L370 80C276 0 220 0 328 30C51 76 51 198 114 0C61 309 81 361 51 254C132 455 175 489 101 413C271 539 337 539 217 522zM337 466C259 453 231 427 295 466C182 367 169 326 203 401C149 242 149 197 155 285C183 73 239 73 149 113C336 109 383 172 292 73L426 449C371 466 337 466 395 461zM342 583C290 608 290 635 310 583C298 674 326 720 290 657L378 802L432 802L384 684C403 657 403 642 396 671C375 583 342 583 403 608z" />
      <glyph unicode="&#x124;" horiz-adv-x="674" d="M156 0L62 0L159 689L253 689L212 401L500 401L541 689L635 689L538 0L444 0L489 323L201 323zM282 759L245 804L394 914L454 914L573 804L532 759L417 840z" />
      <glyph unicode="&#x125;" horiz-adv-x="581" d="M381 539C509 489 509 407 461 539C508 381 507 373 509 392L454 0L363 0L415 368C417 392 417 398 416 382C396 462 362 462 417 444C239 401 191 316 298 462L148 0L57 0L161 738L253 748L207 428C314 539 381 539 256 502zM241 809L204 854L353 964L413 964L532 854L491 809L376 890z" />
      <glyph unicode="&#x126;" horiz-adv-x="682" d="M691 577L681 508L613 508L541 0L447 0L492 323L204 323L159 0L65 0L137 508L69 508L79 577L146 577L162 689L256 689L240 577L528 577L544 689L638 689L622 577zM503 401L518 508L230 508L215 401z" />
      <glyph unicode="&#x127;" horiz-adv-x="589" d="M389 539C517 489 517 407 469 539C516 381 515 373 517 392L462 0L371 0L423 368C425 392 425 398 424 382C404 462 370 462 425 444C247 401 199 316 306 462L156 0L65 0L150 606L72 606L82 676L160 676L169 738L261 748L251 676L403 676L384 606L241 606L215 428C322 539 389 539 264 502z" />
      <glyph unicode="&#x128;" horiz-adv-x="292" d="M253 689L156 0L62 0L159 689zM284 782C234 793 210 812 253 782C185 830 173 830 194 824C131 814 110 782 149 830L58 814C132 900 175 900 93 871C218 889 244 871 204 900C270 852 282 852 261 857C321 866 343 898 303 852L397 866C324 782 284 782 363 810z" />
      <glyph unicode="&#x129;" horiz-adv-x="279" d="M222 527L148 0L57 0L131 527zM259 656C209 667 185 686 228 656C160 704 148 704 169 698C106 688 85 656 124 704L33 688C107 774 150 774 68 745C193 763 219 745 179 774C245 726 257 726 236 731C296 740 318 772 278 726L372 740C299 656 259 656 338 684z" />
      <glyph unicode="&#x12A;" horiz-adv-x="292" d="M253 689L156 0L62 0L159 689zM358 793L87 793L96 862L367 862z" />
      <glyph unicode="&#x12B;" horiz-adv-x="279" d="M222 527L148 0L57 0L131 527zM332 667L61 667L70 736L341 736z" />
      <glyph unicode="&#x12C;" horiz-adv-x="292" d="M253 689L156 0L62 0L159 689zM216 758C79 809 82 884 134 758L141 892C176 828 218 828 150 849C301 854 321 896 264 828L381 878C296 758 216 758 363 804z" />
      <glyph unicode="&#x12D;" horiz-adv-x="279" d="M222 527L148 0L57 0L131 527zM189 643C53 696 56 779 106 643L118 787C147 713 191 713 124 736C276 740 296 791 239 713L356 773C269 643 189 643 336 691z" />
      <glyph unicode="&#x12E;" horiz-adv-x="292" d="M253 689L156 0L136 0C-6 -86 -6 -126 22 -46C11 -161 41 -161 -6 -148C78 -158 104 -153 57 -161L89 -225C48 -231 28 -231 69 -229C-86 -191 -86 -137 -42 -231C-48 -24 64 17 -86 -77L159 689z" />
      <glyph unicode="&#x12F;" horiz-adv-x="279" d="M208 780C267 756 267 723 244 780C236 655 198 655 267 684C139 680 139 712 163 655C169 780 208 780 139 750zM131 527L222 527L148 0L119 0C-23 -86 -23 -126 5 -46C-5 -161 24 -161 -23 -148C61 -158 87 -153 40 -161L72 -225C31 -231 11 -231 52 -229C-103 -191 -103 -137 -59 -231C-48 -16 60 21 -103 -69z" />
      <glyph unicode="&#x130;" horiz-adv-x="292" d="M253 689L156 0L62 0L159 689zM226 781C167 806 167 838 190 781C197 906 236 906 167 876C295 882 295 849 272 906C264 781 226 781 295 810z" />
      <glyph unicode="&#x131;" horiz-adv-x="279" d="M222 527L148 0L57 0L131 527z" />
      <glyph unicode="&#x132;" horiz-adv-x="592" d="M253 689L156 0L62 0L159 689zM474 93C390 -99 266 -138 455 -43L247 -67C303 -41 321 -27 279 -55C352 4 361 24 339 -13C377 71 381 103 370 44L464 689L558 689z" />
      <glyph unicode="&#x133;" horiz-adv-x="558" d="M222 527L148 0L57 0L131 527zM198 655C139 680 139 712 162 655C169 780 208 780 139 750C267 756 267 723 244 780C236 655 198 655 267 684zM208 -145C258 -119 274 -107 236 -132C304 -78 315 -57 290 -95C334 -7 340 29 326 -35L410 527L501 527L431 29C413 -58 397 -87 424 -19C361 -140 336 -158 381 -116C277 -194 234 -213 311 -176zM478 655C419 680 419 712 442 655C449 780 488 780 419 750C547 756 547 723 524 780C516 655 478 655 547 684z" />
      <glyph unicode="&#x134;" horiz-adv-x="300" d="M182 93C98 -99 -26 -138 163 -43L-45 -67C11 -41 29 -27 -13 -55C60 4 69 24 47 -13C85 71 89 103 78 44L172 689L266 689zM104 759L67 804L216 914L276 914L395 804L354 759L239 840z" />
      <glyph unicode="&#x135;" horiz-adv-x="279" d="M-71 -145C-20 -119 -4 -107 -43 -132C25 -78 36 -57 11 -95C55 -7 61 29 47 -35L131 527L222 527L152 29C134 -58 118 -87 145 -19C82 -140 57 -158 102 -116C-1 -194 -45 -213 32 -176zM69 634L32 679L181 792L241 792L360 679L316 634L203 718z" />
      <glyph unicode="&#x136;" horiz-adv-x="583" d="M62 0L159 689L254 689L157 0zM434 0L213 368L515 689L626 689L319 365L546 0zM264 -77C316 -102 316 -129 296 -77C308 -168 280 -214 316 -151L228 -296L174 -296L222 -178C203 -151 203 -136 209 -165C230 -77 264 -77 203 -102z" />
      <glyph unicode="&#x137;" horiz-adv-x="545" d="M209 435C321 539 389 539 258 504C517 489 517 419 463 539C462 267 354 233 517 333L473 0L371 0L245 257C420 335 420 409 369 291C399 466 363 466 420 446C234 413 192 316 303 466L148 0L57 0L161 739L253 750zM240 -77C292 -102 292 -129 272 -77C284 -168 256 -214 292 -151L204 -296L150 -296L198 -178C179 -151 179 -136 185 -165C206 -77 240 -77 179 -102z" />
      <glyph unicode="&#x138;" horiz-adv-x="508" d="M222 527L148 0L57 0L131 527zM520 527L293 278L466 0L362 0L190 278L411 527z" />
      <glyph unicode="&#x139;" horiz-adv-x="492" d="M253 689L168 83L448 83L426 0L62 0L159 689zM313 908L343 831L123 755L104 804z" />
      <glyph unicode="&#x13A;" horiz-adv-x="288" d="M158 103C157 95 157 90 157 99C164 64 182 64 157 71C204 66 218 71 192 64L237 5C187 -12 164 -12 211 -6C67 21 67 87 102 -12C67 103 69 118 67 93L157 739L249 750zM309 958L339 881L119 805L100 854z" />
      <glyph unicode="&#x13B;" horiz-adv-x="492" d="M253 689L168 83L448 83L426 0L62 0L159 689zM233 -77C285 -102 285 -129 265 -77C277 -168 249 -214 285 -151L197 -296L143 -296L191 -178C172 -151 172 -136 178 -165C199 -77 233 -77 172 -102z" />
      <glyph unicode="&#x13C;" horiz-adv-x="288" d="M158 103C157 95 157 90 157 99C164 64 182 64 157 71C204 66 218 71 192 64L237 5C187 -12 164 -12 211 -6C67 21 67 87 102 -12C67 103 69 118 67 93L157 739L249 750zM147 -77C199 -102 199 -129 179 -77C191 -168 163 -214 199 -151L111 -296L57 -296L105 -178C86 -151 86 -136 92 -165C113 -77 147 -77 86 -102z" />
      <glyph unicode="&#x13D;" horiz-adv-x="492" d="M253 689L168 83L448 83L426 0L62 0L159 689zM326 699L408 689L336 505L284 513z" />
      <glyph unicode="&#x13E;" horiz-adv-x="288" d="M158 103C157 95 157 90 157 99C164 64 182 64 157 71C204 66 218 71 192 64L237 5C187 -12 164 -12 211 -6C67 21 67 87 102 -12C67 103 69 118 67 93L157 739L249 750zM305 749L387 739L315 555L263 563z" />
      <glyph unicode="&#x13F;" horiz-adv-x="492" d="M253 689L168 83L448 83L426 0L62 0L159 689zM396 325C337 350 337 382 360 325C367 450 406 450 337 420C465 426 465 393 442 450C434 325 396 325 465 354z" />
      <glyph unicode="&#x140;" horiz-adv-x="324" d="M158 103C157 95 157 90 157 99C164 64 182 64 157 71C204 66 218 71 192 64L237 5C187 -12 164 -12 211 -6C67 21 67 87 102 -12C67 103 69 118 67 93L157 739L249 750zM303 315C244 340 244 372 267 315C274 440 313 440 244 410C372 416 372 383 349 440C341 315 303 315 372 344z" />
      <glyph unicode="&#x141;" horiz-adv-x="502" d="M178 83L458 83L436 0L72 0L108 254L52 222L22 282L120 338L169 689L263 689L222 397L397 498L427 438L210 313z" />
      <glyph unicode="&#x142;" horiz-adv-x="296" d="M182 64C204 66 218 71 192 64L237 5C187 -12 164 -12 211 -6C67 21 67 87 102 -12C67 103 69 118 67 93L95 303L46 275L24 341L107 389L157 739L249 750L206 445L286 491L308 425L194 360L158 103C157 95 157 90 157 99C164 64 182 64 157 71z" />
      <glyph unicode="&#x143;" horiz-adv-x="677" d="M541 0L418 0L221 607C211 429 195 313 220 527L151 0L62 0L159 689L283 689L481 81C485 230 496 316 481 171L549 689L638 689zM517 908L547 831L327 755L308 804z" />
      <glyph unicode="&#x144;" horiz-adv-x="580" d="M384 539C509 488 509 406 461 539C508 383 506 370 509 395L454 0L363 0L415 368C417 392 417 397 416 382C396 462 359 462 417 443C240 401 192 316 297 462L148 0L57 0L131 527L209 527L201 424C312 539 384 539 253 497zM445 801L475 724L255 638L234 687z" />
      <glyph unicode="&#x145;" horiz-adv-x="677" d="M541 0L418 0L221 607C211 429 195 313 220 527L151 0L62 0L159 689L283 689L481 81C485 230 496 316 481 171L549 689L638 689zM292 -77C344 -102 344 -129 324 -77C336 -168 308 -214 344 -151L256 -296L202 -296L250 -178C231 -151 231 -136 237 -165C258 -77 292 -77 231 -102z" />
      <glyph unicode="&#x146;" horiz-adv-x="580" d="M384 539C509 488 509 406 461 539C508 383 506 370 509 395L454 0L363 0L415 368C417 392 417 397 416 382C396 462 359 462 417 443C240 401 192 316 297 462L148 0L57 0L131 527L209 527L201 424C312 539 384 539 253 497zM244 -77C296 -102 296 -129 276 -77C288 -168 260 -214 296 -151L208 -296L154 -296L202 -178C183 -151 183 -136 189 -165C210 -77 244 -77 183 -102z" />
      <glyph unicode="&#x147;" horiz-adv-x="677" d="M541 0L418 0L221 607C211 429 195 313 220 527L151 0L62 0L159 689L283 689L481 81C485 230 496 316 481 171L549 689L638 689zM562 909L597 864L449 754L389 754L269 864L312 909L425 828z" />
      <glyph unicode="&#x148;" horiz-adv-x="580" d="M384 539C509 488 509 406 461 539C508 383 506 370 509 395L454 0L363 0L415 368C417 392 417 397 416 382C396 462 359 462 417 443C240 401 192 316 297 462L148 0L57 0L131 527L209 527L201 424C312 539 384 539 253 497zM482 785L516 740L367 627L307 627L188 740L229 785L342 701z" />
      <glyph unicode="&#x149;" horiz-adv-x="690" d="M166 753C219 731 219 701 196 753C213 670 183 618 219 681L131 534L77 534L124 652C105 678 105 694 111 664C132 753 166 753 105 727zM494 539C619 488 619 406 571 539C618 383 616 370 619 395L564 0L473 0L525 368C527 392 527 397 526 382C506 462 469 462 527 443C350 401 302 316 407 462L258 0L167 0L241 527L319 527L311 424C422 539 494 539 363 497z" />
      <glyph unicode="&#x14A;" horiz-adv-x="677" d="M638 689L541 0L533 -60C457 -213 365 -213 518 -162C286 -199 254 -173 323 -213L295 -115C333 -137 363 -137 319 -131C431 -111 439 -60 405 -137L447 0L418 0L221 607C211 429 195 313 220 527L151 0L62 0L159 689L283 689L481 81C485 230 496 316 481 171L549 689z" />
      <glyph unicode="&#x14B;" horiz-adv-x="580" d="M384 539C509 488 509 406 461 539C508 383 506 370 509 395L454 0L446 -60C368 -213 278 -213 431 -161C199 -199 167 -173 236 -213L208 -117C247 -139 274 -139 232 -133C347 -114 354 -62 318 -139L363 0L415 368C417 392 417 397 416 382C396 462 359 462 417 443C240 401 192 316 297 462L148 0L57 0L131 527L209 527L201 424C312 539 384 539 253 497z" />
      <glyph unicode="&#x14C;" horiz-adv-x="686" d="M402 701C648 599 648 421 554 701C636 286 613 220 648 353C553 98 503 54 590 154C387 -12 308 -12 452 10C61 87 61 265 156 -12C72 397 95 464 61 331C155 586 206 632 118 530C322 701 402 701 257 678zM398 623C293 604 257 566 340 623C196 481 181 426 221 528C159 316 159 262 166 371C209 66 311 66 159 131C416 85 452 123 369 66C513 208 528 263 488 161C550 373 550 428 542 318C499 623 398 623 550 558zM559 793L288 793L297 862L568 862z" />
      <glyph unicode="&#x14D;" horiz-adv-x="578" d="M254 -12C52 70 52 206 124 -12C61 305 79 356 52 255C127 450 168 486 97 407C261 539 325 539 208 521C526 457 526 321 454 539C517 222 499 171 526 272C451 77 411 41 481 120C318 -12 254 -12 370 5zM257 62C333 76 359 105 299 62C403 169 414 210 385 134C430 291 430 331 424 251C394 465 322 465 430 420C246 450 220 421 280 465C175 357 164 316 194 392C148 235 148 196 153 275C184 62 257 62 148 106zM482 667L211 667L220 736L491 736z" />
      <glyph unicode="&#x14E;" horiz-adv-x="686" d="M402 701C648 599 648 421 554 701C636 286 613 220 648 353C553 98 503 54 590 154C387 -12 308 -12 452 10C61 87 61 265 156 -12C72 397 95 464 61 331C155 586 206 632 118 530C322 701 402 701 257 678zM398 623C293 604 257 566 340 623C196 481 181 426 221 528C159 316 159 262 166 371C209 66 311 66 159 131C416 85 452 123 369 66C513 208 528 263 488 161C550 373 550 428 542 318C499 623 398 623 550 558zM417 758C280 809 283 884 335 758L342 892C377 828 419 828 351 849C502 854 522 896 465 828L582 878C497 758 417 758 564 804z" />
      <glyph unicode="&#x14F;" horiz-adv-x="578" d="M254 -12C52 70 52 206 124 -12C61 305 79 356 52 255C127 450 168 486 97 407C261 539 325 539 208 521C526 457 526 321 454 539C517 222 499 171 526 272C451 77 411 41 481 120C318 -12 254 -12 370 5zM257 62C333 76 359 105 299 62C403 169 414 210 385 134C430 291 430 331 424 251C394 465 322 465 430 420C246 450 220 421 280 465C175 357 164 316 194 392C148 235 148 196 153 275C184 62 257 62 148 106zM339 643C203 696 206 779 256 643L268 787C297 713 341 713 274 736C426 740 446 791 389 713L506 773C419 643 339 643 486 691z" />
      <glyph unicode="&#x150;" horiz-adv-x="686" d="M402 701C648 599 648 421 554 701C636 286 613 220 648 353C553 98 503 54 590 154C387 -12 308 -12 452 10C61 87 61 265 156 -12C72 397 95 464 61 331C155 586 206 632 118 530C322 701 402 701 257 678zM398 623C293 604 257 566 340 623C196 481 181 426 221 528C159 316 159 262 166 371C209 66 311 66 159 131C416 85 452 123 369 66C513 208 528 263 488 161C550 373 550 428 542 318C499 623 398 623 550 558zM411 958L483 917L368 765L312 790zM561 958L634 917L508 760L453 785z" />
      <glyph unicode="&#x151;" horiz-adv-x="578" d="M254 -12C52 70 52 206 124 -12C61 305 79 356 52 255C127 450 168 486 97 407C261 539 325 539 208 521C526 457 526 321 454 539C517 222 499 171 526 272C451 77 411 41 481 120C318 -12 254 -12 370 5zM257 62C333 76 359 105 299 62C403 169 414 210 385 134C430 291 430 331 424 251C394 465 322 465 430 420C246 450 220 421 280 465C175 357 164 316 194 392C148 235 148 196 153 275C184 62 257 62 148 106zM340 832L412 791L297 639L241 664zM490 832L563 791L437 634L382 659z" />
      <glyph unicode="&#x152;" horiz-adv-x="888" d="M866 613L565 613C627 502 627 416 606 567C626 394 626 388 627 404L799 388L789 312L617 312C559 136 493 76 599 220L809 76L798 0L371 0C321 -12 295 -12 346 -8C207 -1 172 20 248 -12C109 72 90 114 136 41C61 205 61 264 70 155C72 394 95 462 61 328C154 586 203 632 118 529C313 701 387 701 252 678C441 696 465 688 415 701L463 689L887 689zM301 66C401 85 435 124 356 66C493 211 508 268 469 163C530 382 530 439 522 325C478 623 388 623 530 564C289 603 255 564 333 623C196 476 181 420 221 524C159 308 159 255 166 363C211 66 301 66 159 124z" />
      <glyph unicode="&#x153;" horiz-adv-x="885" d="M858 405C732 220 516 196 858 270C556 65 630 65 518 108C723 80 771 114 679 65L810 52C687 -12 621 -12 750 9C481 26 449 92 539 -12C340 -12 254 -12 405 22C52 70 52 206 124 -12C61 305 79 356 52 255C127 450 168 486 97 407C261 539 325 539 208 521C461 497 492 433 403 539C605 539 691 539 538 503C858 479 858 405 797 539zM520 266C762 318 762 402 685 284C740 466 690 466 762 434C533 383 520 266 584 466zM257 62C333 76 359 105 299 62C403 169 414 210 385 134C430 291 430 331 424 251C394 465 322 465 430 420C246 450 220 421 280 465C175 357 164 316 194 392C148 235 148 196 153 275C184 62 257 62 148 106z" />
      <glyph unicode="&#x154;" horiz-adv-x="599" d="M572 518C519 340 398 306 572 424L537 0L433 0L306 292L197 292L156 0L62 0L159 689L336 689C572 632 572 518 493 689zM207 365L308 365C473 434 473 517 425 365C429 615 331 615 473 587L242 615zM463 908L493 831L273 755L254 804z" />
      <glyph unicode="&#x155;" horiz-adv-x="381" d="M356 539C390 536 409 532 372 539L382 443C355 448 339 448 369 446C226 391 188 279 273 448L148 0L57 0L131 527L209 527L203 419C296 539 356 539 241 499zM391 801L421 724L201 638L180 687z" />
      <glyph unicode="&#x156;" horiz-adv-x="599" d="M572 518C519 340 398 306 572 424L537 0L433 0L306 292L197 292L156 0L62 0L159 689L336 689C572 632 572 518 493 689zM207 365L308 365C473 434 473 517 425 365C429 615 331 615 473 587L242 615zM258 -77C310 -102 310 -129 290 -77C302 -168 274 -214 310 -151L222 -296L168 -296L216 -178C197 -151 197 -136 203 -165C224 -77 258 -77 197 -102z" />
      <glyph unicode="&#x157;" horiz-adv-x="381" d="M356 539C390 536 409 532 372 539L382 443C355 448 339 448 369 446C226 391 188 279 273 448L148 0L57 0L131 527L209 527L203 419C296 539 356 539 241 499zM91 -77C143 -102 143 -129 123 -77C135 -168 107 -214 143 -151L55 -296L1 -296L49 -178C30 -151 30 -136 36 -165C57 -77 91 -77 30 -102z" />
      <glyph unicode="&#x158;" horiz-adv-x="599" d="M572 518C519 340 398 306 572 424L537 0L433 0L306 292L197 292L156 0L62 0L159 689L336 689C572 632 572 518 493 689zM207 365L308 365C473 434 473 517 425 365C429 615 331 615 473 587L242 615zM508 909L543 864L395 754L335 754L215 864L258 909L371 828z" />
      <glyph unicode="&#x159;" horiz-adv-x="381" d="M356 539C390 536 409 532 372 539L382 443C355 448 339 448 369 446C226 391 188 279 273 448L148 0L57 0L131 527L209 527L203 419C296 539 356 539 241 499zM428 785L462 740L313 627L253 627L134 740L175 785L288 701z" />
      <glyph unicode="&#x15A;" horiz-adv-x="539" d="M324 701C473 672 527 618 410 701L468 563C381 623 324 623 425 605C183 580 183 511 242 623C212 431 312 398 183 457C492 315 492 209 426 362C482 136 462 102 492 171C412 41 372 20 442 68C282 -12 222 -12 332 -1C53 18 -1 80 127 -12L59 136C153 66 224 66 101 89C394 120 394 204 326 66C363 290 267 324 394 262C87 412 87 506 141 368C96 568 115 598 87 537C160 652 196 672 133 628C274 701 324 701 232 691zM440 908L470 831L250 755L231 804z" />
      <glyph unicode="&#x15B;" horiz-adv-x="461" d="M263 539C387 517 436 474 329 539L391 419C308 466 262 466 351 450C157 439 157 395 198 466C184 339 263 315 157 355C412 238 412 157 365 283C401 88 381 63 412 119C333 18 300 6 360 37C231 -12 193 -12 267 -5C50 13 -2 64 115 -12L50 117C142 62 197 62 93 80C316 104 316 148 281 62C312 180 306 191 316 166C288 211 272 219 299 201C234 235 205 245 256 227C64 317 64 389 103 275C71 437 86 460 64 413C123 502 153 517 100 483C219 539 263 539 183 531zM393 801L423 724L203 638L182 687z" />
      <glyph unicode="&#x15C;" horiz-adv-x="539" d="M324 701C473 672 527 618 410 701L468 563C381 623 324 623 425 605C183 580 183 511 242 623C212 431 312 398 183 457C492 315 492 209 426 362C482 136 462 102 492 171C412 41 372 20 442 68C282 -12 222 -12 332 -1C53 18 -1 80 127 -12L59 136C153 66 224 66 101 89C394 120 394 204 326 66C363 290 267 324 394 262C87 412 87 506 141 368C96 568 115 598 87 537C160 652 196 672 133 628C274 701 324 701 232 691zM218 759L181 804L330 914L390 914L509 804L468 759L353 840z" />
      <glyph unicode="&#x15D;" horiz-adv-x="461" d="M263 539C387 517 436 474 329 539L391 419C308 466 262 466 351 450C157 439 157 395 198 466C184 339 263 315 157 355C412 238 412 157 365 283C401 88 381 63 412 119C333 18 300 6 360 37C231 -12 193 -12 267 -5C50 13 -2 64 115 -12L50 117C142 62 197 62 93 80C316 104 316 148 281 62C312 180 306 191 316 166C288 211 272 219 299 201C234 235 205 245 256 227C64 317 64 389 103 275C71 437 86 460 64 413C123 502 153 517 100 483C219 539 263 539 183 531zM167 634L130 679L279 792L339 792L458 679L414 634L301 718z" />
      <glyph unicode="&#x15E;" horiz-adv-x="539" d="M312 398C492 315 492 209 426 362C483 140 466 108 492 173C423 50 388 28 449 76C308 -7 256 -11 352 6L248 -56C330 -93 330 -137 301 -61C281 -241 201 -241 330 -195C132 -232 108 -214 163 -241L139 -165C173 -181 201 -181 157 -175C255 -164 255 -138 233 -181C235 -99 173 -99 255 -108L194 -11C46 25 -1 80 111 -5L59 136C153 66 224 66 101 89C394 120 394 204 326 66C363 290 267 324 394 262C87 412 87 506 141 368C96 568 115 598 87 537C160 652 196 672 133 628C274 701 324 701 232 691C473 672 527 618 410 701L468 563C381 623 324 623 425 605C183 580 183 511 242 623C212 431 312 398 183 457z" />
      <glyph unicode="&#x15F;" horiz-adv-x="461" d="M263 315C412 238 412 157 365 283C326 -3 216 -11 412 54L209 -56C291 -93 291 -137 262 -61C242 -241 162 -241 291 -195C93 -232 69 -214 124 -241L100 -165C134 -181 162 -181 118 -175C216 -164 216 -138 194 -181C196 -99 134 -99 216 -108L156 -10C42 21 -2 64 94 -3L50 117C142 62 197 62 93 80C316 104 316 148 281 62C312 180 306 191 316 166C288 211 272 219 299 201C234 235 205 245 256 227C64 317 64 389 103 275C71 437 86 460 64 413C123 502 153 517 100 483C219 539 263 539 183 531C387 517 436 474 329 539L391 419C308 466 262 466 351 450C157 439 157 395 198 466C184 339 263 315 157 355z" />
      <glyph unicode="&#x160;" horiz-adv-x="539" d="M324 701C473 672 527 618 410 701L468 563C381 623 324 623 425 605C183 580 183 511 242 623C212 431 312 398 183 457C492 315 492 209 426 362C482 136 462 102 492 171C412 41 372 20 442 68C282 -12 222 -12 332 -1C53 18 -1 80 127 -12L59 136C153 66 224 66 101 89C394 120 394 204 326 66C363 290 267 324 394 262C87 412 87 506 141 368C96 568 115 598 87 537C160 652 196 672 133 628C274 701 324 701 232 691zM485 909L520 864L372 754L312 754L192 864L235 909L348 828z" />
      <glyph unicode="&#x161;" horiz-adv-x="461" d="M263 539C387 517 436 474 329 539L391 419C308 466 262 466 351 450C157 439 157 395 198 466C184 339 263 315 157 355C412 238 412 157 365 283C401 88 381 63 412 119C333 18 300 6 360 37C231 -12 193 -12 267 -5C50 13 -2 64 115 -12L50 117C142 62 197 62 93 80C316 104 316 148 281 62C312 180 306 191 316 166C288 211 272 219 299 201C234 235 205 245 256 227C64 317 64 389 103 275C71 437 86 460 64 413C123 502 153 517 100 483C219 539 263 539 183 531zM430 785L464 740L315 627L255 627L136 740L177 785L290 701z" />
      <glyph unicode="&#x162;" horiz-adv-x="511" d="M562 689L540 608L350 608L265 0L256 -56C338 -92 338 -132 312 -61C291 -241 205 -241 338 -190C136 -230 116 -214 167 -241L147 -165C181 -181 203 -181 163 -175C263 -164 263 -136 236 -181C242 -99 181 -99 263 -109L205 0L171 0L256 608L62 608L74 689z" />
      <glyph unicode="&#x163;" horiz-adv-x="355" d="M173 139C171 117 171 113 171 125C186 65 218 65 171 79C263 72 294 87 242 65L324 23C259 -7 225 -11 292 3L218 -56C300 -93 300 -137 271 -61C251 -241 171 -241 300 -195C102 -232 78 -214 133 -241L109 -165C143 -181 171 -181 127 -175C225 -164 225 -138 203 -181C205 -99 143 -99 225 -108L165 -7C80 45 80 109 110 5C80 133 82 141 80 123L126 456L35 456L45 527L140 527L173 649L245 657L227 527L351 527L331 456L217 456z" />
      <glyph unicode="&#x164;" horiz-adv-x="511" d="M562 689L540 608L350 608L265 0L171 0L256 608L62 608L74 689zM466 909L501 864L353 754L293 754L173 864L216 909L329 828z" />
      <glyph unicode="&#x165;" horiz-adv-x="355" d="M173 139C171 117 171 113 171 125C186 65 218 65 171 79C263 72 294 87 242 65L324 23C248 -12 207 -12 287 0C80 31 80 109 125 -12C80 133 82 141 80 123L126 456L35 456L45 527L140 527L173 649L245 657L227 527L351 527L331 456L217 456zM325 755L407 745L335 561L283 569z" />
      <glyph unicode="&#x166;" horiz-adv-x="511" d="M540 608L350 608L319 389L440 389L431 319L310 319L265 0L171 0L216 319L95 319L104 389L225 389L256 608L62 608L74 689L562 689z" />
      <glyph unicode="&#x167;" horiz-adv-x="355" d="M217 456L203 357L320 357L300 286L193 286L173 139C171 117 171 113 171 125C186 65 218 65 171 79C263 72 294 87 242 65L324 23C248 -12 207 -12 287 0C80 31 80 109 125 -12C80 133 82 141 80 123L102 286L25 286L35 357L112 357L126 456L35 456L45 527L140 527L173 649L245 657L227 527L351 527L331 456z" />
      <glyph unicode="&#x168;" horiz-adv-x="656" d="M561 218C441 -12 292 -12 541 78C80 63 80 182 156 -12C81 210 83 224 80 196L149 689L243 689L178 225C175 196 175 183 176 210C213 68 296 68 175 105C452 122 468 231 395 68L533 689L627 689zM466 782C416 793 392 812 435 782C367 830 355 830 376 824C313 814 292 782 331 830L240 814C314 900 357 900 275 871C400 889 426 871 386 900C452 852 464 852 443 857C503 866 525 898 485 852L579 866C506 782 466 782 545 810z" />
      <glyph unicode="&#x169;" horiz-adv-x="576" d="M200 -12C70 36 70 118 118 -12C71 141 73 153 70 129L126 527L217 527L165 157C162 134 162 124 163 145C181 60 220 60 162 78C329 109 380 184 280 60L428 527L519 527L445 0L367 0L374 97C269 -12 200 -12 322 25zM406 656C356 667 332 686 375 656C307 704 295 704 316 698C253 688 232 656 271 704L180 688C254 774 297 774 215 745C340 763 366 745 326 774C392 726 404 726 383 731C443 740 465 772 425 726L519 740C446 656 406 656 485 684z" />
      <glyph unicode="&#x16A;" horiz-adv-x="656" d="M561 218C441 -12 292 -12 541 78C80 63 80 182 156 -12C81 210 83 224 80 196L149 689L243 689L178 225C175 196 175 183 176 210C213 68 296 68 175 105C452 122 468 231 395 68L533 689L627 689zM540 793L269 793L278 862L549 862z" />
      <glyph unicode="&#x16B;" horiz-adv-x="576" d="M200 -12C70 36 70 118 118 -12C71 141 73 153 70 129L126 527L217 527L165 157C162 134 162 124 163 145C181 60 220 60 162 78C329 109 380 184 280 60L428 527L519 527L445 0L367 0L374 97C269 -12 200 -12 322 25zM479 667L208 667L217 736L488 736z" />
      <glyph unicode="&#x16C;" horiz-adv-x="656" d="M561 218C441 -12 292 -12 541 78C80 63 80 182 156 -12C81 210 83 224 80 196L149 689L243 689L178 225C175 196 175 183 176 210C213 68 296 68 175 105C452 122 468 231 395 68L533 689L627 689zM398 758C261 809 264 884 316 758L323 892C358 828 400 828 332 849C483 854 503 896 446 828L563 878C478 758 398 758 545 804z" />
      <glyph unicode="&#x16D;" horiz-adv-x="576" d="M200 -12C70 36 70 118 118 -12C71 141 73 153 70 129L126 527L217 527L165 157C162 134 162 124 163 145C181 60 220 60 162 78C329 109 380 184 280 60L428 527L519 527L445 0L367 0L374 97C269 -12 200 -12 322 25zM336 643C200 696 203 779 253 643L265 787C294 713 338 713 271 736C423 740 443 791 386 713L503 773C416 643 336 643 483 691z" />
      <glyph unicode="&#x16E;" horiz-adv-x="656" d="M561 218C441 -12 292 -12 541 78C80 63 80 182 156 -12C81 210 83 224 80 196L149 689L243 689L178 225C175 196 175 183 176 210C213 68 296 68 175 105C452 122 468 231 395 68L533 689L627 689zM424 962C527 920 527 866 485 962C472 750 403 750 527 802C300 791 300 846 341 750C354 962 424 962 300 910zM422 912C361 883 361 847 383 912C377 800 405 800 361 817C467 831 467 866 443 800C450 912 422 912 467 895z" />
      <glyph unicode="&#x16F;" horiz-adv-x="576" d="M200 -12C70 36 70 118 118 -12C71 141 73 153 70 129L126 527L217 527L165 157C162 134 162 124 163 145C181 60 220 60 162 78C329 109 380 184 280 60L428 527L519 527L445 0L367 0L374 97C269 -12 200 -12 322 25zM362 836C465 794 465 740 423 836C410 624 341 624 465 676C238 665 238 720 279 624C292 836 362 836 238 784zM360 786C299 757 299 721 321 786C315 674 343 674 299 691C405 705 405 740 381 674C388 786 360 786 405 769z" />
      <glyph unicode="&#x170;" horiz-adv-x="656" d="M561 218C441 -12 292 -12 541 78C80 63 80 182 156 -12C81 210 83 224 80 196L149 689L243 689L178 225C175 196 175 183 176 210C213 68 296 68 175 105C452 122 468 231 395 68L533 689L627 689zM392 958L464 917L349 765L293 790zM542 958L615 917L489 760L434 785z" />
      <glyph unicode="&#x171;" horiz-adv-x="576" d="M200 -12C70 36 70 118 118 -12C71 141 73 153 70 129L126 527L217 527L165 157C162 134 162 124 163 145C181 60 220 60 162 78C329 109 380 184 280 60L428 527L519 527L445 0L367 0L374 97C269 -12 200 -12 322 25zM337 832L409 791L294 639L238 664zM487 832L560 791L434 634L379 659z" />
      <glyph unicode="&#x172;" horiz-adv-x="656" d="M627 689L561 218C477 23 371 -3 546 104C254 -75 254 -114 280 -41C272 -162 310 -162 254 -146C348 -159 371 -155 328 -162L362 -225C317 -232 299 -232 338 -229C174 -189 174 -131 223 -232C206 -39 270 -11 174 -79C80 71 80 182 147 -3C81 210 83 224 80 196L149 689L243 689L178 225C175 196 175 183 176 210C213 68 296 68 175 105C452 122 468 231 395 68L533 689z" />
      <glyph unicode="&#x173;" horiz-adv-x="576" d="M445 0C303 -86 303 -126 331 -46C320 -161 350 -161 303 -148C387 -158 413 -153 366 -161L398 -225C357 -231 337 -231 378 -229C223 -191 223 -137 266 -231C271 -21 368 15 223 -72L374 97C269 -12 200 -12 322 25C70 36 70 118 118 -12C71 141 73 153 70 129L126 527L217 527L165 157C162 134 162 124 163 145C181 60 220 60 162 78C329 109 380 184 280 60L428 527L519 527L445 0z" />
      <glyph unicode="&#x174;" horiz-adv-x="820" d="M855 689L619 0L498 0L454 577L246 0L128 0L86 689L176 689L200 83L417 689L519 689L568 83L768 689zM355 759L318 804L467 914L527 914L646 804L605 759L490 840z" />
      <glyph unicode="&#x175;" horiz-adv-x="711" d="M728 527L537 0L412 0L384 444L227 0L106 0L58 527L148 527L177 64L344 527L447 527L480 64L640 527zM285 634L248 679L397 792L457 792L576 679L532 634L419 718z" />
      <glyph unicode="&#x176;" horiz-adv-x="544" d="M600 689L320 265L283 0L187 0L225 264L65 689L164 689L282 348L497 689zM220 759L183 804L332 914L392 914L511 804L470 759L355 840z" />
      <glyph unicode="&#x177;" horiz-adv-x="486" d="M270 -5C133 -198 -5 -213 215 -126L-9 -141C56 -126 78 -115 27 -135C119 -89 135 -71 100 -103C166 -30 182 0 150 -53L148 0L47 527L143 527L217 70L419 527L514 527zM172 634L135 679L284 792L344 792L463 679L419 634L306 718z" />
      <glyph unicode="&#x178;" horiz-adv-x="544" d="M600 689L320 265L283 0L187 0L225 264L65 689L164 689L282 348L497 689zM249 780C196 801 196 831 218 780C223 893 259 893 196 867C312 871 312 842 289 893C285 780 249 780 312 806zM457 780C404 801 404 831 426 780C431 893 467 893 404 867C520 871 520 842 497 893C493 780 457 780 520 806z" />
      <glyph unicode="&#x179;" horiz-adv-x="516" d="M-8 0L2 76L416 609L114 609L125 689L532 689L522 612L111 80L446 81L424 0zM436 908L466 831L246 755L227 804z" />
      <glyph unicode="&#x17A;" horiz-adv-x="431" d="M436 527L427 457L109 77L376 77L355 0L-13 0L-4 69L313 449L73 449L84 527zM378 801L408 724L188 638L167 687z" />
      <glyph unicode="&#x17B;" horiz-adv-x="516" d="M-8 0L2 76L416 609L114 609L125 689L532 689L522 612L111 80L446 81L424 0zM349 781C290 806 290 838 313 781C320 906 359 906 290 876C418 882 418 849 395 906C387 781 349 781 418 810z" />
      <glyph unicode="&#x17C;" horiz-adv-x="431" d="M436 527L427 457L109 77L376 77L355 0L-13 0L-4 69L313 449L73 449L84 527zM282 655C223 680 223 712 246 655C253 780 292 780 223 750C351 756 351 723 328 780C320 655 282 655 351 684z" />
      <glyph unicode="&#x17D;" horiz-adv-x="516" d="M-8 0L2 76L416 609L114 609L125 689L532 689L522 612L111 80L446 81L424 0zM481 909L516 864L368 754L308 754L188 864L231 909L344 828z" />
      <glyph unicode="&#x17E;" horiz-adv-x="431" d="M436 527L427 457L109 77L376 77L355 0L-13 0L-4 69L313 449L73 449L84 527zM415 785L449 740L300 627L240 627L121 740L162 785L275 701z" />
      <glyph unicode="&#x17F;" horiz-adv-x="329" d="M329 750C410 738 453 712 377 750L418 651C364 676 332 676 393 667C246 650 240 597 274 676L156 0L65 0L129 456L36 456L46 527L139 527L150 602C227 750 329 750 162 692z" />
      <glyph unicode="&#x180;" horiz-adv-x="588" d="M376 539C537 462 537 332 476 539C527 223 508 171 537 277C457 75 415 40 488 119C319 -12 255 -12 373 5C146 -2 69 23 196 -12L151 606L72 606L82 676L161 676L170 739L262 750L252 676L403 676L384 606L242 606L224 475C320 539 376 539 272 517zM262 61C336 75 363 103 302 61C410 167 423 210 390 131C442 295 442 339 435 252C411 466 350 466 442 423C257 438 212 390 298 466L169 77C224 61 262 61 202 65z" />
      <glyph unicode="&#x181;" horiz-adv-x="684" d="M493 364C632 309 632 220 575 349C546 0 334 0 632 86L144 0L230 614L203 614C139 590 139 543 160 614C142 512 149 492 139 529L78 461C52 521 52 550 60 491C112 689 215 689 52 634L431 689C647 637 647 535 561 689C581 382 493 364 647 443zM324 614L294 397L395 397C551 442 551 532 484 397C506 614 434 614 551 593zM338 76C534 130 534 222 483 76C488 324 398 324 534 290L284 324L249 76L338 76z" />
      <glyph unicode="&#x182;" horiz-adv-x="573" d="M304 430C540 365 540 243 453 430C530 160 512 124 540 200C462 58 418 35 493 88C316 0 244 0 374 11L62 0L159 689L531 689L508 611L242 611L216 430L304 430zM259 76C440 146 440 244 392 76C392 356 299 356 440 324L206 356L167 76L259 76z" />
      <glyph unicode="&#x183;" horiz-adv-x="579" d="M368 539C528 464 528 332 469 539C518 223 499 171 528 277C448 75 406 40 479 119C310 -12 246 -12 364 5C137 -2 60 23 187 -12L161 739L475 739L453 669L242 669L215 475C312 539 368 539 264 517zM253 61C327 75 354 103 293 61C401 167 414 210 381 131C433 295 433 339 426 252C401 466 339 466 433 423C248 436 204 390 288 466L160 77C215 61 253 61 193 65z" />
      <glyph unicode="&#x184;" horiz-adv-x="568" d="M305 436C541 369 541 241 454 436C531 158 512 122 541 198C460 56 416 34 492 86C314 0 244 0 372 11L62 0L136 524L73 566C140 638 170 689 107 597L253 689L218 436L305 436zM259 76C441 146 441 241 392 76C393 362 300 362 441 327L207 362L167 76L259 76z" />
      <glyph unicode="&#x185;" horiz-adv-x="510" d="M265 357C467 296 467 200 403 357C458 130 441 98 467 164C397 39 362 19 423 66C282 -12 230 -12 326 -1C115 -3 59 14 172 -12L109 372L46 414C113 483 141 527 81 445L222 527L198 357L265 357zM227 60C372 122 372 201 325 60C334 287 258 287 372 258L189 287L158 68C207 60 227 60 184 62z" />
      <glyph unicode="&#x186;" horiz-adv-x="554" d="M283 701C515 600 515 423 425 701C501 273 475 207 515 345C409 88 358 48 448 141C247 -12 178 -12 307 8C38 19 -10 67 92 -12L42 123C122 68 178 68 87 87C276 85 312 120 231 68C374 200 391 254 348 155C417 365 417 423 408 308C363 623 275 623 417 563C173 607 120 571 221 623L76 635C199 701 283 701 140 680z" />
      <glyph unicode="&#x187;" horiz-adv-x="560" d="M660 832C740 818 772 792 702 832L731 736C692 758 663 758 707 752C592 733 586 681 620 758L579 630L532 584C444 623 400 623 493 608C297 604 261 567 343 623C200 484 184 429 225 530C160 317 160 260 168 373C218 68 312 68 160 128C411 89 467 128 372 68L509 63C382 -12 306 -12 449 13C61 89 61 268 155 -12C72 401 96 468 61 334C156 590 206 634 120 534C317 701 390 701 256 678C463 693 493 679 429 701C566 832 660 832 506 779z" />
      <glyph unicode="&#x188;" horiz-adv-x="472" d="M563 750C643 736 675 710 605 750L634 654C595 676 566 676 610 670C494 649 488 599 524 676L472 481L432 434C356 463 320 463 393 453C245 449 219 421 278 463C175 359 164 319 193 393C148 237 148 196 153 278C183 66 255 66 148 109C331 79 377 107 299 66L414 43C307 -12 249 -12 362 6C52 67 52 203 123 -12C61 304 80 356 52 253C127 451 167 486 98 408C255 539 315 539 206 521C366 534 387 525 342 539L397 597C472 750 563 750 411 698z" />
      <glyph unicode="&#x189;" horiz-adv-x="649" d="M310 689C611 625 611 428 492 689C598 278 573 214 611 350C507 97 451 58 547 149C324 0 238 0 395 19L72 0L117 318L29 318L38 388L127 388L169 689L310 689zM252 75C365 92 405 127 314 75C472 205 489 259 444 161C515 369 515 430 506 312C506 519 489 546 515 480C449 590 421 599 471 572C361 613 324 613 393 608L252 613L221 388L378 388L369 318L211 318L177 75L252 75z" />
      <glyph unicode="&#x18A;" horiz-adv-x="721" d="M382 689C683 625 683 428 564 689C670 278 645 214 683 350C579 97 523 58 619 149C396 0 310 0 467 19L144 0L230 614L203 614C139 590 139 543 160 614C142 512 149 492 139 529L78 461C52 521 52 550 60 491C112 689 215 689 52 634L382 689zM324 75C437 92 477 127 386 75C544 205 561 259 516 161C587 369 587 430 578 312C578 519 561 546 587 480C521 590 493 599 543 572C433 613 396 613 465 608L324 613L249 75L324 75z" />
      <glyph unicode="&#x18B;" horiz-adv-x="575" d="M439 0L251 0C21 59 21 199 112 0C131 430 313 430 21 344L406 430L431 611L157 611L167 689L536 689zM356 76L395 356L306 356C121 300 121 198 182 356C162 76 260 76 121 110z" />
      <glyph unicode="&#x18C;" horiz-adv-x="587" d="M456 0L376 0L377 87C284 -12 218 -12 338 24C51 67 51 197 111 -12C59 299 76 352 51 247C120 449 157 485 93 404C240 539 296 539 193 521C396 517 431 473 351 539L459 669L241 669L251 739L560 739zM421 402C361 466 313 466 394 444C241 451 217 422 273 466C174 356 164 314 192 392C148 230 148 190 153 272C180 61 236 61 148 103C339 101 390 183 297 61z" />
      <glyph unicode="&#x18D;" horiz-adv-x="574" d="M220 -216C97 -196 51 -155 144 -216L101 -103C169 -144 219 -144 138 -133C320 -112 320 -67 285 -144C298 -10 218 26 320 -29C55 136 55 238 107 76C64 321 82 368 55 278C130 454 170 488 100 414C260 539 321 539 210 522C523 453 523 325 445 539C471 110 335 52 523 199C413 -18 413 -64 391 16C405 -113 391 -137 413 -89C354 -179 325 -194 376 -160C260 -216 220 -216 295 -208zM277 80C426 216 426 334 389 142C388 465 318 465 426 414C245 452 220 426 278 465C177 369 167 333 195 400C152 265 152 235 157 297C186 121 277 80 152 161z" />
      <glyph unicode="&#x18E;" horiz-adv-x="530" d="M119 689L490 689L394 0L17 0L27 76L310 76L343 312L113 312L124 388L354 388L386 613L109 613z" />
      <glyph unicode="&#x18F;" horiz-adv-x="643" d="M370 701C607 612 607 440 520 701C594 284 569 216 607 359C507 92 457 50 544 147C347 -12 277 -12 407 8C49 81 49 248 131 -12C57 359 65 389 49 288L507 389C511 428 511 450 509 408C460 623 363 623 511 571C236 600 174 556 299 623L131 618C282 701 370 701 202 673zM279 64C463 145 495 307 391 64L144 307C139 255 139 237 140 278C185 64 279 64 139 121z" />
      <glyph unicode="&#x190;" horiz-adv-x="517" d="M333 701C481 672 537 614 413 701L481 561C389 623 335 623 437 602C199 569 199 499 247 623C241 403 313 403 199 436L380 403L357 325L307 325C133 274 133 177 199 325C178 68 261 68 133 106C380 91 430 137 324 68L481 79C338 -12 253 -12 418 17C171 -4 138 11 209 -12C78 49 60 78 104 27C33 139 33 176 42 106C108 358 216 370 33 282C102 433 102 504 146 386C112 576 132 606 102 542C179 659 215 676 152 636C289 701 333 701 250 692z" />
      <glyph unicode="&#x191;" horiz-adv-x="485" d="M242 613L209 378L432 378L422 303L199 303L156 0L148 -60C72 -213 -20 -213 133 -162C-99 -199 -131 -173 -62 -213L-90 -115C-51 -137 -22 -137 -66 -131C46 -111 54 -60 20 -137L62 0L159 689L521 689L500 613z" />
      <glyph unicode="&#x192;" horiz-adv-x="329" d="M332 676C246 650 240 597 274 676L230 527L357 527L337 456L220 456L160 29C142 -58 126 -87 153 -19C90 -140 65 -158 110 -116C6 -194 -37 -213 40 -176L-63 -144C-12 -119 3 -107 -35 -131C33 -78 44 -57 19 -95C63 -7 69 29 55 -35L129 456L36 456L46 527L139 527L150 602C227 750 329 750 162 692C410 738 453 712 377 750L418 651C364 676 332 676 393 667z" />
      <glyph unicode="&#x193;" horiz-adv-x="589" d="M690 832C769 818 801 792 732 832L760 736C721 758 692 758 736 752C621 733 615 681 649 758L607 622L556 578C458 623 406 623 508 608C303 604 266 566 350 623C202 481 185 423 229 528C159 307 159 247 167 365C211 66 315 66 159 121C406 77 446 100 363 66L476 305L356 305L356 382L580 382L535 54C394 -12 302 -12 465 10C60 83 60 259 151 -12C72 398 97 466 60 329C161 590 213 634 122 534C329 701 405 701 265 678C491 692 522 674 452 701L522 679C596 832 690 832 535 777z" />
      <glyph unicode="&#x194;" horiz-adv-x="550" d="M304 68C342 -41 342 -89 330 2C292 -213 211 -213 342 -167C103 -175 103 -119 141 -213C128 -21 192 69 103 -69L65 689L163 689L255 135L506 689L604 689zM256 -91C250 -31 239 9 256 -65C189 -82 189 -112 207 -44C197 -140 215 -140 189 -130C256 -120 256 -91 241 -140z" />
      <glyph unicode="&#x195;" horiz-adv-x="875" d="M546 -12C385 51 385 139 440 -12C385 155 387 169 385 145L415 368C417 392 417 398 416 382C396 462 362 462 417 444C239 401 191 316 298 462L148 0L57 0L161 738L253 748L207 428C314 539 381 539 256 502C509 489 509 407 461 539C508 381 507 373 509 392L478 168C476 147 476 142 476 156C501 62 551 62 476 88C725 217 725 413 685 62C723 494 720 527 725 456L808 527C816 437 816 397 813 480C736 -12 546 -12 816 157z" />
      <glyph unicode="&#x196;" horiz-adv-x="354" d="M320 24C247 -12 204 -12 286 0C70 31 70 113 120 -12C70 138 72 146 70 127L80 201L150 689L244 689L174 201L165 135C163 117 163 114 163 124C179 64 212 64 163 80C261 71 289 87 242 64z" />
      <glyph unicode="&#x197;" horiz-adv-x="313" d="M316 396L305 322L213 322L168 0L74 0L119 322L24 322L35 396L130 396L171 689L265 689L224 396z" />
      <glyph unicode="&#x198;" horiz-adv-x="622" d="M213 368L424 612C516 701 576 701 481 678C647 686 677 657 620 701L629 606C596 624 578 624 607 619C532 612 490 564 548 624L319 368L546 0L432 0zM62 0L159 689L254 689L157 0z" />
      <glyph unicode="&#x199;" horiz-adv-x="545" d="M517 419C462 267 354 233 517 333L473 0L371 0L245 257C420 335 420 409 369 291C399 466 363 466 420 446C234 413 192 316 303 466L148 0L57 0L131 526L142 602C220 750 322 750 154 692C402 742 445 722 370 750L411 657C355 676 325 676 383 669C239 650 233 597 266 676L223 526L210 435C321 539 389 539 258 504C517 489 517 419 463 539z" />
      <glyph unicode="&#x19A;" horiz-adv-x="312" d="M178 103C177 95 177 90 177 99C184 64 202 64 177 71C224 66 238 71 212 64L257 5C207 -12 184 -12 231 -6C87 21 87 87 122 -12C87 103 89 118 87 93L120 337L25 337L36 407L130 407L177 739L269 750L221 407L317 407L306 337L211 337z" />
      <glyph unicode="&#x19B;" horiz-adv-x="489" d="M358 434C403 109 465 20 378 203L379 -11C341 58 328 93 358 23C303 171 294 223 314 127C279 341 275 421 285 275L70 -12L-16 10L231 506L269 499C259 578 251 602 265 544L175 537L117 569L211 656C166 680 131 688 193 669L149 752C237 726 265 704 199 742L342 776L390 729L311 655L308 653C348 539 358 434 334 606z" />
      <glyph unicode="&#x19C;" horiz-adv-x="923" d="M884 689L787 0L706 0L709 74C602 -12 541 -12 657 15C423 25 405 87 470 -12C285 -12 220 -12 345 19C76 52 76 150 128 -12C77 177 79 192 76 163L149 689L243 689L172 188C169 163 169 152 170 175C193 66 240 66 169 96C337 92 396 162 298 66L399 192L469 689L564 689L493 188C490 163 490 152 491 175C514 66 561 66 490 96C658 91 716 161 618 66L790 689z" />
      <glyph unicode="&#x19D;" horiz-adv-x="677" d="M638 689L541 0L418 0L221 607C211 429 195 313 220 527L151 0L143 -60C66 -213 -20 -213 128 -161C-99 -199 -131 -173 -62 -213L-90 -117C-51 -139 -22 -139 -66 -133C47 -113 54 -60 20 -139L62 0L159 689L283 689L481 81C485 230 496 316 481 171L549 689z" />
      <glyph unicode="&#x19E;" horiz-adv-x="580" d="M384 539C509 488 509 406 461 539C508 383 506 370 509 395L425 -205L332 -216L415 368C417 385 417 398 416 375C396 462 359 462 417 444C239 401 191 316 297 462L148 0L57 0L131 527L209 527L201 424C312 539 384 539 253 497z" />
      <glyph unicode="&#x19F;" horiz-adv-x="686" d="M402 701C648 599 648 421 554 701C636 286 613 220 648 353C553 98 503 54 590 154C387 -12 308 -12 452 10C61 87 61 265 156 -12C72 397 95 464 61 331C155 586 206 632 118 530C322 701 402 701 257 678zM398 623C198 522 169 386 270 623L552 386C553 410 553 428 552 396C499 623 398 623 553 562zM311 66C516 173 543 316 444 66L158 316C156 272 156 262 156 290C207 66 311 66 156 131z" />
      <glyph unicode="&#x1A0;" horiz-adv-x="692" d="M714 715C677 601 611 587 714 645C648 487 648 421 635 543C636 286 613 220 648 353C553 98 503 54 590 154C387 -12 308 -12 452 10C61 87 61 265 156 -12C72 397 95 464 61 331C155 586 206 632 118 530C322 701 402 701 257 678C529 680 572 639 472 701C639 669 639 717 616 643C637 742 633 760 639 728L705 771C714 735 714 715 711 754zM311 66C416 85 452 123 369 66C513 208 528 263 488 161C550 373 550 428 542 318C499 623 398 623 550 558C293 604 257 566 340 623C196 481 181 426 221 528C159 316 159 262 166 371C209 66 311 66 159 131z" />
      <glyph unicode="&#x1A1;" horiz-adv-x="589" d="M622 549C583 430 510 420 622 475C526 359 526 321 520 392C517 222 499 171 526 272C451 77 411 41 481 120C318 -12 254 -12 370 5C52 70 52 206 124 -12C61 305 79 356 52 255C127 450 168 486 97 407C261 539 325 539 208 521C445 517 481 473 393 539C547 503 547 551 525 477C545 585 541 598 547 569L613 609C622 572 622 549 619 592zM257 62C333 76 359 105 299 62C403 169 414 210 385 134C430 291 430 331 424 251C394 465 322 465 430 420C246 450 220 421 280 465C175 357 164 316 194 392C148 235 148 196 153 275C184 62 257 62 148 106z" />
      <glyph unicode="&#x1A2;" horiz-adv-x="917" d="M715 703C859 655 859 573 811 703C858 548 857 540 859 559L753 -202L659 -202L764 543C766 565 766 570 765 556C748 629 706 629 766 610C636 619 603 600 670 629C648 493 648 421 633 553C636 286 613 220 648 353C553 98 503 54 590 154C387 -12 308 -12 452 10C61 87 61 265 156 -12C72 397 95 464 61 331C155 586 206 632 118 530C322 701 402 701 257 678C516 684 558 651 464 701C661 703 715 703 609 685zM311 66C416 85 452 123 369 66C513 208 528 263 488 161C550 373 550 428 542 318C499 623 398 623 550 558C293 604 257 566 340 623C196 481 181 426 221 528C159 316 159 262 166 371C209 66 311 66 159 131z" />
      <glyph unicode="&#x1A3;" horiz-adv-x="780" d="M571 539C708 489 708 408 661 539C707 390 706 376 708 401L625 -205L532 -216L616 385C618 403 618 408 617 395C598 465 560 465 618 446C514 460 494 452 536 465C526 373 526 321 515 416C517 222 499 171 526 272C451 77 411 41 481 120C318 -12 254 -12 370 5C52 70 52 206 124 -12C61 305 79 356 52 255C127 450 168 486 97 407C261 539 325 539 208 521C412 527 444 505 372 539C530 539 571 539 488 527zM257 62C333 76 359 105 299 62C403 169 414 210 385 134C430 291 430 331 424 251C394 465 322 465 430 420C246 450 220 421 280 465C175 357 164 316 194 392C148 235 148 196 153 275C184 62 257 62 148 106z" />
      <glyph unicode="&#x1A4;" horiz-adv-x="656" d="M417 689C657 628 657 507 570 689C647 419 627 381 657 461C575 312 531 288 607 343C430 253 361 253 487 264L272 253L237 0L143 0L229 614L203 614C139 590 139 543 160 614C142 512 149 492 139 529L78 461C52 521 52 550 60 491C112 689 215 689 52 634L417 689zM363 328C557 403 557 507 505 328C506 615 410 615 557 584L323 615L283 328L363 328z" />
      <glyph unicode="&#x1A5;" horiz-adv-x="580" d="M369 539C529 464 529 332 470 539C519 224 500 172 529 278C450 75 408 40 480 119C313 -12 249 -12 366 5C183 -6 149 5 216 -12L121 -204L28 -216L132 526L131 526L142 602C220 750 322 750 154 692C402 742 445 722 370 750L411 657C355 676 325 676 383 669C239 650 233 597 266 676L223 526L224 526L217 469C310 539 369 539 262 519zM254 61C328 75 355 103 294 61C402 167 415 210 382 131C434 295 434 339 427 252C402 466 340 466 434 423C249 437 205 388 289 466L161 77C216 61 254 61 194 65z" />
      <glyph unicode="&#x1A6;" horiz-adv-x="599" d="M555 398C502 218 381 184 555 303L520 -122L416 -122L289 170L180 170L156 0L62 0L159 689L253 689L236 567L319 567C555 510 555 398 476 567zM190 243L291 243C456 312 456 398 408 243C414 493 314 493 456 467L225 493z" />
      <glyph unicode="&#x1A7;" horiz-adv-x="531" d="M332 701C523 642 523 546 448 701C450 371 296 325 523 430C215 296 190 282 250 311C147 251 137 233 165 268C122 190 122 162 127 214C172 66 243 66 122 99C371 89 434 136 307 66L480 75C331 -12 237 -12 412 17C156 -4 124 10 193 -12C67 45 50 71 92 24C25 127 25 161 33 97C98 352 254 398 25 282C328 421 352 433 295 410C394 459 407 477 376 445C426 516 426 543 419 494C392 623 326 623 426 596C213 603 155 562 264 623L109 623C245 701 332 701 178 676z" />
      <glyph unicode="&#x1A8;" horiz-adv-x="461" d="M261 539C429 485 429 409 363 539C389 277 257 241 429 337C182 218 162 207 214 229C128 184 122 173 141 195C114 149 114 133 116 162C146 64 205 64 114 93C318 84 364 119 262 64L410 55C280 -12 200 -12 356 13C15 43 15 133 96 -12C68 270 212 310 15 213C332 367 332 409 309 335C301 466 255 466 332 445C164 450 116 417 205 466L75 478C193 539 261 539 131 518z" />
      <glyph unicode="&#x1A9;" horiz-adv-x="500" d="M520 689L509 611L195 611L359 366L353 304L122 78L434 78L423 0L4 0L14 78L272 340L91 611L101 689z" />
      <glyph unicode="&#x1AA;" horiz-adv-x="309" d="M325 -177C250 -213 207 -213 289 -201C72 -167 72 -86 123 -213C72 -61 74 -54 72 -72L82 0L150 488C114 476 95 476 132 480C-17 523 -17 591 33 476C-10 651 4 675 -17 623C36 717 60 730 18 699C108 750 135 750 83 743C259 708 259 628 213 750C258 605 256 592 259 617L173 0L164 -68C163 -79 163 -87 163 -72C180 -139 214 -139 163 -121C263 -131 293 -117 244 -139zM115 548C142 550 160 556 127 548L168 614C170 632 170 636 169 624C158 678 135 678 170 664C72 642 74 592 96 678C87 548 115 548 73 562z" />
      <glyph unicode="&#x1AB;" horiz-adv-x="355" d="M173 139C171 123 171 112 171 132C185 65 220 65 171 78C269 70 297 82 243 65L324 23L312 -60C234 -213 144 -213 297 -161C65 -199 33 -173 102 -213L74 -117C115 -139 147 -139 96 -133C220 -114 227 -62 191 -139L235 -8C213 -12 201 -12 225 -10C80 30 80 108 123 -12C80 133 82 141 80 122L126 456L35 456L45 527L140 527L173 649L245 657L227 527L351 527L331 456L217 456z" />
      <glyph unicode="&#x1AC;" horiz-adv-x="549" d="M578 608L388 608L303 0L209 0L294 608L203 608C139 584 139 543 160 608C142 512 149 492 139 529L78 461C52 521 52 550 60 491C111 689 210 689 52 634L600 689z" />
      <glyph unicode="&#x1AD;" horiz-adv-x="355" d="M312 676C245 649 237 599 273 676L227 527L351 527L331 456L217 456L173 139C171 117 171 113 171 125C185 65 220 65 171 78C266 73 294 89 241 65L324 23C247 -12 205 -12 287 0C80 30 80 108 125 -12C80 133 82 141 80 122L126 456L35 456L45 527L136 527L146 597C219 750 309 750 159 698C386 736 418 710 349 750L377 654C338 676 312 676 355 668z" />
      <glyph unicode="&#x1AE;" horiz-adv-x="511" d="M256 -66C254 -83 254 -87 254 -76C270 -137 303 -137 254 -120C352 -130 380 -114 333 -137L411 -177C338 -213 295 -213 377 -201C161 -169 161 -88 211 -213C161 -63 163 -55 161 -74L171 0L256 608L62 608L74 689L562 689L540 608L350 608L265 0z" />
      <glyph unicode="&#x1AF;" horiz-adv-x="666" d="M748 715C700 588 612 583 748 633L561 218C441 -12 292 -12 541 78C80 63 80 182 156 -12C81 210 83 224 80 196L149 689L243 689L178 225C175 196 175 183 176 210C213 68 296 68 175 105C452 122 468 231 395 68L533 689L627 689L620 641C673 673 673 717 655 648C671 742 667 760 673 728L739 771C748 735 748 715 745 754z" />
      <glyph unicode="&#x1B0;" horiz-adv-x="606" d="M639 549C592 423 504 417 639 467L445 0L367 0L374 97C269 -12 200 -12 322 25C70 36 70 118 118 -12C71 141 73 153 70 129L126 527L217 527L165 157C162 134 162 124 163 145C181 60 220 60 162 78C329 109 380 184 280 60L428 527L519 527L512 475C564 508 564 551 546 483C562 585 558 598 564 569L630 609C639 572 639 549 636 592z" />
      <glyph unicode="&#x1B1;" horiz-adv-x="685" d="M309 -12C58 89 58 251 153 -12C115 522 237 613 58 405L126 613L136 689L337 689L327 609C157 406 157 248 213 526C212 66 312 66 157 129C404 80 439 110 362 66C500 179 518 229 474 140C545 332 545 392 536 278C517 557 461 613 545 493L470 689L669 689L659 609L552 609C644 494 644 389 608 561C630 248 602 187 644 315C534 77 484 41 574 125C375 -12 309 -12 433 5z" />
      <glyph unicode="&#x1B2;" horiz-adv-x="641" d="M506 701C612 662 612 596 572 701C611 582 610 569 612 591L572 298C544 178 517 132 562 234C455 49 413 25 489 85C325 -12 274 -12 371 0C79 64 79 176 151 -12C80 201 82 214 79 188L149 689L243 689L176 213C173 188 173 177 174 200C210 68 278 68 173 106C456 151 479 311 386 68L516 580C517 587 517 593 516 583C507 624 489 624 517 614C465 621 450 617 478 624L431 684C478 701 506 701 453 695z" />
      <glyph unicode="&#x1B3;" horiz-adv-x="582" d="M225 264L65 689L165 689L283 348L431 598C513 701 581 701 477 676C658 686 687 658 623 701L646 606C606 627 586 627 626 620C538 612 510 568 555 627L320 265L282 0L187 0z" />
      <glyph unicode="&#x1B4;" horiz-adv-x="489" d="M-9 -141C55 -126 78 -115 26 -135C120 -89 136 -71 101 -103C166 -29 182 0 151 -53L148 0L47 527L143 527L217 69L376 469C440 574 503 574 406 545C550 567 571 555 527 574L543 494C522 500 512 500 533 498C473 487 459 453 485 500L271 4C136 -197 -5 -213 216 -128z" />
      <glyph unicode="&#x1B5;" horiz-adv-x="516" d="M532 689L522 612L345 384L439 384L426 310L288 310L109 80L446 81L424 0L-8 0L2 76L185 310L89 310L102 384L242 384L418 609L114 609L125 689z" />
      <glyph unicode="&#x1B6;" horiz-adv-x="431" d="M436 527L427 457L293 299L372 299L361 228L232 228L104 77L376 77L355 0L-13 0L-4 69L131 228L52 228L63 299L191 299L318 449L73 449L84 527z" />
      <glyph unicode="&#x1B7;" horiz-adv-x="514" d="M495 612L258 397C463 333 463 227 395 395C451 137 428 101 463 179C372 37 331 17 404 65C243 -12 191 -12 289 -2C32 18 -13 80 95 -12L46 130C124 66 191 66 83 84C364 127 364 226 296 66C322 328 226 328 364 300L136 328L137 329L146 396L380 611L92 611L103 689L505 689z" />
      <glyph unicode="&#x1B8;" horiz-adv-x="515" d="M519 611L222 611L402 395L394 328L392 329L393 328L309 328C130 268 130 174 197 328C171 66 251 66 130 104C372 86 426 132 324 66L476 76C343 -12 245 -12 414 17C33 61 33 173 114 -12C44 257 66 291 33 217C118 351 158 369 88 325C243 397 295 397 198 387L302 397L118 612L128 689L530 689z" />
      <glyph unicode="&#x1B9;" horiz-adv-x="479" d="M473 451L180 451L352 205L344 138L342 139L343 138L268 138C88 77 88 -24 150 138C129 -138 207 -138 88 -100C321 -117 376 -72 272 -138L424 -125C292 -213 202 -213 362 -185C-9 -138 -9 -22 72 -213C2 63 24 97 -9 23C76 158 116 177 46 131C201 206 253 206 156 196L263 206L83 457L91 527L483 527z" />
      <glyph unicode="&#x1BA;" horiz-adv-x="467" d="M95 -214C-20 -134 -20 -86 21 -179C36 20 167 43 -20 -10C237 56 259 63 206 49C297 80 309 93 281 70C327 124 327 147 321 106C303 204 254 204 327 188L102 204L111 271L326 451L52 451L62 527L449 527L441 457L215 272L265 272C424 228 424 148 363 272C347 -5 205 -29 424 46C140 -40 121 -46 168 -35C89 -58 82 -64 102 -52C72 -78 72 -88 75 -70C91 -131 133 -155 72 -112L95 -214z" />
      <glyph unicode="&#x1BB;" horiz-adv-x="489" d="M311 252C201 148 117 75 266 207L414 77L392 0L1 0L11 75C157 212 199 252 95 153L90 252L101 326L272 326C367 450 367 508 346 407C330 603 272 603 367 569C174 580 124 528 216 603L66 581C199 679 279 679 130 647C462 611 462 511 391 679C440 398 380 326 462 451L466 326L455 252z" />
      <glyph unicode="&#x1BC;" horiz-adv-x="505" d="M191 -12C49 17 0 75 113 -12L59 125C137 63 193 63 92 83C267 73 293 94 234 63C336 141 347 172 318 115C364 233 364 263 358 202C330 365 264 365 364 331C200 358 158 341 226 365L82 342L131 689L498 689L476 617L208 617L179 408C251 436 293 436 213 426C458 370 458 261 394 436C449 177 431 135 458 219C384 58 344 30 413 93C253 -12 191 -12 304 2z" />
      <glyph unicode="&#x1BD;" horiz-adv-x="448" d="M388 451L182 451L162 327C213 346 253 346 190 339C395 288 397 199 338 346C387 121 367 89 397 157C320 32 286 14 347 57C212 -12 169 -12 251 -3C44 13 2 61 93 -12L56 112C119 67 171 67 93 78C300 117 300 197 243 67C270 271 225 271 300 246C164 265 130 249 191 271L64 250L103 527L415 527z" />
      <glyph unicode="&#x1BE;" horiz-adv-x="505" d="M297 431C443 354 443 245 378 412C432 152 410 113 443 196C357 44 319 22 388 74C236 -11 188 -11 280 0C51 18 1 76 109 -11L54 124C135 63 189 63 96 81C348 137 348 245 289 63C315 357 245 376 348 322L175 391L197 545L120 545L130 615L207 615L224 738L315 748L296 615L408 615L398 545L286 545L271 437L297 431z" />
      <glyph unicode="&#x1BF;" horiz-adv-x="585" d="M385 539C542 479 542 378 481 539C528 272 500 230 542 322C436 151 392 121 472 188C291 58 225 26 347 90L147 -10L120 -202L27 -213L131 527L209 527L207 455C313 539 385 539 259 509zM219 99C444 254 444 378 363 172C417 465 364 465 444 438C253 437 201 381 308 465L157 66L219 99z" />
      <glyph unicode="&#x1C0;" horiz-adv-x="283" d="M252 749L147 0L62 0L166 739z" />
      <glyph unicode="&#x1C1;" horiz-adv-x="455" d="M252 749L147 0L62 0L166 739zM424 749L319 0L234 0L338 739z" />
      <glyph unicode="&#x1C2;" horiz-adv-x="313" d="M317 408L218 408L206 322L305 322L296 259L197 259L161 0L76 0L112 259L15 259L24 322L121 322L133 408L36 408L45 471L142 471L180 739L266 749L227 471L326 471z" />
      <glyph unicode="&#x1C3;" horiz-adv-x="335" d="M278 749L202 210L118 210L192 739zM132 -12C70 15 70 51 96 -12C102 127 144 127 70 93C207 100 207 64 181 127C173 -12 132 -12 207 21z" />
      <glyph unicode="&#x1C4;" horiz-adv-x="1130" d="M300 689C601 625 601 428 482 689C588 278 563 214 601 350C497 97 441 58 537 149C314 0 228 0 385 19L62 0L159 689L300 689zM242 613L167 75L242 75C355 92 395 127 304 75C462 205 479 259 434 161C505 369 505 430 496 312C496 519 479 546 505 480C439 590 411 599 461 572C351 613 314 613 383 608zM606 0L616 76L1030 609L728 609L739 689L1146 689L1136 612L725 80L1060 81L1038 0zM1095 909L1130 864L982 754L922 754L802 864L845 909L958 828z" />
      <glyph unicode="&#x1C5;" horiz-adv-x="1060" d="M300 689C601 625 601 428 482 689C588 278 563 214 601 350C497 97 441 58 537 149C314 0 228 0 385 19L62 0L159 689L300 689zM242 613L167 75L242 75C355 92 395 127 304 75C462 205 479 259 434 161C505 369 505 430 496 312C496 519 479 546 505 480C439 590 411 599 461 572C351 613 314 613 383 608zM1065 527L1056 457L738 77L1005 77L984 0L616 0L625 69L942 449L702 449L713 527zM1044 785L1078 740L929 627L869 627L750 740L791 785L904 701z" />
      <glyph unicode="&#x1C6;" horiz-adv-x="1018" d="M560 738L456 0L376 0L377 87C284 -12 218 -12 338 24C51 67 51 197 111 -12C59 299 76 352 51 247C120 449 157 485 93 404C240 539 296 539 193 521C396 517 431 473 351 539L470 748zM313 466C241 451 217 422 273 466C174 356 164 314 192 392C148 230 148 190 153 272C180 61 236 61 148 103C339 100 391 183 297 61L422 402C361 466 313 466 394 444zM1023 527L1014 457L696 77L963 77L942 0L574 0L583 69L900 449L660 449L671 527zM1002 785L1036 740L887 627L827 627L708 740L749 785L862 701z" />
      <glyph unicode="&#x1C7;" horiz-adv-x="773" d="M253 689L168 83L448 83L426 0L62 0L159 689zM655 93C571 -99 447 -138 636 -43L428 -67C484 -41 502 -27 460 -55C533 4 542 24 520 -13C558 71 562 103 551 44L645 689L739 689z" />
      <glyph unicode="&#x1C8;" horiz-adv-x="756" d="M253 689L168 83L448 83L426 0L62 0L159 689zM406 -145C456 -119 472 -107 434 -132C502 -78 513 -57 488 -95C532 -7 538 29 524 -35L608 527L699 527L629 29C611 -58 595 -87 622 -19C559 -140 534 -158 579 -116C475 -194 432 -213 509 -176zM676 655C617 680 617 712 640 655C647 780 686 780 617 750C745 756 745 723 722 780C714 655 676 655 745 684z" />
      <glyph unicode="&#x1C9;" horiz-adv-x="567" d="M158 103C157 95 157 90 157 99C164 64 182 64 157 71C204 66 218 71 192 64L237 5C187 -12 164 -12 211 -6C67 21 67 87 102 -12C67 103 69 118 67 93L157 739L249 750zM217 -145C267 -119 283 -107 245 -132C313 -78 324 -57 299 -95C343 -7 349 29 335 -35L419 527L510 527L440 29C422 -58 406 -87 433 -19C370 -140 345 -158 390 -116C286 -194 243 -213 320 -176zM487 655C428 680 428 712 451 655C458 780 497 780 428 750C556 756 556 723 533 780C525 655 487 655 556 684z" />
      <glyph unicode="&#x1CA;" horiz-adv-x="977" d="M541 0L418 0L221 607C211 429 195 313 220 527L151 0L62 0L159 689L283 689L481 81C485 230 496 316 481 171L549 689L638 689zM859 93C775 -99 651 -138 840 -43L632 -67C688 -41 706 -27 664 -55C737 4 746 24 724 -13C762 71 766 103 755 44L849 689L943 689z" />
      <glyph unicode="&#x1CB;" horiz-adv-x="956" d="M541 0L418 0L221 607C211 429 195 313 220 527L151 0L62 0L159 689L283 689L481 81C485 230 496 316 481 171L549 689L638 689zM606 -145C656 -119 672 -107 634 -132C702 -78 713 -57 688 -95C732 -7 738 29 724 -35L808 527L899 527L829 29C811 -58 795 -87 822 -19C759 -140 734 -158 779 -116C675 -194 632 -213 709 -176zM876 655C817 680 817 712 840 655C847 780 886 780 817 750C945 756 945 723 922 780C914 655 876 655 945 684z" />
      <glyph unicode="&#x1CC;" horiz-adv-x="859" d="M384 539C509 488 509 406 461 539C508 383 506 370 509 395L454 0L363 0L415 368C417 392 417 397 416 382C396 462 359 462 417 443C240 401 192 316 297 462L148 0L57 0L131 527L209 527L201 424C312 539 384 539 253 497zM509 -145C559 -119 575 -107 537 -132C605 -78 616 -57 591 -95C635 -7 641 29 627 -35L711 527L802 527L732 29C714 -58 698 -87 725 -19C662 -140 637 -158 682 -116C578 -194 535 -213 612 -176zM779 655C720 680 720 712 743 655C750 780 789 780 720 750C848 756 848 723 825 780C817 655 779 655 848 684z" />
      <glyph unicode="&#x1CD;" horiz-adv-x="567" d="M427 0L400 173L141 173L65 0L-32 0L284 689L403 689L524 0zM174 250L388 250L332 610zM496 909L531 864L383 754L323 754L203 864L246 909L359 828z" />
      <glyph unicode="&#x1CE;" horiz-adv-x="569" d="M331 539C453 524 516 494 396 539L462 120C460 102 460 98 460 109C468 60 494 51 460 74L468 -12C381 21 375 76 412 -5C278 -12 218 -12 332 21C50 67 50 190 111 -12C59 296 79 350 50 243C130 448 172 484 99 403C267 539 331 539 214 520zM333 466C256 451 228 423 291 466C180 359 167 317 200 395C148 232 148 189 154 275C179 61 237 61 148 102C331 95 378 158 291 61L419 449C367 466 333 466 391 461zM493 785L527 740L378 627L318 627L199 740L240 785L353 701z" />
      <glyph unicode="&#x1CF;" horiz-adv-x="292" d="M253 689L156 0L62 0L159 689zM358 909L393 864L245 754L185 754L65 864L108 909L221 828z" />
      <glyph unicode="&#x1D0;" horiz-adv-x="279" d="M222 527L148 0L57 0L131 527zM331 785L365 740L216 627L156 627L37 740L78 785L191 701z" />
      <glyph unicode="&#x1D1;" horiz-adv-x="686" d="M402 701C648 599 648 421 554 701C636 286 613 220 648 353C553 98 503 54 590 154C387 -12 308 -12 452 10C61 87 61 265 156 -12C72 397 95 464 61 331C155 586 206 632 118 530C322 701 402 701 257 678zM398 623C293 604 257 566 340 623C196 481 181 426 221 528C159 316 159 262 166 371C209 66 311 66 159 131C416 85 452 123 369 66C513 208 528 263 488 161C550 373 550 428 542 318C499 623 398 623 550 558zM559 909L594 864L446 754L386 754L266 864L309 909L422 828z" />
      <glyph unicode="&#x1D2;" horiz-adv-x="578" d="M254 -12C52 70 52 206 124 -12C61 305 79 356 52 255C127 450 168 486 97 407C261 539 325 539 208 521C526 457 526 321 454 539C517 222 499 171 526 272C451 77 411 41 481 120C318 -12 254 -12 370 5zM257 62C333 76 359 105 299 62C403 169 414 210 385 134C430 291 430 331 424 251C394 465 322 465 430 420C246 450 220 421 280 465C175 357 164 316 194 392C148 235 148 196 153 275C184 62 257 62 148 106zM481 785L515 740L366 627L306 627L187 740L228 785L341 701z" />
      <glyph unicode="&#x1D3;" horiz-adv-x="656" d="M561 218C441 -12 292 -12 541 78C80 63 80 182 156 -12C81 210 83 224 80 196L149 689L243 689L178 225C175 196 175 183 176 210C213 68 296 68 175 105C452 122 468 231 395 68L533 689L627 689zM540 909L575 864L427 754L367 754L247 864L290 909L403 828z" />
      <glyph unicode="&#x1D4;" horiz-adv-x="576" d="M200 -12C70 36 70 118 118 -12C71 141 73 153 70 129L126 527L217 527L165 157C162 134 162 124 163 145C181 60 220 60 162 78C329 109 380 184 280 60L428 527L519 527L445 0L367 0L374 97C269 -12 200 -12 322 25zM478 785L512 740L363 627L303 627L184 740L225 785L338 701z" />
      <glyph unicode="&#x1D5;" horiz-adv-x="656" d="M561 218C441 -12 292 -12 541 78C80 63 80 182 156 -12C81 210 83 224 80 196L149 689L243 689L178 225C175 196 175 183 176 210C213 68 296 68 175 105C452 122 468 231 395 68L533 689L627 689zM288 746C235 767 235 797 257 746C262 859 298 859 235 833C351 837 351 808 328 859C324 746 288 746 351 772zM496 746C443 767 443 797 465 746C470 859 506 859 443 833C559 837 559 808 536 859C532 746 496 746 559 772zM544 903L273 903L282 972L553 972z" />
      <glyph unicode="&#x1D6;" horiz-adv-x="576" d="M200 -12C70 36 70 118 118 -12C71 141 73 153 70 129L126 527L217 527L165 157C162 134 162 124 163 145C181 60 220 60 162 78C329 109 380 184 280 60L428 527L519 527L445 0L367 0L374 97C269 -12 200 -12 322 25zM235 624C182 645 182 675 204 624C209 737 245 737 182 711C298 715 298 686 275 737C271 624 235 624 298 650zM443 624C390 645 390 675 412 624C417 737 453 737 390 711C506 715 506 686 483 737C479 624 443 624 506 650zM489 791L218 791L227 860L498 860z" />
      <glyph unicode="&#x1D7;" horiz-adv-x="656" d="M561 218C441 -12 292 -12 541 78C80 63 80 182 156 -12C81 210 83 224 80 196L149 689L243 689L178 225C175 196 175 183 176 210C213 68 296 68 175 105C452 122 468 231 395 68L533 689L627 689zM503 1015L554 961L404 835L368 870zM292 747C239 768 239 798 261 747C266 860 302 860 239 834C355 838 355 809 332 860C328 747 292 747 355 773zM500 747C447 768 447 798 469 747C474 860 510 860 447 834C563 838 563 809 540 860C536 747 500 747 563 773z" />
      <glyph unicode="&#x1D8;" horiz-adv-x="576" d="M200 -12C70 36 70 118 118 -12C71 141 73 153 70 129L126 527L217 527L165 157C162 134 162 124 163 145C181 60 220 60 162 78C329 109 380 184 280 60L428 527L519 527L445 0L367 0L374 97C269 -12 200 -12 322 25zM439 893L490 839L340 713L304 748zM231 625C178 646 178 676 200 625C205 738 241 738 178 712C294 716 294 687 271 738C267 625 231 625 294 651zM439 625C386 646 386 676 408 625C413 738 449 738 386 712C502 716 502 687 479 738C475 625 439 625 502 651z" />
      <glyph unicode="&#x1D9;" horiz-adv-x="656" d="M561 218C441 -12 292 -12 541 78C80 63 80 182 156 -12C81 210 83 224 80 196L149 689L243 689L178 225C175 196 175 183 176 210C213 68 296 68 175 105C452 122 468 231 395 68L533 689L627 689zM547 1021L582 976L434 866L374 866L254 976L297 1021L410 940zM292 747C239 768 239 798 261 747C266 860 302 860 239 834C355 838 355 809 332 860C328 747 292 747 355 773zM500 747C447 768 447 798 469 747C474 860 510 860 447 834C563 838 563 809 540 860C536 747 500 747 563 773z" />
      <glyph unicode="&#x1DA;" horiz-adv-x="576" d="M200 -12C70 36 70 118 118 -12C71 141 73 153 70 129L126 527L217 527L165 157C162 134 162 124 163 145C181 60 220 60 162 78C329 109 380 184 280 60L428 527L519 527L445 0L367 0L374 97C269 -12 200 -12 322 25zM482 899L517 854L369 744L309 744L189 854L232 899L345 818zM228 625C175 646 175 676 197 625C202 738 238 738 175 712C291 716 291 687 268 738C264 625 228 625 291 651zM436 625C383 646 383 676 405 625C410 738 446 738 383 712C499 716 499 687 476 738C472 625 436 625 499 651z" />
      <glyph unicode="&#x1DB;" horiz-adv-x="656" d="M561 218C441 -12 292 -12 541 78C80 63 80 182 156 -12C81 210 83 224 80 196L149 689L243 689L178 225C175 196 175 183 176 210C213 68 296 68 175 105C452 122 468 231 395 68L533 689L627 689zM345 1013L442 866L404 835L286 962zM292 747C239 768 239 798 261 747C266 860 302 860 239 834C355 838 355 809 332 860C328 747 292 747 355 773zM500 747C447 768 447 798 469 747C474 860 510 860 447 834C563 838 563 809 540 860C536 747 500 747 563 773z" />
      <glyph unicode="&#x1DC;" horiz-adv-x="576" d="M200 -12C70 36 70 118 118 -12C71 141 73 153 70 129L126 527L217 527L165 157C162 134 162 124 163 145C181 60 220 60 162 78C329 109 380 184 280 60L428 527L519 527L445 0L367 0L374 97C269 -12 200 -12 322 25zM285 891L382 744L344 713L226 840zM236 625C183 646 183 676 205 625C210 738 246 738 183 712C299 716 299 687 276 738C272 625 236 625 299 651zM444 625C391 646 391 676 413 625C418 738 454 738 391 712C507 716 507 687 484 738C480 625 444 625 507 651z" />
      <glyph unicode="&#x1DD;" horiz-adv-x="517" d="M264 539C465 459 465 325 392 539C455 220 437 168 465 272C389 73 349 39 419 116C256 -12 194 -12 308 5C27 47 27 122 87 -12C153 307 369 331 27 258C329 462 255 462 367 418C162 446 114 413 205 462L75 475C197 539 264 539 134 517zM195 61C349 149 364 261 296 61C123 210 123 125 198 242C144 61 195 61 123 93z" />
      <glyph unicode="&#x1DE;" horiz-adv-x="567" d="M427 0L400 173L141 173L65 0L-32 0L284 689L403 689L524 0zM174 250L388 250L332 610zM244 746C191 767 191 797 213 746C218 859 254 859 191 833C307 837 307 808 284 859C280 746 244 746 307 772zM452 746C399 767 399 797 421 746C426 859 462 859 399 833C515 837 515 808 492 859C488 746 452 746 515 772zM500 903L229 903L238 972L509 972z" />
      <glyph unicode="&#x1DF;" horiz-adv-x="569" d="M331 539C453 524 516 494 396 539L462 120C460 102 460 98 460 109C468 60 494 51 460 74L468 -12C381 21 375 76 412 -5C278 -12 218 -12 332 21C50 67 50 190 111 -12C59 296 79 350 50 243C130 448 172 484 99 403C267 539 331 539 214 520zM333 466C256 451 228 423 291 466C180 359 167 317 200 395C148 232 148 189 154 275C179 61 237 61 148 102C331 95 378 158 291 61L419 449C367 466 333 466 391 461zM250 624C197 645 197 675 219 624C224 737 260 737 197 711C313 715 313 686 290 737C286 624 250 624 313 650zM458 624C405 645 405 675 427 624C432 737 468 737 405 711C521 715 521 686 498 737C494 624 458 624 521 650zM504 791L233 791L242 860L513 860z" />
      <glyph unicode="&#x1E0;" horiz-adv-x="567" d="M427 0L400 173L141 173L65 0L-32 0L284 689L403 689L524 0zM174 250L388 250L332 610zM351 741C292 766 292 798 315 741C322 866 361 866 292 836C420 842 420 809 397 866C389 741 351 741 420 770zM502 904L231 904L240 973L511 973z" />
      <glyph unicode="&#x1E1;" horiz-adv-x="569" d="M331 539C453 524 516 494 396 539L462 120C460 102 460 98 460 109C468 60 494 51 460 74L468 -12C381 21 375 76 412 -5C278 -12 218 -12 332 21C50 67 50 190 111 -12C59 296 79 350 50 243C130 448 172 484 99 403C267 539 331 539 214 520zM333 466C256 451 228 423 291 466C180 359 167 317 200 395C148 232 148 189 154 275C179 61 237 61 148 102C331 95 378 158 291 61L419 449C367 466 333 466 391 461zM351 605C292 630 292 662 315 605C322 730 361 730 292 700C420 706 420 673 397 730C389 605 351 605 420 634zM507 768L236 768L245 837L516 837z" />
      <glyph unicode="&#x1E2;" horiz-adv-x="808" d="M753 613L446 613L470 387L723 387L713 311L479 311L504 76L729 76L718 0L421 0L405 173L139 173L51 0L-49 0L317 689L775 689zM179 250L398 250L364 613zM682 793L411 793L420 862L691 862z" />
      <glyph unicode="&#x1E3;" horiz-adv-x="817" d="M285 539C417 511 443 456 365 539C545 539 623 539 483 505C790 479 790 405 729 539C774 320 744 292 790 357C674 243 625 230 714 264C515 207 443 200 575 217C488 65 562 65 444 105C655 80 703 114 611 65L742 52C619 -12 553 -12 682 9C411 21 379 81 470 -12C262 -12 185 -12 323 14C28 43 28 127 87 -12C105 308 284 308 28 231L365 308C377 360 385 384 370 335C336 464 271 464 382 432C190 456 132 438 223 464L114 507C228 539 285 539 171 528zM622 466C466 379 449 270 522 466C551 283 585 292 505 276C646 314 665 332 619 301C694 372 694 402 684 349C672 466 622 466 694 434zM292 245C128 210 128 126 182 245C152 57 201 57 128 80C309 87 357 151 261 57C355 174 355 204 355 157C355 240 356 245 355 226zM611 667L340 667L349 736L620 736z" />
      <glyph unicode="&#x1E4;" horiz-adv-x="641" d="M623 169L551 169L535 54C394 -12 302 -12 465 10C60 83 60 259 151 -12C72 398 97 466 60 329C161 590 213 634 122 534C329 701 405 701 265 678C552 674 607 622 490 701L548 571C463 623 406 623 501 608C303 604 266 566 350 623C202 481 185 423 229 528C159 307 159 247 167 365C211 66 315 66 159 121C406 77 446 100 363 66L456 169L342 169L353 247L468 247L476 305L356 305L356 382L580 382L561 247L634 247z" />
      <glyph unicode="&#x1E5;" horiz-adv-x="524" d="M445 -23L516 -23L508 -86L425 -86C315 -216 210 -216 387 -172C78 -195 28 -165 147 -216L63 -97C155 -139 214 -139 101 -119C308 -126 332 -86 271 -139L205 -86L213 -23L356 -23L362 13L373 90C277 10 223 10 333 42C52 86 52 208 115 10C62 313 82 364 52 261C133 456 176 489 102 414C272 539 336 539 218 522C456 527 524 494 401 539L451 12zM240 83C339 120 386 182 293 83L427 449C375 466 338 466 397 462C260 453 232 427 296 466C183 369 170 329 204 401C150 249 150 207 156 289C184 83 240 83 150 123z" />
      <glyph unicode="&#x1E6;" horiz-adv-x="625" d="M405 701C552 674 607 622 490 701L548 571C463 623 406 623 501 608C303 604 266 566 350 623C202 481 185 423 229 528C159 307 159 247 167 365C211 66 315 66 159 121C406 77 446 100 363 66L476 305L356 305L356 382L580 382L535 54C394 -12 302 -12 465 10C60 83 60 259 151 -12C72 398 97 466 60 329C161 590 213 634 122 534C329 701 405 701 265 678zM564 909L599 864L451 754L391 754L271 864L314 909L427 828z" />
      <glyph unicode="&#x1E7;" horiz-adv-x="580" d="M337 539C460 524 523 494 403 539L450 12C341 -216 209 -216 426 -149C77 -195 27 -165 146 -216L62 -95C153 -137 204 -137 100 -117C345 -104 361 13 288 -137L370 80C276 0 220 0 328 30C51 76 51 198 114 0C61 309 81 361 51 254C132 455 175 489 101 413C271 539 337 539 217 522zM337 466C259 453 231 427 295 466C182 367 169 326 203 401C149 242 149 197 155 285C183 73 239 73 149 113C336 109 383 172 292 73L426 449C371 466 337 466 395 461zM485 785L519 740L370 627L310 627L191 740L232 785L345 701z" />
      <glyph unicode="&#x1E8;" horiz-adv-x="583" d="M62 0L159 689L254 689L157 0zM434 0L213 368L515 689L626 689L319 365L546 0zM537 909L572 864L424 754L364 754L244 864L287 909L400 828z" />
      <glyph unicode="&#x1E9;" horiz-adv-x="545" d="M209 435C321 539 389 539 258 504C517 489 517 419 463 539C462 267 354 233 517 333L473 0L371 0L245 257C420 335 420 409 369 291C399 466 363 466 420 446C234 413 192 316 303 466L148 0L57 0L161 739L253 750zM506 959L541 914L393 804L333 804L213 914L256 959L369 878z" />
      <glyph unicode="&#x1EA;" horiz-adv-x="686" d="M394 -1C255 -87 255 -126 283 -47C272 -161 302 -161 255 -148C339 -158 365 -153 318 -161L350 -225C309 -231 289 -231 330 -229C175 -191 175 -137 218 -231C205 -42 267 -9 175 -85C61 105 61 265 137 7C72 397 95 464 61 331C155 586 206 632 118 530C322 701 402 701 257 678C648 599 648 421 554 701C639 303 622 245 648 362C577 135 539 90 604 187C452 14 394 -1 501 44zM159 262C209 66 311 66 159 131C416 85 452 123 369 66C513 208 528 263 488 161C550 373 550 428 542 318C499 623 398 623 550 558C293 604 257 566 340 623C196 481 181 426 221 528C159 316 159 262 166 371z" />
      <glyph unicode="&#x1EB;" horiz-adv-x="578" d="M331 -1C192 -87 192 -126 220 -47C209 -161 239 -161 192 -148C276 -158 302 -153 255 -161L287 -225C246 -231 226 -231 267 -229C112 -191 112 -137 155 -231C143 -42 206 -8 112 -85C52 88 52 206 106 10C61 305 79 356 52 255C127 450 168 486 97 407C261 539 325 539 208 521C526 457 526 321 454 539C519 237 506 193 526 279C472 109 443 73 493 149C377 13 331 -1 414 37zM148 196C184 62 257 62 148 106C333 76 359 105 299 62C403 169 414 210 385 134C430 291 430 331 424 251C394 465 322 465 430 420C246 450 220 421 280 465C175 357 164 316 194 392C148 235 148 196 153 275z" />
      <glyph unicode="&#x1EC;" horiz-adv-x="686" d="M568 862L559 793L288 793L297 862zM394 -1C255 -87 255 -126 283 -47C272 -161 302 -161 255 -148C339 -158 365 -153 318 -161L350 -225C309 -231 289 -231 330 -229C175 -191 175 -137 218 -231C205 -42 267 -9 175 -85C61 105 61 265 137 7C72 397 95 464 61 331C155 586 206 632 118 530C322 701 402 701 257 678C648 599 648 421 554 701C639 303 622 245 648 362C577 135 539 90 604 187C452 14 394 -1 501 44zM159 262C209 66 311 66 159 131C416 85 452 123 369 66C513 208 528 263 488 161C550 373 550 428 542 318C499 623 398 623 550 558C293 604 257 566 340 623C196 481 181 426 221 528C159 316 159 262 166 371z" />
      <glyph unicode="&#x1ED;" horiz-adv-x="578" d="M491 736L482 667L211 667L220 736zM331 -1C192 -87 192 -126 220 -47C209 -161 239 -161 192 -148C276 -158 302 -153 255 -161L287 -225C246 -231 226 -231 267 -229C112 -191 112 -137 155 -231C143 -42 206 -8 112 -85C52 88 52 206 106 10C61 305 79 356 52 255C127 450 168 486 97 407C261 539 325 539 208 521C526 457 526 321 454 539C519 237 506 193 526 279C472 109 443 73 493 149C377 13 331 -1 414 37zM148 196C184 62 257 62 148 106C333 76 359 105 299 62C403 169 414 210 385 134C430 291 430 331 424 251C394 465 322 465 430 420C246 450 220 421 280 465C175 357 164 316 194 392C148 235 148 196 153 275z" />
      <glyph unicode="&#x1EE;" horiz-adv-x="514" d="M495 612L258 397C463 333 463 227 395 395C451 137 428 101 463 179C372 37 331 17 404 65C243 -12 191 -12 289 -2C32 18 -13 80 95 -12L46 130C124 66 191 66 83 84C364 127 364 226 296 66C322 328 226 328 364 300L136 328L137 329L146 396L380 611L92 611L103 689L505 689zM456 909L491 864L343 754L283 754L163 864L206 909L319 828z" />
      <glyph unicode="&#x1EF;" horiz-adv-x="475" d="M450 457L204 206C411 141 411 35 341 204C399 -56 377 -94 411 -13C322 -161 282 -182 354 -132C196 -213 145 -213 242 -202C-7 -182 -54 -121 54 -213L3 -73C85 -138 145 -138 47 -121C315 -65 315 35 250 -138C275 138 177 138 315 111L96 138L97 139L106 205L343 451L56 451L67 527L459 527zM418 785L452 740L303 627L243 627L124 740L165 785L278 701z" />
      <glyph unicode="&#x1F0;" horiz-adv-x="279" d="M-71 -145C-20 -119 -4 -107 -43 -132C25 -78 36 -57 11 -95C55 -7 61 29 47 -35L131 527L222 527L152 29C134 -58 118 -87 145 -19C82 -140 57 -158 102 -116C-1 -194 -45 -213 32 -176zM332 785L366 740L217 627L157 627L38 740L79 785L192 701z" />
      <glyph unicode="&#x1F1;" horiz-adv-x="1130" d="M300 689C601 625 601 428 482 689C588 278 563 214 601 350C497 97 441 58 537 149C314 0 228 0 385 19L62 0L159 689L300 689zM242 613L167 75L242 75C355 92 395 127 304 75C462 205 479 259 434 161C505 369 505 430 496 312C496 519 479 546 505 480C439 590 411 599 461 572C351 613 314 613 383 608zM606 0L616 76L1030 609L728 609L739 689L1146 689L1136 612L725 80L1060 81L1038 0z" />
      <glyph unicode="&#x1F2;" horiz-adv-x="1060" d="M300 689C601 625 601 428 482 689C588 278 563 214 601 350C497 97 441 58 537 149C314 0 228 0 385 19L62 0L159 689L300 689zM242 613L167 75L242 75C355 92 395 127 304 75C462 205 479 259 434 161C505 369 505 430 496 312C496 519 479 546 505 480C439 590 411 599 461 572C351 613 314 613 383 608zM1065 527L1056 457L738 77L1005 77L984 0L616 0L625 69L942 449L702 449L713 527z" />
      <glyph unicode="&#x1F3;" horiz-adv-x="1018" d="M560 738L456 0L376 0L377 87C284 -12 218 -12 338 24C51 67 51 197 111 -12C59 299 76 352 51 247C120 449 157 485 93 404C240 539 296 539 193 521C396 517 431 473 351 539L470 748zM313 466C241 451 217 422 273 466C174 356 164 314 192 392C148 230 148 190 153 272C180 61 236 61 148 103C339 100 391 183 297 61L422 402C361 466 313 466 394 444zM1023 527L1014 457L696 77L963 77L942 0L574 0L583 69L900 449L660 449L671 527z" />
      <glyph unicode="&#x1F4;" horiz-adv-x="625" d="M405 701C552 674 607 622 490 701L548 571C463 623 406 623 501 608C303 604 266 566 350 623C202 481 185 423 229 528C159 307 159 247 167 365C211 66 315 66 159 121C406 77 446 100 363 66L476 305L356 305L356 382L580 382L535 54C394 -12 302 -12 465 10C60 83 60 259 151 -12C72 398 97 466 60 329C161 590 213 634 122 534C329 701 405 701 265 678zM519 908L549 831L329 755L310 804z" />
      <glyph unicode="&#x1F5;" horiz-adv-x="580" d="M337 539C460 524 523 494 403 539L450 12C341 -216 209 -216 426 -149C77 -195 27 -165 146 -216L62 -95C153 -137 204 -137 100 -117C345 -104 361 13 288 -137L370 80C276 0 220 0 328 30C51 76 51 198 114 0C61 309 81 361 51 254C132 455 175 489 101 413C271 539 337 539 217 522zM337 466C259 453 231 427 295 466C182 367 169 326 203 401C149 242 149 197 155 285C183 73 239 73 149 113C336 109 383 172 292 73L426 449C371 466 337 466 395 461zM448 801L478 724L258 638L237 687z" />
      <glyph unicode="&#x1F6;" horiz-adv-x="959" d="M630 -12C466 53 466 139 518 -12C466 154 468 168 466 145L489 323L201 323L156 0L62 0L159 689L253 689L212 401L500 401L541 689L635 689L562 168C560 145 560 140 560 154C584 62 633 62 560 88C809 179 809 413 750 62C807 494 804 527 809 456L892 527C900 437 900 397 897 480C820 -12 630 -12 900 157z" />
      <glyph unicode="&#x1F7;" horiz-adv-x="575" d="M409 701C580 638 580 534 507 701C470 304 278 234 580 386L184 201L156 0L62 0L159 689L253 689L246 640C349 701 409 701 294 680zM281 314C481 432 481 531 403 362C451 623 391 623 481 592C280 601 235 559 332 623L195 280L281 314z" />
      <glyph unicode="&#x1F8;" horiz-adv-x="677" d="M541 0L418 0L221 607C211 429 195 313 220 527L151 0L62 0L159 689L283 689L481 81C485 230 496 316 481 171L549 689L638 689zM360 907L546 803L517 754L318 830z" />
      <glyph unicode="&#x1F9;" horiz-adv-x="580" d="M384 539C509 488 509 406 461 539C508 383 506 370 509 395L454 0L363 0L415 368C417 392 417 397 416 382C396 462 359 462 417 443C240 401 192 316 297 462L148 0L57 0L131 527L209 527L201 424C312 539 384 539 253 497zM293 801L476 687L447 638L248 724z" />
      <glyph unicode="&#x1FA;" horiz-adv-x="567" d="M427 0L400 173L141 173L65 0L-32 0L284 689L403 689L524 0zM174 250L388 250L332 610zM370 942C473 900 473 846 431 942C418 730 349 730 473 782C246 771 246 826 287 730C300 942 370 942 246 890zM368 892C307 863 307 827 329 892C323 780 351 780 307 797C413 811 413 846 389 780C396 892 368 892 413 875zM460 1097L490 1020L270 944L251 993z" />
      <glyph unicode="&#x1FB;" horiz-adv-x="569" d="M331 539C453 524 516 494 396 539L462 120C460 102 460 98 460 109C468 60 494 51 460 74L468 -12C381 21 375 76 412 -5C278 -12 218 -12 332 21C50 67 50 190 111 -12C59 296 79 350 50 243C130 448 172 484 99 403C267 539 331 539 214 520zM333 466C256 451 228 423 291 466C180 359 167 317 200 395C148 232 148 189 154 275C179 61 237 61 148 102C331 95 378 158 291 61L419 449C367 466 333 466 391 461zM371 796C474 754 474 700 432 796C419 584 350 584 474 636C247 625 247 680 288 584C301 796 371 796 247 744zM369 746C308 717 308 681 330 746C324 634 352 634 308 651C414 665 414 700 390 634C397 746 369 746 414 729zM461 955L491 878L271 802L252 851z" />
      <glyph unicode="&#x1FC;" horiz-adv-x="808" d="M753 613L446 613L470 387L723 387L713 311L479 311L504 76L729 76L718 0L421 0L405 173L139 173L51 0L-49 0L317 689L775 689zM179 250L398 250L364 613zM637 908L667 831L447 755L428 804z" />
      <glyph unicode="&#x1FD;" horiz-adv-x="817" d="M285 539C417 511 443 456 365 539C545 539 623 539 483 505C790 479 790 405 729 539C774 320 744 292 790 357C674 243 625 230 714 264C515 207 443 200 575 217C488 65 562 65 444 105C655 80 703 114 611 65L742 52C619 -12 553 -12 682 9C411 21 379 81 470 -12C262 -12 185 -12 323 14C28 43 28 127 87 -12C105 308 284 308 28 231L365 308C377 360 385 384 370 335C336 464 271 464 382 432C190 456 132 438 223 464L114 507C228 539 285 539 171 528zM622 466C466 379 449 270 522 466C551 283 585 292 505 276C646 314 665 332 619 301C694 372 694 402 684 349C672 466 622 466 694 434zM292 245C128 210 128 126 182 245C152 57 201 57 128 80C309 87 357 151 261 57C355 174 355 204 355 157C355 240 356 245 355 226zM573 801L603 724L383 638L362 687z" />
      <glyph unicode="&#x1FE;" horiz-adv-x="686" d="M539 665C648 537 648 421 609 619C636 286 613 220 648 353C553 98 503 54 590 154C387 -12 308 -12 452 10C260 -9 241 -5 282 -12L188 -127L111 -106L169 25C61 151 61 265 99 69C72 397 95 464 61 331C155 586 206 632 118 530C322 701 402 701 257 678C448 698 467 694 426 701L522 819L599 798L539 665zM398 623C293 603 257 565 340 623C196 480 181 424 221 527C159 311 159 255 166 368C176 125 211 96 159 178L442 619C414 623 398 623 429 621zM311 66C416 85 452 124 369 66C513 210 528 266 488 162C550 380 550 438 542 322C532 567 496 595 550 514L266 70C293 66 311 66 278 67zM509 923L539 846L319 770L300 819z" />
      <glyph unicode="&#x1FF;" horiz-adv-x="578" d="M446 506C526 405 526 321 498 468C517 222 499 171 526 272C451 77 411 41 481 120C318 -12 254 -12 370 5C219 -10 201 -7 236 -12L146 -130L73 -108L133 21C52 122 52 206 79 57C61 305 79 356 52 255C127 450 168 486 97 407C261 539 325 539 208 521C360 537 378 534 342 539L433 656L506 634L447 508L446 506zM322 465C246 450 220 421 280 465C175 357 164 316 194 392C148 235 148 196 153 275C158 109 178 89 148 144L353 462C332 465 322 465 343 464zM257 62C333 76 359 105 299 62C403 169 414 210 385 134C430 291 430 331 424 251C420 415 402 437 430 379L226 64C249 62 257 62 239 62zM442 801L472 724L252 638L231 687z" />
      <glyph unicode="&#x200;" horiz-adv-x="567" d="M427 0L400 173L141 173L65 0L-32 0L284 689L403 689L524 0zM174 250L388 250L332 610zM260 958L321 785L262 760L178 917zM410 958L462 790L403 765L328 917z" />
      <glyph unicode="&#x201;" horiz-adv-x="569" d="M331 539C453 524 516 494 396 539L462 120C460 102 460 98 460 109C468 60 494 51 460 74L468 -12C381 21 375 76 412 -5C278 -12 218 -12 332 21C50 67 50 190 111 -12C59 296 79 350 50 243C130 448 172 484 99 403C267 539 331 539 214 520zM333 466C256 451 228 423 291 466C180 359 167 317 200 395C148 232 148 189 154 275C179 61 237 61 148 102C331 95 378 158 291 61L419 449C367 466 333 466 391 461zM262 832L323 659L264 634L180 791zM412 832L464 664L405 639L330 791z" />
      <glyph unicode="&#x202;" horiz-adv-x="567" d="M427 0L400 173L141 173L65 0L-32 0L284 689L403 689L524 0zM174 250L388 250L332 610zM206 792C291 922 373 922 226 874C510 868 508 786 455 922L447 778C414 852 369 852 440 827C288 826 266 774 322 852z" />
      <glyph unicode="&#x203;" horiz-adv-x="569" d="M331 539C453 524 516 494 396 539L462 120C460 102 460 98 460 109C468 60 494 51 460 74L468 -12C381 21 375 76 412 -5C278 -12 218 -12 332 21C50 67 50 190 111 -12C59 296 79 350 50 243C130 448 172 484 99 403C267 539 331 539 214 520zM333 466C256 451 228 423 291 466C180 359 167 317 200 395C148 232 148 189 154 275C179 61 237 61 148 102C331 95 378 158 291 61L419 449C367 466 333 466 391 461zM200 630C285 760 367 760 220 712C504 706 502 624 449 760L441 616C408 690 363 690 434 665C282 664 260 612 316 690z" />
      <glyph unicode="&#x204;" horiz-adv-x="529" d="M528 689L507 613L242 613L210 388L440 388L430 312L200 312L167 76L450 76L439 0L62 0L159 689zM263 958L324 785L265 760L181 917zM413 958L465 790L406 765L331 917z" />
      <glyph unicode="&#x205;" horiz-adv-x="517" d="M490 405C364 220 148 196 490 270C188 65 262 65 150 108C355 80 403 114 311 65L442 52C319 -12 253 -12 382 9C52 67 52 202 125 -12C61 306 79 358 52 254C127 453 168 487 97 410C260 539 323 539 208 521C490 479 490 405 429 539zM153 266C394 316 394 402 318 284C372 466 322 466 394 434C167 378 153 266 220 466zM238 832L299 659L240 634L156 791zM388 832L440 664L381 639L306 791z" />
      <glyph unicode="&#x206;" horiz-adv-x="529" d="M528 689L507 613L242 613L210 388L440 388L430 312L200 312L167 76L450 76L439 0L62 0L159 689zM209 792C294 922 376 922 229 874C513 868 511 786 458 922L450 778C417 852 372 852 443 827C291 826 269 774 325 852z" />
      <glyph unicode="&#x207;" horiz-adv-x="517" d="M490 405C364 220 148 196 490 270C188 65 262 65 150 108C355 80 403 114 311 65L442 52C319 -12 253 -12 382 9C52 67 52 202 125 -12C61 306 79 358 52 254C127 453 168 487 97 410C260 539 323 539 208 521C490 479 490 405 429 539zM153 266C394 316 394 402 318 284C372 466 322 466 394 434C167 378 153 266 220 466zM176 630C261 760 343 760 196 712C480 706 478 624 425 760L417 616C384 690 339 690 410 665C258 664 236 612 292 690z" />
      <glyph unicode="&#x208;" horiz-adv-x="292" d="M253 689L156 0L62 0L159 689zM122 958L183 785L124 760L40 917zM272 958L324 790L265 765L190 917z" />
      <glyph unicode="&#x209;" horiz-adv-x="279" d="M222 527L148 0L57 0L131 527zM100 832L161 659L102 634L18 791zM250 832L302 664L243 639L168 791z" />
      <glyph unicode="&#x20A;" horiz-adv-x="292" d="M253 689L156 0L62 0L159 689zM68 792C153 922 235 922 88 874C372 868 370 786 317 922L309 778C276 852 231 852 302 827C150 826 128 774 184 852z" />
      <glyph unicode="&#x20B;" horiz-adv-x="279" d="M222 527L148 0L57 0L131 527zM38 630C123 760 205 760 58 712C342 706 340 624 287 760L279 616C246 690 201 690 272 665C120 664 98 612 154 690z" />
      <glyph unicode="&#x20C;" horiz-adv-x="686" d="M402 701C648 599 648 421 554 701C636 286 613 220 648 353C553 98 503 54 590 154C387 -12 308 -12 452 10C61 87 61 265 156 -12C72 397 95 464 61 331C155 586 206 632 118 530C322 701 402 701 257 678zM398 623C293 604 257 566 340 623C196 481 181 426 221 528C159 316 159 262 166 371C209 66 311 66 159 131C416 85 452 123 369 66C513 208 528 263 488 161C550 373 550 428 542 318C499 623 398 623 550 558zM323 958L384 785L325 760L241 917zM473 958L525 790L466 765L391 917z" />
      <glyph unicode="&#x20D;" horiz-adv-x="578" d="M254 -12C52 70 52 206 124 -12C61 305 79 356 52 255C127 450 168 486 97 407C261 539 325 539 208 521C526 457 526 321 454 539C517 222 499 171 526 272C451 77 411 41 481 120C318 -12 254 -12 370 5zM257 62C333 76 359 105 299 62C403 169 414 210 385 134C430 291 430 331 424 251C394 465 322 465 430 420C246 450 220 421 280 465C175 357 164 316 194 392C148 235 148 196 153 275C184 62 257 62 148 106zM250 832L311 659L252 634L168 791zM400 832L452 664L393 639L318 791z" />
      <glyph unicode="&#x20E;" horiz-adv-x="686" d="M402 701C648 599 648 421 554 701C636 286 613 220 648 353C553 98 503 54 590 154C387 -12 308 -12 452 10C61 87 61 265 156 -12C72 397 95 464 61 331C155 586 206 632 118 530C322 701 402 701 257 678zM398 623C293 604 257 566 340 623C196 481 181 426 221 528C159 316 159 262 166 371C209 66 311 66 159 131C416 85 452 123 369 66C513 208 528 263 488 161C550 373 550 428 542 318C499 623 398 623 550 558zM269 792C354 922 436 922 289 874C573 868 571 786 518 922L510 778C477 852 432 852 503 827C351 826 329 774 385 852z" />
      <glyph unicode="&#x20F;" horiz-adv-x="578" d="M254 -12C52 70 52 206 124 -12C61 305 79 356 52 255C127 450 168 486 97 407C261 539 325 539 208 521C526 457 526 321 454 539C517 222 499 171 526 272C451 77 411 41 481 120C318 -12 254 -12 370 5zM257 62C333 76 359 105 299 62C403 169 414 210 385 134C430 291 430 331 424 251C394 465 322 465 430 420C246 450 220 421 280 465C175 357 164 316 194 392C148 235 148 196 153 275C184 62 257 62 148 106zM188 630C273 760 355 760 208 712C492 706 490 624 437 760L429 616C396 690 351 690 422 665C270 664 248 612 304 690z" />
      <glyph unicode="&#x210;" horiz-adv-x="599" d="M572 518C519 340 398 306 572 424L537 0L433 0L306 292L197 292L156 0L62 0L159 689L336 689C572 632 572 518 493 689zM207 365L308 365C473 434 473 517 425 365C429 615 331 615 473 587L242 615zM272 958L333 785L274 760L190 917zM422 958L474 790L415 765L340 917z" />
      <glyph unicode="&#x211;" horiz-adv-x="381" d="M356 539C390 536 409 532 372 539L382 443C355 448 339 448 369 446C226 391 188 279 273 448L148 0L57 0L131 527L209 527L203 419C296 539 356 539 241 499zM197 832L258 659L199 634L115 791zM347 832L399 664L340 639L265 791z" />
      <glyph unicode="&#x212;" horiz-adv-x="599" d="M572 518C519 340 398 306 572 424L537 0L433 0L306 292L197 292L156 0L62 0L159 689L336 689C572 632 572 518 493 689zM207 365L308 365C473 434 473 517 425 365C429 615 331 615 473 587L242 615zM218 792C303 922 385 922 238 874C522 868 520 786 467 922L459 778C426 852 381 852 452 827C300 826 278 774 334 852z" />
      <glyph unicode="&#x213;" horiz-adv-x="381" d="M356 539C390 536 409 532 372 539L382 443C355 448 339 448 369 446C226 391 188 279 273 448L148 0L57 0L131 527L209 527L203 419C296 539 356 539 241 499zM135 630C220 760 302 760 155 712C439 706 437 624 384 760L376 616C343 690 298 690 369 665C217 664 195 612 251 690z" />
      <glyph unicode="&#x214;" horiz-adv-x="656" d="M561 218C441 -12 292 -12 541 78C80 63 80 182 156 -12C81 210 83 224 80 196L149 689L243 689L178 225C175 196 175 183 176 210C213 68 296 68 175 105C452 122 468 231 395 68L533 689L627 689zM304 958L365 785L306 760L222 917zM454 958L506 790L447 765L372 917z" />
      <glyph unicode="&#x215;" horiz-adv-x="576" d="M200 -12C70 36 70 118 118 -12C71 141 73 153 70 129L126 527L217 527L165 157C162 134 162 124 163 145C181 60 220 60 162 78C329 109 380 184 280 60L428 527L519 527L445 0L367 0L374 97C269 -12 200 -12 322 25zM247 832L308 659L249 634L165 791zM397 832L449 664L390 639L315 791z" />
      <glyph unicode="&#x216;" horiz-adv-x="656" d="M561 218C441 -12 292 -12 541 78C80 63 80 182 156 -12C81 210 83 224 80 196L149 689L243 689L178 225C175 196 175 183 176 210C213 68 296 68 175 105C452 122 468 231 395 68L533 689L627 689zM250 792C335 922 417 922 270 874C554 868 552 786 499 922L491 778C458 852 413 852 484 827C332 826 310 774 366 852z" />
      <glyph unicode="&#x217;" horiz-adv-x="576" d="M200 -12C70 36 70 118 118 -12C71 141 73 153 70 129L126 527L217 527L165 157C162 134 162 124 163 145C181 60 220 60 162 78C329 109 380 184 280 60L428 527L519 527L445 0L367 0L374 97C269 -12 200 -12 322 25zM185 630C270 760 352 760 205 712C489 706 487 624 434 760L426 616C393 690 348 690 419 665C267 664 245 612 301 690z" />
      <glyph unicode="&#x218;" horiz-adv-x="539" d="M324 701C473 672 527 618 410 701L468 563C381 623 324 623 425 605C183 580 183 511 242 623C212 431 312 398 183 457C492 315 492 209 426 362C482 136 462 102 492 171C412 41 372 20 442 68C282 -12 222 -12 332 -1C53 18 -1 80 127 -12L59 136C153 66 224 66 101 89C394 120 394 204 326 66C363 290 267 324 394 262C87 412 87 506 141 368C96 568 115 598 87 537C160 652 196 672 133 628C274 701 324 701 232 691zM216 -77C268 -102 268 -129 248 -77C260 -168 232 -214 268 -151L180 -296L126 -296L174 -178C155 -151 155 -136 161 -165C182 -77 216 -77 155 -102z" />
      <glyph unicode="&#x219;" horiz-adv-x="461" d="M263 539C387 517 436 474 329 539L391 419C308 466 262 466 351 450C157 439 157 395 198 466C184 339 263 315 157 355C412 238 412 157 365 283C401 88 381 63 412 119C333 18 300 6 360 37C231 -12 193 -12 267 -5C50 13 -2 64 115 -12L50 117C142 62 197 62 93 80C316 104 316 148 281 62C312 180 306 191 316 166C288 211 272 219 299 201C234 235 205 245 256 227C64 317 64 389 103 275C71 437 86 460 64 413C123 502 153 517 100 483C219 539 263 539 183 531zM183 -77C235 -102 235 -129 215 -77C227 -168 199 -214 235 -151L147 -296L93 -296L141 -178C122 -151 122 -136 128 -165C149 -77 183 -77 122 -102z" />
      <glyph unicode="&#x21A;" horiz-adv-x="511" d="M562 689L540 608L350 608L265 0L171 0L256 608L62 608L74 689zM208 -77C260 -102 260 -129 240 -77C252 -168 224 -214 260 -151L172 -296L118 -296L166 -178C147 -151 147 -136 153 -165C174 -77 208 -77 147 -102z" />
      <glyph unicode="&#x21B;" horiz-adv-x="355" d="M173 139C171 117 171 113 171 125C186 65 218 65 171 79C263 72 294 87 242 65L324 23C248 -12 207 -12 287 0C80 31 80 109 125 -12C80 133 82 141 80 123L126 456L35 456L45 527L140 527L173 649L245 657L227 527L351 527L331 456L217 456zM192 -77C244 -102 244 -129 224 -77C236 -168 208 -214 244 -151L156 -296L102 -296L150 -178C131 -151 131 -136 137 -165C158 -77 192 -77 131 -102z" />
      <glyph unicode="&#x21C;" horiz-adv-x="499" d="M282 701C470 635 470 538 402 701C413 383 313 358 470 443C448 301 448 220 390 350C271 -58 19 -102 448 50L15 -25C347 93 347 219 223 21C304 315 214 315 347 284L147 315L170 393L222 393C372 447 372 533 307 393C339 623 274 623 372 593C165 601 105 560 216 623L60 618C200 701 282 701 130 674z" />
      <glyph unicode="&#x21D;" horiz-adv-x="481" d="M245 539C423 488 423 400 349 539C378 293 300 271 423 332C417 235 417 175 374 269C247 -55 30 -103 417 37L22 -34C320 84 320 172 226 26C290 229 234 229 320 214L133 229L149 301L200 301C329 335 329 399 277 301C294 467 241 467 329 445C143 452 93 423 183 467L57 481C174 539 245 539 115 521z" />
      <glyph unicode="&#x21E;" horiz-adv-x="674" d="M156 0L62 0L159 689L253 689L212 401L500 401L541 689L635 689L538 0L444 0L489 323L201 323zM549 909L584 864L436 754L376 754L256 864L299 909L412 828z" />
      <glyph unicode="&#x21F;" horiz-adv-x="581" d="M381 539C509 489 509 407 461 539C508 381 507 373 509 392L454 0L363 0L415 368C417 392 417 398 416 382C396 462 362 462 417 444C239 401 191 316 298 462L148 0L57 0L161 738L253 748L207 428C314 539 381 539 256 502zM508 959L543 914L395 804L335 804L215 914L258 959L371 878z" />
      <glyph unicode="&#x220;" horiz-adv-x="662" d="M444 701C609 636 609 540 550 701C608 516 606 504 609 528L507 -202L413 -202L510 491C513 519 513 531 512 506C486 623 424 623 513 593C300 591 231 529 353 623L156 0L62 0L159 689L240 689L237 611C365 701 444 701 301 669z" />
      <glyph unicode="&#x221;" horiz-adv-x="729" d="M628 224C729 187 729 131 686 224C647 -12 539 -12 729 41C495 -9 475 -4 516 -12L434 -75L378 -49L422 23C389 63 385 93 401 40C283 -12 218 -12 339 23C51 67 51 197 111 -12C59 299 76 352 51 247C120 449 157 485 93 404C240 539 296 539 193 521C396 517 431 473 351 539L470 748L560 738L474 130C472 110 472 106 472 118L474 109C561 224 628 224 514 181zM421 402C361 466 313 466 394 444C241 451 217 422 273 466C174 356 164 314 192 392C148 230 148 190 153 272C180 61 236 61 148 103C339 101 390 183 297 61zM552 66C650 89 650 128 610 66C640 157 620 157 650 147C565 136 521 67 586 157C537 66 552 66 527 66z" />
      <glyph unicode="&#x222;" horiz-adv-x="646" d="M587 543C538 414 468 385 576 464C585 303 585 230 542 357C572 146 548 109 585 186C489 43 444 21 524 72C347 -12 288 -12 399 -1C192 -3 156 13 236 -12C92 53 74 83 120 30C46 145 46 182 55 112C109 352 213 387 46 278C138 453 138 511 163 412C139 536 141 549 138 523L161 689L255 689L235 548C231 518 231 512 232 530C268 421 342 421 231 451C483 475 494 554 435 421L513 689L608 689L587 543zM291 66C486 127 486 227 413 66C438 343 338 343 486 301C144 282 144 184 218 343C193 66 291 66 144 105z" />
      <glyph unicode="&#x223;" horiz-adv-x="572" d="M520 554C471 436 409 407 510 487C511 326 511 249 475 380C499 157 477 117 511 201C423 46 383 23 454 77C299 -12 251 -12 343 0C171 -3 141 13 208 -12C87 53 71 82 110 30C47 144 47 181 55 111C104 373 200 407 47 291C133 473 133 528 155 433C133 545 135 560 133 534L161 739L252 739L226 554C224 536 224 522 224 546C251 437 307 437 224 465C420 489 430 560 376 437L455 739L546 739L520 554zM253 62C414 141 414 249 361 62C378 366 302 366 414 327C238 357 214 340 267 366C173 300 161 272 190 323C143 213 143 181 149 244C181 62 253 62 143 102z" />
      <glyph unicode="&#x224;" horiz-adv-x="516" d="M522 612L111 80L441 81L429 0L420 -60C345 -213 255 -213 404 -162C176 -199 144 -173 213 -213L185 -116C223 -138 253 -138 209 -132C320 -112 328 -60 295 -138L337 0L-8 0L2 76L416 609L114 609L125 689L532 689z" />
      <glyph unicode="&#x225;" horiz-adv-x="429" d="M427 457L109 77L370 77L360 0L352 -60C276 -213 187 -213 337 -161C108 -199 76 -173 145 -213L117 -117C156 -139 183 -139 141 -133C256 -114 263 -62 227 -139L272 0L-13 0L-4 69L313 449L73 449L84 527L436 527z" />
      <glyph unicode="&#x226;" horiz-adv-x="567" d="M427 0L400 173L141 173L65 0L-32 0L284 689L403 689L524 0zM174 250L388 250L332 610zM364 781C305 806 305 838 328 781C335 906 374 906 305 876C433 882 433 849 410 906C402 781 364 781 433 810z" />
      <glyph unicode="&#x227;" horiz-adv-x="569" d="M331 539C453 524 516 494 396 539L462 120C460 102 460 98 460 109C468 60 494 51 460 74L468 -12C381 21 375 76 412 -5C278 -12 218 -12 332 21C50 67 50 190 111 -12C59 296 79 350 50 243C130 448 172 484 99 403C267 539 331 539 214 520zM333 466C256 451 228 423 291 466C180 359 167 317 200 395C148 232 148 189 154 275C179 61 237 61 148 102C331 95 378 158 291 61L419 449C367 466 333 466 391 461zM360 655C301 680 301 712 324 655C331 780 370 780 301 750C429 756 429 723 406 780C398 655 360 655 429 684z" />
      <glyph unicode="&#x228;" horiz-adv-x="529" d="M242 613L210 388L440 388L430 312L200 312L167 76L450 76L439 0L280 0L271 -56C353 -92 353 -136 327 -61C304 -241 220 -241 353 -192C155 -232 131 -214 184 -241L162 -167C199 -181 223 -181 179 -176C278 -166 278 -138 256 -181C258 -99 196 -99 278 -108L220 0L62 0L159 689L528 689L507 613z" />
      <glyph unicode="&#x229;" horiz-adv-x="517" d="M490 405C364 220 148 196 490 270C188 65 262 65 150 108C355 80 403 114 311 65L442 52C333 -7 275 -11 389 14L268 -56C350 -93 350 -137 321 -61C301 -241 221 -241 350 -195C152 -232 128 -214 183 -241L159 -165C193 -181 221 -181 177 -175C275 -164 275 -138 253 -181C255 -99 193 -99 275 -108L215 -9C52 82 52 202 111 4C61 306 79 358 52 254C127 453 168 487 97 410C260 539 323 539 208 521C490 479 490 405 429 539zM153 266C394 316 394 402 318 284C372 466 322 466 394 434C167 378 153 266 220 466z" />
      <glyph unicode="&#x22A;" horiz-adv-x="686" d="M402 701C648 599 648 421 554 701C636 286 613 220 648 353C553 98 503 54 590 154C387 -12 308 -12 452 10C61 87 61 265 156 -12C72 397 95 464 61 331C155 586 206 632 118 530C322 701 402 701 257 678zM398 623C293 604 257 566 340 623C196 481 181 426 221 528C159 316 159 262 166 371C209 66 311 66 159 131C416 85 452 123 369 66C513 208 528 263 488 161C550 373 550 428 542 318C499 623 398 623 550 558zM307 746C254 767 254 797 276 746C281 859 317 859 254 833C370 837 370 808 347 859C343 746 307 746 370 772zM515 746C462 767 462 797 484 746C489 859 525 859 462 833C578 837 578 808 555 859C551 746 515 746 578 772zM563 903L292 903L301 972L572 972z" />
      <glyph unicode="&#x22B;" horiz-adv-x="578" d="M254 -12C52 70 52 206 124 -12C61 305 79 356 52 255C127 450 168 486 97 407C261 539 325 539 208 521C526 457 526 321 454 539C517 222 499 171 526 272C451 77 411 41 481 120C318 -12 254 -12 370 5zM257 62C333 76 359 105 299 62C403 169 414 210 385 134C430 291 430 331 424 251C394 465 322 465 430 420C246 450 220 421 280 465C175 357 164 316 194 392C148 235 148 196 153 275C184 62 257 62 148 106zM238 624C185 645 185 675 207 624C212 737 248 737 185 711C301 715 301 686 278 737C274 624 238 624 301 650zM446 624C393 645 393 675 415 624C420 737 456 737 393 711C509 715 509 686 486 737C482 624 446 624 509 650zM492 791L221 791L230 860L501 860z" />
      <glyph unicode="&#x22C;" horiz-adv-x="686" d="M567 911L296 911L305 980L576 980zM477 758C427 769 403 788 446 758C378 806 366 806 387 800C324 790 303 758 342 806L251 790C325 876 368 876 286 847C411 865 437 847 397 876C463 828 475 828 454 833C514 842 536 874 496 828L590 842C517 758 477 758 556 786zM402 701C648 599 648 421 554 701C636 286 613 220 648 353C553 98 503 54 590 154C387 -12 308 -12 452 10C61 87 61 265 156 -12C72 397 95 464 61 331C155 586 206 632 118 530C322 701 402 701 257 678zM398 623C293 604 257 566 340 623C196 481 181 426 221 528C159 316 159 262 166 371C209 66 311 66 159 131C416 85 452 123 369 66C513 208 528 263 488 161C550 373 550 428 542 318C499 623 398 623 550 558z" />
      <glyph unicode="&#x22D;" horiz-adv-x="578" d="M254 -12C52 70 52 206 124 -12C61 305 79 356 52 255C127 450 168 486 97 407C261 539 325 539 208 521C526 457 526 321 454 539C517 222 499 171 526 272C451 77 411 41 481 120C318 -12 254 -12 370 5zM257 62C333 76 359 105 299 62C403 169 414 210 385 134C430 291 430 331 424 251C394 465 322 465 430 420C246 450 220 421 280 465C175 357 164 316 194 392C148 235 148 196 153 275C184 62 257 62 148 106zM392 596C342 607 318 626 361 596C293 644 281 644 302 638C239 628 218 596 257 644L166 628C240 714 283 714 201 685C326 703 352 685 312 714C378 666 390 666 369 671C429 680 451 712 411 666L505 680C432 596 392 596 471 624zM484 749L213 749L222 818L493 818z" />
      <glyph unicode="&#x22E;" horiz-adv-x="686" d="M402 701C648 599 648 421 554 701C636 286 613 220 648 353C553 98 503 54 590 154C387 -12 308 -12 452 10C61 87 61 265 156 -12C72 397 95 464 61 331C155 586 206 632 118 530C322 701 402 701 257 678zM398 623C293 604 257 566 340 623C196 481 181 426 221 528C159 316 159 262 166 371C209 66 311 66 159 131C416 85 452 123 369 66C513 208 528 263 488 161C550 373 550 428 542 318C499 623 398 623 550 558zM427 781C368 806 368 838 391 781C398 906 437 906 368 876C496 882 496 849 473 906C465 781 427 781 496 810z" />
      <glyph unicode="&#x22F;" horiz-adv-x="578" d="M254 -12C52 70 52 206 124 -12C61 305 79 356 52 255C127 450 168 486 97 407C261 539 325 539 208 521C526 457 526 321 454 539C517 222 499 171 526 272C451 77 411 41 481 120C318 -12 254 -12 370 5zM257 62C333 76 359 105 299 62C403 169 414 210 385 134C430 291 430 331 424 251C394 465 322 465 430 420C246 450 220 421 280 465C175 357 164 316 194 392C148 235 148 196 153 275C184 62 257 62 148 106zM348 655C289 680 289 712 312 655C319 780 358 780 289 750C417 756 417 723 394 780C386 655 348 655 417 684z" />
      <glyph unicode="&#x230;" horiz-adv-x="686" d="M402 701C648 599 648 421 554 701C636 286 613 220 648 353C553 98 503 54 590 154C387 -12 308 -12 452 10C61 87 61 265 156 -12C72 397 95 464 61 331C155 586 206 632 118 530C322 701 402 701 257 678zM398 623C293 604 257 566 340 623C196 481 181 426 221 528C159 316 159 262 166 371C209 66 311 66 159 131C416 85 452 123 369 66C513 208 528 263 488 161C550 373 550 428 542 318C499 623 398 623 550 558zM414 741C355 766 355 798 378 741C385 866 424 866 355 836C483 842 483 809 460 866C452 741 414 741 483 770zM565 904L294 904L303 973L574 973z" />
      <glyph unicode="&#x231;" horiz-adv-x="578" d="M254 -12C52 70 52 206 124 -12C61 305 79 356 52 255C127 450 168 486 97 407C261 539 325 539 208 521C526 457 526 321 454 539C517 222 499 171 526 272C451 77 411 41 481 120C318 -12 254 -12 370 5zM257 62C333 76 359 105 299 62C403 169 414 210 385 134C430 291 430 331 424 251C394 465 322 465 430 420C246 450 220 421 280 465C175 357 164 316 194 392C148 235 148 196 153 275C184 62 257 62 148 106zM339 605C280 630 280 662 303 605C310 730 349 730 280 700C408 706 408 673 385 730C377 605 339 605 408 634zM495 768L224 768L233 837L504 837z" />
      <glyph unicode="&#x232;" horiz-adv-x="544" d="M600 689L320 265L283 0L187 0L225 264L65 689L164 689L282 348L497 689zM487 793L216 793L225 862L496 862z" />
      <glyph unicode="&#x233;" horiz-adv-x="486" d="M270 -5C133 -198 -5 -213 215 -126L-9 -141C56 -126 78 -115 27 -135C119 -89 135 -71 100 -103C166 -30 182 0 150 -53L148 0L47 527L143 527L217 70L419 527L514 527zM436 667L165 667L174 736L445 736z" />
      <glyph unicode="&#x234;" horiz-adv-x="417" d="M316 224C417 187 417 131 374 224C335 -12 227 -12 417 41C183 -9 163 -4 204 -12L122 -75L66 -49L110 23C71 76 71 118 84 45C71 133 73 147 71 124L157 739L249 750L162 130C160 108 160 105 160 116C250 224 316 224 206 185zM240 66C338 89 338 128 298 66C328 157 308 157 338 147C253 136 209 67 274 157C225 66 240 66 215 66z" />
      <glyph unicode="&#x235;" horiz-adv-x="728" d="M627 224C728 187 728 131 685 224C646 -12 538 -12 728 41C494 -9 475 -4 515 -12L433 -75L377 -49L421 23C382 77 382 119 395 45C382 133 384 147 382 124L415 368C417 392 417 397 416 382C396 462 359 462 417 443C239 401 191 316 297 462L148 0L57 0L131 527L209 527L201 424C312 539 384 539 253 497C509 488 509 406 461 539C508 383 506 370 509 395L472 130C470 108 471 104 470 117C561 224 627 224 516 184zM551 66C649 89 649 128 609 66C639 157 619 157 649 147C564 136 520 67 585 157C536 66 551 66 526 66z" />
      <glyph unicode="&#x236;" horiz-adv-x="427" d="M326 224C427 187 427 131 384 224C345 -12 237 -12 427 41C193 -9 174 -4 214 -12L132 -75L76 -49L120 23C81 77 81 119 94 45C81 133 83 147 81 124L126 456L35 456L45 527L140 527L173 649L245 657L227 527L351 527L331 456L217 456L171 129C169 108 170 104 169 116C260 224 326 224 215 184zM250 66C348 89 348 128 308 66C338 157 318 157 348 147C263 136 219 67 284 157C235 66 250 66 225 66z" />
      <glyph unicode="&#x237;" horiz-adv-x="279" d="M-71 -145C-20 -119 -4 -107 -43 -132C25 -78 36 -57 11 -95C55 -7 61 29 47 -35L131 527L222 527L152 29C134 -58 118 -87 145 -19C82 -140 57 -158 102 -116C-1 -194 -45 -213 32 -176z" />
      <glyph unicode="&#x238;" horiz-adv-x="850" d="M647 539C799 463 799 334 741 539C789 220 771 167 799 276C725 70 689 37 752 113C612 -12 564 -12 653 4C474 16 444 70 510 -12L425 0L356 0L358 76C260 -12 208 -12 314 17C51 68 51 196 110 -12C60 309 80 362 51 254C126 457 162 490 99 414C238 539 285 539 197 522C383 509 409 460 339 539L448 739L541 750L500 461C587 539 647 539 542 513zM230 61C319 89 367 152 279 61L400 392C341 466 300 466 374 441C238 452 215 424 266 466C175 361 164 319 192 396C148 237 148 197 153 277C175 61 230 61 148 106zM552 61C612 75 635 104 584 61C674 168 686 210 657 132C703 294 703 334 697 252C673 466 621 466 703 428C527 433 490 384 567 466L455 139C505 61 552 61 484 81z" />
      <glyph unicode="&#x239;" horiz-adv-x="850" d="M645 539C800 464 800 343 743 539C790 222 772 168 799 280C727 70 691 37 754 114C613 -12 565 -12 655 4C471 16 446 72 511 -12L408 -202L314 -213L354 71C262 -12 204 -12 312 15C148 -3 125 13 174 -12C83 54 70 86 101 30C51 154 51 196 57 118C60 309 80 362 51 254C128 457 165 490 100 414C244 539 293 539 201 522C388 510 414 458 343 539L431 527L496 527L494 458C588 539 645 539 538 512zM230 61C322 90 366 158 280 61L399 386C343 466 301 466 375 440C240 452 217 424 268 466C176 362 165 320 193 396C148 237 148 196 153 278C175 61 230 61 148 106zM550 63C612 76 635 104 584 63C675 167 686 210 658 132C703 297 703 343 697 253C676 466 623 466 703 425C533 437 489 379 578 466L458 156C506 63 550 63 476 90z" />
      <glyph unicode="&#x23A;" horiz-adv-x="567" d="M432 0L404 173L270 173L171 -70L126 -59L220 173L138 173L61 0L-32 0L284 689L403 689L411 642L455 750L500 739L426 557L524 0zM170 247L250 247L352 497L333 614zM300 247L392 247L366 409z" />
      <glyph unicode="&#x23B;" horiz-adv-x="555" d="M525 577C488 602 468 611 507 591L251 78C289 68 312 68 269 71C413 89 467 127 372 68L509 63C382 -12 306 -12 449 13C245 -7 220 1 274 -12L191 -70L146 -59L178 20C61 148 61 268 103 62C72 401 96 468 61 334C157 590 207 634 120 534C319 701 394 701 257 678C433 699 453 696 413 701L475 750L520 739L497 683C554 654 579 630 527 671L525 577zM423 622C409 623 398 623 417 622C296 604 260 567 342 623C199 484 183 429 224 530C160 317 160 260 167 373C177 135 212 103 160 188z" />
      <glyph unicode="&#x23C;" horiz-adv-x="472" d="M423 424C391 447 377 453 407 438L218 71C242 66 255 66 230 67C331 79 377 107 299 66L414 43C307 -12 249 -12 362 6C207 -9 187 -4 227 -12L160 -70L119 -59L148 11C52 109 52 203 85 43C61 304 80 356 52 253C128 451 168 486 98 408C258 539 319 539 208 521C351 537 365 535 336 539L390 595L431 584L406 524C452 499 472 481 430 514L423 424zM335 462C326 463 320 463 331 462C245 449 219 421 278 463C175 359 164 319 193 393C148 237 148 196 153 278C159 113 181 91 148 148z" />
      <glyph unicode="&#x23D;" horiz-adv-x="499" d="M175 83L455 83L433 0L69 0L115 324L25 324L36 402L126 402L166 689L260 689L220 402L317 402L306 324L209 324z" />
      <glyph unicode="&#x23E;" horiz-adv-x="511" d="M540 608L440 608L314 355L264 0L172 0L186 100L101 -70L63 -54L204 228L257 608L62 608L74 689L435 689L465 750L503 734L481 689L562 689zM332 483L394 608L349 608z" />
      <glyph unicode="&#x23F;" horiz-adv-x="471" d="M273 315C422 238 422 157 375 283C411 89 391 64 422 120C344 19 313 7 370 38C251 -12 220 -12 282 -5C178 -8 154 -2 200 -12C202 -51 222 -87 186 -27C253 -138 285 -138 242 -123C324 -132 346 -123 309 -138L372 -185C312 -213 274 -213 345 -203C232 -208 216 -199 251 -213C188 -177 178 -163 200 -189C156 -127 142 -101 168 -148C72 21 8 64 102 -26L52 116C152 62 212 62 104 81C326 104 326 148 290 62C322 180 316 191 326 166C298 211 282 219 309 201C244 235 215 245 266 227C74 317 74 389 113 275C81 437 96 460 74 413C133 502 163 517 110 483C229 539 273 539 193 531C397 517 446 474 339 539L402 419C318 466 272 466 361 450C167 439 167 395 208 466C194 339 273 315 167 355z" />
      <glyph unicode="&#x240;" horiz-adv-x="431" d="M-4 69L315 449L73 449L84 527L436 527L427 457L83 51C178 -3 217 -66 149 33C264 -138 302 -138 246 -115C343 -132 363 -122 322 -138L389 -185C329 -213 291 -213 362 -203C248 -209 232 -201 267 -213C203 -182 193 -170 216 -193C171 -141 158 -121 183 -158C128 -77 116 -63 142 -97C87 -35 66 -23 104 -48C18 -3 -13 0 44 -11z" />
      <glyph unicode="&#x241;" horiz-adv-x="466" d="M159 319L231 339C379 421 379 515 329 367C342 623 273 623 379 584C163 600 107 558 215 623L61 618C200 701 281 701 127 673C480 628 480 522 402 701C410 312 271 279 480 393L246 273L208 0L114 0z" />
      <glyph unicode="&#x242;" horiz-adv-x="441" d="M112 197L183 217C316 291 316 365 271 241C282 461 220 461 316 425C132 443 79 406 166 461L33 466C150 539 228 539 95 515C412 468 412 367 342 539C343 184 227 158 412 257L196 151L175 0L84 0z" />
      <glyph unicode="&#x243;" horiz-adv-x="614" d="M423 364C562 309 562 220 505 349C476 0 264 0 562 86L74 0L98 168L8 168L19 238L108 238L171 689L361 689C577 637 577 535 491 689C511 382 423 364 577 443zM254 614L224 397L325 397C481 442 481 532 414 397C436 614 364 614 481 593zM268 76C464 130 464 222 413 76C418 324 328 324 464 290L214 324L202 238L359 238L348 168L192 168L179 76L268 76z" />
      <glyph unicode="&#x244;" horiz-adv-x="685" d="M684 508L616 508L575 218C455 -12 306 -12 555 78C94 63 94 182 170 -12C95 210 97 224 94 196L137 508L69 508L79 577L147 577L163 689L257 689L241 577L531 577L547 689L641 689L625 577L694 577zM521 508L232 508L192 225C189 196 189 183 190 210C227 68 310 68 189 105C466 122 482 231 409 68z" />
      <glyph unicode="&#x245;" horiz-adv-x="567" d="M403 689L524 0L427 0L332 610L65 0L-32 0L284 689z" />
      <glyph unicode="&#x246;" horiz-adv-x="529" d="M507 613L449 613L357 388L440 388L430 312L326 312L230 76L450 76L439 0L199 0L171 -70L126 -59L150 0L62 0L159 689L430 689L455 750L500 739L480 689L528 689zM308 388L399 613L242 613L210 388zM181 76L277 312L200 312L167 76z" />
      <glyph unicode="&#x247;" horiz-adv-x="517" d="M490 405C409 242 268 214 490 297L210 74C242 65 262 65 225 68C355 80 403 114 311 65L442 52C319 -12 253 -12 382 9C202 -8 178 -1 227 -12L150 -70L109 -59L140 16C52 115 52 202 82 50C61 306 79 358 52 254C127 453 168 487 97 410C260 539 323 539 208 521C342 538 356 537 331 539L380 595L421 584L398 527C490 458 490 405 456 507zM322 466C167 378 153 266 220 466C220 275 250 281 188 270L327 466L322 466zM394 402C385 442 367 454 394 420L301 295C394 348 394 402 362 315zM219 205L148 196C157 123 175 101 148 155z" />
      <glyph unicode="&#x248;" horiz-adv-x="313" d="M309 304L216 304L186 93C102 -99 -22 -138 167 -43L-41 -67C15 -41 33 -27 -9 -55C64 4 73 24 51 -13C89 71 93 103 82 44L121 304L28 304L39 382L133 382L176 689L270 689L227 382L320 382z" />
      <glyph unicode="&#x249;" horiz-adv-x="318" d="M296 217L201 217L175 29C157 -58 141 -87 168 -19C105 -140 80 -158 125 -116C21 -194 -22 -213 55 -176L-48 -145C2 -119 18 -107 -20 -132C48 -78 59 -57 34 -95C78 -7 84 29 70 -35L110 217L15 217L25 287L120 287L154 527L245 527L211 287L306 287zM222 655C163 680 163 712 186 655C193 780 232 780 163 750C291 756 291 723 268 780C260 655 222 655 291 684z" />
      <glyph unicode="&#x24A;" horiz-adv-x="665" d="M672 -177C599 -213 556 -213 638 -201C422 -169 422 -88 472 -213C422 -63 424 -55 422 -74L432 0L439 51C344 -12 283 -12 396 9C59 83 59 254 148 -12C72 398 98 467 59 327C162 591 210 635 124 535C314 701 378 701 258 679C486 679 524 637 437 701L540 689L623 689L526 0L517 -66C515 -83 515 -87 515 -76C531 -137 564 -137 515 -120C613 -130 641 -114 594 -137zM296 66C402 86 450 129 354 66L511 566C437 623 381 623 476 603C292 604 258 566 333 623C198 480 182 422 224 528C157 307 157 249 165 364C203 66 296 66 157 127z" />
      <glyph unicode="&#x24B;" horiz-adv-x="575" d="M458 -139C480 -136 494 -132 468 -139L513 -196C467 -213 441 -213 491 -207C343 -177 343 -117 381 -213C343 -104 345 -94 343 -112L358 1L367 64C276 -12 218 -12 331 20C50 66 50 190 110 -12C59 296 79 350 50 243C130 448 172 484 99 403C267 539 331 539 214 520C451 527 519 494 396 539L449 1L435 -100C434 -109 434 -115 434 -104C440 -139 458 -139 434 -132zM240 61C331 95 378 158 292 61L422 449C370 466 333 466 392 462C256 451 228 423 291 466C180 359 167 317 200 395C148 232 148 189 154 275C178 61 240 61 148 103z" />
      <glyph unicode="&#x24C;" horiz-adv-x="612" d="M585 518C532 340 411 306 585 424L550 0L446 0L319 292L210 292L169 0L75 0L116 292L25 292L35 365L126 365L172 689L349 689C585 632 585 518 506 689zM321 365C486 434 486 517 438 365C442 615 344 615 486 587L255 615L220 365L321 365z" />
      <glyph unicode="&#x24D;" horiz-adv-x="395" d="M370 539C404 536 423 532 386 539L396 443C369 448 353 448 383 446C252 403 216 317 295 448L305 317L294 247L197 247L162 0L71 0L106 247L13 247L24 317L116 317L145 527L223 527L217 419C310 539 370 539 255 499z" />
      <glyph unicode="&#x24E;" horiz-adv-x="544" d="M544 604L588 604L578 535L498 535L320 265L283 0L187 0L225 264L123 535L47 535L57 604L97 604L65 689L164 689L193 604L443 604L497 689L600 689zM282 348L400 535L217 535z" />
      <glyph unicode="&#x24F;" horiz-adv-x="497" d="M455 387L499 387L489 317L423 317L275 -5C138 -198 0 -213 220 -126L-4 -141C61 -126 83 -115 32 -135C124 -89 140 -71 105 -103C171 -30 187 0 155 -53L153 0L92 317L24 317L34 387L79 387L52 527L148 527L171 387L362 387L424 527L519 527zM222 70L331 317L182 317z" />
      <glyph unicode="&#x250;" horiz-adv-x="534" d="M164 164C163 150 163 140 163 158C187 63 255 63 163 84C341 72 397 92 293 63L418 23C291 -12 235 -12 352 0C70 38 70 130 127 -12C71 154 73 166 70 142L107 408C109 426 109 430 108 418C100 467 75 477 109 454L101 540C183 510 193 461 153 532C287 539 355 539 233 513C506 484 506 400 448 539C404 206 252 206 506 274L170 206zM335 470C233 441 195 384 277 470L179 267L244 267C409 311 409 399 350 267C383 470 335 470 409 445z" />
      <glyph unicode="&#x251;" horiz-adv-x="569" d="M462 120C460 102 460 98 460 109C468 60 494 51 460 74L468 -12C381 21 375 76 412 -5C278 -12 218 -12 332 21C50 65 50 191 110 -12C60 301 81 355 50 247C132 453 171 487 102 409C255 539 307 539 210 521C404 516 430 462 364 539L451 527L523 527L462 120zM410 371C359 466 307 466 392 441C246 453 222 427 274 466C179 366 167 324 198 401C148 237 148 190 154 282C178 61 240 61 148 104C331 95 378 158 292 61z" />
      <glyph unicode="&#x252;" horiz-adv-x="569" d="M351 539C519 461 519 336 459 539C508 225 487 171 519 280C436 73 397 39 466 117C313 -12 262 -12 358 5C164 10 139 65 204 -12L118 0L46 0L107 407C109 425 109 429 108 417C100 466 75 476 109 453L101 539C187 505 194 451 157 532C291 539 351 539 236 505zM262 61C323 74 347 100 294 61C389 160 402 202 371 126C421 289 421 337 414 244C390 466 329 466 421 423C237 431 191 369 277 466L159 156C210 61 262 61 176 85z" />
      <glyph unicode="&#x253;" horiz-adv-x="579" d="M368 539C528 464 528 332 469 539C518 223 499 171 528 277C448 75 406 40 479 119C310 -12 246 -12 364 5C137 -2 60 23 187 -12L131 526L142 602C220 750 322 750 154 692C402 742 445 722 370 750L411 657C355 676 325 676 383 669C239 650 233 597 266 676L223 526L215 475C312 539 368 539 264 517zM253 61C327 75 354 103 293 61C401 167 414 210 381 131C433 295 433 339 426 252C401 466 339 466 433 423C248 438 203 390 288 466L160 77C215 61 253 61 193 65z" />
      <glyph unicode="&#x254;" horiz-adv-x="475" d="M151 -12C39 8 -3 48 90 -12L44 102C107 63 154 62 78 74C225 74 251 100 192 62C296 158 308 198 277 125C327 281 327 326 320 238C291 465 218 465 327 422C142 453 98 425 178 465L60 484C164 539 225 539 109 520C423 456 423 322 351 539C412 205 390 154 423 261C337 63 296 33 368 103C206 -12 151 -12 254 3z" />
      <glyph unicode="&#x255;" horiz-adv-x="484" d="M332 234C439 197 439 135 397 234C358 -12 249 -12 439 43C200 -8 177 -1 224 -12L134 -75L78 -49L122 26L123 27C52 124 52 203 75 65C61 304 80 356 52 253C128 451 168 486 98 408C258 539 319 539 208 521C431 519 472 481 380 539L423 424C361 463 320 463 391 452C245 449 219 422 278 463C175 361 164 321 193 395C148 238 148 196 153 280C155 126 170 106 148 156L172 109C262 234 332 234 220 197zM262 66C360 91 360 135 320 66C347 167 325 167 360 155C266 145 222 71 289 167C245 66 262 66 232 67z" />
      <glyph unicode="&#x256;" horiz-adv-x="588" d="M608 -177C533 -213 490 -213 572 -201C355 -167 355 -86 406 -213C355 -61 357 -54 355 -72L365 0L378 86C284 -12 218 -12 339 23C51 67 51 197 111 -12C59 299 76 352 51 247C120 449 157 485 93 404C240 539 296 539 193 521C396 517 431 473 351 539L470 748L560 738L456 0L447 -68C446 -79 446 -87 446 -72C463 -139 497 -139 446 -121C546 -131 576 -117 527 -139zM236 61C339 101 390 183 297 61L421 402C361 466 313 466 394 444C241 451 217 422 273 466C174 356 164 314 192 392C148 230 148 190 153 272C180 61 236 61 148 103z" />
      <glyph unicode="&#x257;" horiz-adv-x="587" d="M616 750C697 734 728 710 664 750L687 654C648 676 619 676 663 670C546 649 540 599 576 676L530 527L456 0L376 0L377 87C284 -12 218 -12 338 24C51 67 51 197 111 -12C59 299 76 352 51 247C120 449 157 485 93 404C240 539 296 539 193 521C396 517 431 473 351 539L439 527L449 597C524 750 616 750 463 698zM421 402C361 466 313 466 394 444C241 451 217 422 273 466C174 356 164 314 192 392C148 230 148 190 153 272C180 61 236 61 148 103C339 101 390 183 297 61z" />
      <glyph unicode="&#x258;" horiz-adv-x="518" d="M255 539C464 448 463 308 397 539C453 193 432 145 463 248C379 58 339 30 410 97C252 -12 198 -12 299 2C63 11 17 54 119 -12L68 109C144 65 200 65 108 78C328 116 352 196 276 65C62 263 62 369 158 206C70 432 88 458 62 402C128 504 158 518 105 484C220 539 255 539 188 532zM157 372C226 273 366 265 157 301C369 299 369 317 368 282C333 466 255 466 369 409C157 429 157 372 195 466z" />
      <glyph unicode="&#x259;" horiz-adv-x="517" d="M264 539C465 459 465 325 392 539C455 220 437 168 465 272C389 73 349 39 419 116C256 -12 194 -12 308 5C27 47 27 122 87 -12C153 307 369 331 27 258C329 462 255 462 367 418C162 446 114 413 205 462L75 475C197 539 264 539 134 517zM195 61C349 149 364 261 296 61C123 210 123 125 198 242C144 61 195 61 123 93z" />
      <glyph unicode="&#x25A;" horiz-adv-x="754" d="M786 349C710 313 666 313 750 325C538 357 538 425 584 313C538 440 539 444 538 433L541 453L454 409C465 355 465 325 461 383C455 220 437 168 465 272C389 73 349 39 419 116C256 -12 194 -12 308 5C27 47 27 122 87 -12C153 307 369 331 27 258C329 462 255 462 367 418C162 446 114 413 205 462L75 475C197 539 264 539 134 517C390 514 426 466 336 539L550 527L637 527L627 454C626 443 626 435 626 449C642 387 676 387 626 400C727 395 755 411 708 387zM195 61C349 149 364 261 296 61C123 210 123 125 198 242C144 61 195 61 123 93z" />
      <glyph unicode="&#x25B;" horiz-adv-x="483" d="M232 -12C40 49 40 137 116 -12C85 268 192 282 40 210C98 334 98 387 129 299C105 436 119 460 98 412C155 502 185 517 133 483C252 539 297 539 215 531C416 520 461 484 361 539L413 431C346 467 297 467 378 455C189 433 189 385 226 467C222 311 281 311 189 337L343 311L322 239L269 239C137 198 137 138 173 239C172 62 240 62 137 90C331 76 387 111 290 62L427 51C302 -12 232 -12 367 9z" />
      <glyph unicode="&#x25C;" horiz-adv-x="490" d="M257 539C429 487 429 406 353 539C387 298 307 281 429 344C424 229 424 163 381 269C415 104 398 78 424 133C355 29 320 13 381 51C242 -12 191 -12 285 -3C48 9 -4 53 113 -12L45 109C137 62 191 62 88 77C327 106 327 164 283 62C280 239 202 239 327 218L131 239L147 311L198 311C335 349 335 401 290 311C301 467 248 467 335 446C154 452 101 424 190 467L62 480C181 539 257 539 120 520z" />
      <glyph unicode="&#x25D;" horiz-adv-x="732" d="M764 349C688 313 644 313 728 325C516 357 516 425 562 313C516 440 517 444 516 433L519 453L429 407L429 406C387 298 307 281 429 344C424 229 424 163 381 269C415 104 398 78 424 133C355 29 320 13 381 51C242 -12 191 -12 285 -3C48 9 -4 53 113 -12L45 109C137 62 191 62 88 77C327 106 327 164 283 62C280 239 202 239 327 218L131 239L147 311L198 311C335 349 335 401 290 311C301 467 248 467 335 446C154 452 101 424 190 467L62 480C181 539 257 539 120 520C383 513 411 469 323 539L528 527L615 527L605 454C604 443 604 435 604 449C620 387 654 387 604 400C705 395 733 411 686 387z" />
      <glyph unicode="&#x25E;" horiz-adv-x="556" d="M259 -12C52 67 52 202 121 -12C63 321 85 372 52 264C138 464 180 494 107 423C270 539 326 539 221 524C495 485 495 404 420 539C453 298 373 281 495 342C490 229 490 163 447 269C481 104 464 78 490 133C421 29 387 13 447 51C309 -12 259 -12 352 -3zM263 62C395 106 395 164 352 62C348 239 268 239 395 218L240 239L256 311L264 311C403 349 403 401 357 311C374 467 321 467 403 443C249 453 223 427 281 467C177 367 165 326 197 401C146 242 146 198 152 285C180 62 263 62 146 102z" />
      <glyph unicode="&#x25F;" horiz-adv-x="318" d="M296 217L201 217L175 29C157 -58 141 -87 168 -19C105 -140 80 -158 125 -116C21 -194 -22 -213 55 -176L-48 -145C2 -119 18 -107 -20 -132C48 -78 59 -57 34 -95C78 -7 84 29 70 -35L110 217L15 217L25 287L120 287L154 527L245 527L211 287L306 287z" />
      <glyph unicode="&#x260;" horiz-adv-x="584" d="M613 750C694 734 725 710 661 750L684 654C645 676 616 676 660 670C543 649 537 599 573 676L527 527L450 12C341 -216 209 -216 426 -149C77 -195 27 -165 146 -216L62 -95C153 -137 204 -137 100 -117C345 -104 361 13 288 -137L370 80C276 0 222 0 330 30C51 76 51 198 114 0C61 309 81 361 51 254C132 455 174 489 101 413C270 539 335 539 216 522C403 532 435 520 370 539L446 597C521 750 613 750 460 698zM239 73C336 109 383 172 292 73L424 449C373 466 337 466 394 462C259 453 231 427 295 466C182 367 169 326 203 401C149 242 149 197 155 285C183 73 239 73 149 113z" />
      <glyph unicode="&#x261;" horiz-adv-x="580" d="M337 539C460 524 523 494 403 539L450 12C341 -216 209 -216 426 -149C77 -195 27 -165 146 -216L62 -95C153 -137 204 -137 100 -117C345 -104 361 13 288 -137L370 80C276 0 220 0 328 30C51 76 51 198 114 0C61 309 81 361 51 254C132 455 175 489 101 413C271 539 337 539 217 522zM337 466C259 453 231 427 295 466C182 367 169 326 203 401C149 242 149 197 155 285C183 73 239 73 149 113C336 109 383 172 292 73L426 449C371 466 337 466 395 461z" />
      <glyph unicode="&#x262;" horiz-adv-x="555" d="M336 539C458 517 508 473 412 539L453 419C382 463 333 463 415 451C259 450 231 425 293 463C183 367 169 327 203 400C148 243 148 197 155 286C185 62 261 62 148 101C332 69 369 85 296 62L386 226L291 226L291 297L485 297L451 41C320 -11 253 -11 386 6C52 63 52 201 125 -11C64 318 88 370 52 262C145 463 188 493 112 422C280 539 336 539 231 523z" />
      <glyph unicode="&#x263;" horiz-adv-x="486" d="M262 62C303 -43 303 -87 290 -6C256 -213 179 -213 303 -171C77 -177 77 -124 115 -213C107 -12 166 65 77 -73L47 527L146 527L222 127L414 527L514 527zM224 -89C219 -36 207 2 224 -59C156 -90 156 -118 179 -40C165 -144 183 -144 156 -135C224 -125 224 -89 210 -144z" />
      <glyph unicode="&#x264;" horiz-adv-x="523" d="M482 539C533 529 556 509 514 539L521 460C502 470 492 470 511 466C460 458 438 424 472 470L305 223C345 138 345 98 333 168C301 -12 227 -12 345 32C130 23 130 75 167 -12C158 167 209 227 130 121L133 437C116 470 99 470 123 462C75 466 63 458 87 470L37 513C85 539 113 539 59 530C197 506 216 436 169 539L264 285L356 440C428 539 482 539 398 512zM268 100C262 141 250 172 268 122C207 105 207 83 221 135C215 57 232 57 207 65C268 73 268 100 253 57z" />
      <glyph unicode="&#x265;" horiz-adv-x="576" d="M374 99C266 -12 200 -12 324 25C72 38 72 121 120 -12C72 146 74 154 72 135L127 527L218 527L166 159C164 134 164 130 164 144C184 65 219 65 164 83C342 125 390 211 283 65L433 527L524 527L421 -205L330 -216z" />
      <glyph unicode="&#x266;" horiz-adv-x="581" d="M381 539C509 489 509 407 461 539C508 381 507 373 509 392L454 0L363 0L415 368C417 392 417 398 416 382C396 462 362 462 417 444C239 401 191 316 298 462L148 0L57 0L131 526L142 602C220 750 322 750 154 692C402 742 445 722 370 750L411 657C355 676 325 676 383 669C239 650 233 597 266 676L223 526L209 428C313 539 381 539 256 502z" />
      <glyph unicode="&#x267;" horiz-adv-x="581" d="M381 539C509 489 509 407 461 539C508 381 507 373 509 392L454 0L446 -60C368 -213 278 -213 431 -161C199 -199 167 -173 236 -213L208 -117C247 -139 274 -139 232 -133C347 -114 354 -62 318 -139L363 0L415 368C417 392 417 398 416 382C396 462 362 462 417 444C239 401 191 316 298 462L148 0L57 0L131 526L142 602C220 750 322 750 154 692C402 742 445 722 370 750L411 657C355 676 325 676 383 669C239 650 233 597 266 676L223 526L209 428C313 539 381 539 256 502z" />
      </font>
</defs>
</svg>
